<svg width="185" height="94" viewBox="0 0 185 94" fill="none" xmlns="http://www.w3.org/2000/svg">
<path fill-rule="evenodd" clip-rule="evenodd" d="M38.7899 13.6324V10.5797L30.3509 13.7163H30.335V16.8489H30.3509L38.7899 19.9855V16.9288L34.4625 15.2746L38.7899 13.6284V13.6324Z" fill="#AB4BF7"/>
<path fill-rule="evenodd" clip-rule="evenodd" d="M87.6694 19.8336V16.7809L91.9927 15.1387L87.6694 13.4964V10.4437L96.0963 13.5803H96.1163V16.717H96.0963L87.6694 19.8376V19.8336ZM84.0493 6.12436L79.0946 22.0312H82.0354L86.9901 6.12436H84.0493Z" fill="#AB4BF7"/>
<path fill-rule="evenodd" clip-rule="evenodd" d="M51.1886 10.16C52.0277 11.079 52.4672 12.2937 52.4153 13.5364V20.3131H49.4745V14.1597C49.5104 13.4725 49.2906 12.8012 48.8591 12.2658C48.4516 11.7903 47.8482 11.5266 47.2209 11.5545C45.3789 11.5545 44.4559 12.8331 44.4559 15.3864V20.3131H41.515V9.18907H44.4559V10.192C45.3908 9.28496 46.6575 8.80149 47.9601 8.85743C49.1748 8.80548 50.3495 9.28097 51.1886 10.16V10.16Z" fill="#AB4BF7"/>
<path fill-rule="evenodd" clip-rule="evenodd" d="M56.1633 4.40625V20.3131H59.1042V4.40625H56.1633Z" fill="#AB4BF7"/>
<path fill-rule="evenodd" clip-rule="evenodd" d="M75.7341 20.3131H73.2807L70.8753 13.7602L68.4459 20.3131H65.9926L61.869 9.16913H65.0136L67.3311 15.834L69.7206 9.16913H72.0181L74.4075 15.8539L76.725 9.16913H79.8696L75.7421 20.3131H75.7341Z" fill="#AB4BF7"/>
<path d="M110.123 26.4347C107.293 26.4347 104.321 25.8986 101.991 24.6075V1.82727C104.285 0.572623 107.257 3.05176e-05 110.123 3.05176e-05C112.988 3.05176e-05 115.891 0.536134 118.181 1.82727V10.5677H112.413V4.62006C111.734 4.33377 110.909 4.22711 110.086 4.22711C109.264 4.22711 108.509 4.33377 107.793 4.62006V21.8147C108.472 22.101 109.261 22.2076 110.086 22.2076C110.911 22.2076 111.697 22.101 112.413 21.8147V15.8698H118.181V24.6103C115.924 25.8649 112.952 26.401 110.123 26.4375V26.4347Z" fill="#F7DD43"/>
<path d="M128.999 26.4347C125.953 26.4347 123.017 25.7891 120.688 24.4643L120.109 1.93389C122.403 0.645558 125.886 22.7186 128.965 22.7186C132.044 22.7186 135.488 0.562023 137.781 1.88684L137.237 24.4643C134.98 25.7891 132.008 26.3982 128.999 26.4347ZM131.472 4.693C130.792 4.4067 129.967 4.26355 128.965 4.26355C127.963 4.26355 127.174 4.4067 126.492 4.693V21.708C127.015 22.2076 127.997 22.7186 128.965 22.7186C129.933 22.7186 130.902 22.2076 131.472 21.708V4.693Z" fill="#F7DD43"/>
<path d="M147.302 16.7624H145.761V26.1119H139.923V0.32279H147.302C150.813 0.32279 153.463 1.03853 155.54 2.5065V14.5786C153.499 16.0129 150.81 16.7624 147.302 16.7624ZM149.738 4.76318C149.202 4.37023 148.484 4.19059 147.265 4.19059H145.688V12.8946H147.265C148.447 12.8946 149.163 12.7149 149.738 12.3584V4.76318Z" fill="#F7DD43"/>
<path d="M20.2385 72.9903C20.2385 72.4309 20.1525 71.9289 19.9803 71.4842C19.8226 71.0253 19.5214 70.6093 19.0767 70.2364C18.6321 69.8491 18.0081 69.469 17.2049 69.0961C16.4017 68.7232 15.3618 68.3359 14.0853 67.9343C12.6653 67.4753 11.317 66.9589 10.0405 66.3852C8.77825 65.8115 7.65947 65.1445 6.68413 64.3843C5.72313 63.6098 4.96294 62.7133 4.40355 61.695C3.85851 60.6766 3.58598 59.4933 3.58598 58.145C3.58598 56.8398 3.87285 55.6565 4.44658 54.595C5.02031 53.5193 5.82353 52.6013 6.85625 51.8411C7.88897 51.0666 9.10814 50.4714 10.5138 50.0554C11.9338 49.6394 13.49 49.4315 15.1825 49.4315C17.4918 49.4315 19.507 49.8474 21.2282 50.6793C22.9494 51.5112 24.2833 52.6515 25.23 54.1002C26.191 55.5489 26.6715 57.2055 26.6715 59.0701H20.26C20.26 58.1522 20.0664 57.349 19.6791 56.6605C19.3062 55.9577 18.7325 55.4054 17.9579 55.0038C17.1977 54.6022 16.2367 54.4014 15.0749 54.4014C13.9562 54.4014 13.0239 54.5735 12.278 54.9178C11.5322 55.2477 10.9728 55.6995 10.5998 56.2732C10.2269 56.8326 10.0405 57.4637 10.0405 58.1665C10.0405 58.6972 10.1695 59.1777 10.4277 59.608C10.7002 60.0383 11.1019 60.4399 11.6326 60.8129C12.1633 61.1858 12.8159 61.5372 13.5904 61.8671C14.365 62.197 15.2614 62.5197 16.2798 62.8353C17.9866 63.3516 19.4855 63.9325 20.7764 64.578C22.0816 65.2234 23.1717 65.9477 24.0467 66.751C24.9216 67.5542 25.5814 68.465 26.026 69.4834C26.4707 70.5017 26.693 71.6564 26.693 72.9473C26.693 74.3099 26.4276 75.529 25.8969 76.6048C25.3662 77.6805 24.5989 78.5913 23.5948 79.3372C22.5908 80.083 21.3932 80.6496 20.0019 81.0369C18.6106 81.4241 17.0543 81.6178 15.3331 81.6178C13.784 81.6178 12.2565 81.417 10.7504 81.0154C9.2444 80.5994 7.87462 79.9755 6.6411 79.1436C5.42192 78.3116 4.44658 77.2502 3.71507 75.9593C2.98357 74.6685 2.61781 73.1409 2.61781 71.3767H9.0938C9.0938 72.352 9.2444 73.1768 9.54561 73.8509C9.84682 74.525 10.2699 75.0701 10.815 75.486C11.3744 75.902 12.0342 76.2032 12.7944 76.3896C13.5689 76.5761 14.4152 76.6693 15.3331 76.6693C16.4519 76.6693 17.3699 76.5116 18.087 76.196C18.8185 75.8805 19.3564 75.443 19.7006 74.8836C20.0592 74.3242 20.2385 73.6931 20.2385 72.9903ZM40.3119 76.7769C41.0721 76.7769 41.7463 76.6335 42.3343 76.3466C42.9224 76.0454 43.3814 75.6295 43.7113 75.0988C44.0555 74.5537 44.2348 73.9154 44.2492 73.1839H50.0797C50.0653 74.8191 49.6279 76.2749 48.7673 77.5515C47.9067 78.8137 46.7521 79.8105 45.3034 80.542C43.8547 81.2592 42.2339 81.6178 40.441 81.6178C38.6338 81.6178 37.056 81.3166 35.7077 80.7141C34.3738 80.1117 33.2622 79.2798 32.3729 78.2184C31.4836 77.1427 30.8167 75.8948 30.372 74.4748C29.9274 73.0405 29.7051 71.5058 29.7051 69.8706V69.2467C29.7051 67.5972 29.9274 66.0625 30.372 64.6425C30.8167 63.2082 31.4836 61.9603 32.3729 60.8989C33.2622 59.8232 34.3738 58.9841 35.7077 58.3817C37.0417 57.7793 38.6051 57.478 40.398 57.478C42.3056 57.478 43.9766 57.8438 45.411 58.5753C46.8596 59.3068 47.9927 60.3539 48.8103 61.7165C49.6422 63.0647 50.0653 64.664 50.0797 66.5143H44.2492C44.2348 65.7398 44.0699 65.0369 43.7543 64.4058C43.4531 63.7747 43.0085 63.2727 42.4204 62.8998C41.8467 62.5125 41.1367 62.3189 40.2904 62.3189C39.3868 62.3189 38.6481 62.5125 38.0744 62.8998C37.5006 63.2727 37.056 63.7891 36.7405 64.4489C36.4249 65.0943 36.2026 65.833 36.0735 66.6649C35.9587 67.4825 35.9014 68.3431 35.9014 69.2467V69.8706C35.9014 70.7743 35.9587 71.642 36.0735 72.4739C36.1882 73.3058 36.4034 74.0445 36.7189 74.69C37.0488 75.3354 37.5006 75.8446 38.0744 76.2175C38.6481 76.5905 39.394 76.7769 40.3119 76.7769ZM59.7184 48.1406V81.1875H53.5221V48.1406H59.7184ZM58.8363 68.7303H57.1366C57.1509 67.1096 57.3661 65.6179 57.782 64.2552C58.198 62.8783 58.7932 61.6878 59.5678 60.6838C60.3423 59.6654 61.2674 58.8765 62.3432 58.3171C63.4333 57.7577 64.6381 57.478 65.9577 57.478C67.1051 57.478 68.145 57.643 69.0773 57.9729C70.024 58.2884 70.8344 58.8048 71.5085 59.522C72.197 60.2248 72.7277 61.1499 73.1006 62.2974C73.4736 63.4448 73.66 64.8361 73.66 66.4713V81.1875H67.4207V66.4282C67.4207 65.3955 67.2701 64.5851 66.9689 63.9971C66.682 63.3946 66.2589 62.9715 65.6995 62.7277C65.1545 62.4695 64.4803 62.3404 63.6771 62.3404C62.7878 62.3404 62.0276 62.5054 61.3965 62.8353C60.7798 63.1652 60.2849 63.6241 59.912 64.2122C59.5391 64.7859 59.2666 65.4601 59.0944 66.2346C58.9223 67.0091 58.8363 67.8411 58.8363 68.7303ZM89.0862 81.6178C87.279 81.6178 85.6582 81.3309 84.2238 80.7572C82.7895 80.1691 81.5703 79.3587 80.5663 78.326C79.5766 77.2933 78.8164 76.0956 78.2857 74.733C77.755 73.356 77.4897 71.893 77.4897 70.344V69.4834C77.4897 67.7191 77.7407 66.1055 78.2427 64.6425C78.7447 63.1795 79.4619 61.9101 80.3942 60.8344C81.3408 59.7586 82.4883 58.9339 83.8366 58.3602C85.1848 57.7721 86.7052 57.478 88.3977 57.478C90.0472 57.478 91.5102 57.7506 92.7868 58.2956C94.0633 58.8407 95.1319 59.6152 95.9925 60.6192C96.8674 61.6233 97.5272 62.8281 97.9719 64.2337C98.4165 65.625 98.6388 67.1741 98.6388 68.8809V71.4627H80.136V67.3319H92.5501V66.8585C92.5501 65.9979 92.3923 65.2306 92.0768 64.5564C91.7756 63.868 91.3166 63.3229 90.6998 62.9213C90.0831 62.5197 89.2942 62.3189 88.3332 62.3189C87.5156 62.3189 86.8128 62.4982 86.2247 62.8568C85.6367 63.2154 85.1562 63.7174 84.7832 64.3628C84.4246 65.0083 84.1521 65.7685 83.9657 66.6434C83.7935 67.504 83.7075 68.4506 83.7075 69.4834V70.344C83.7075 71.2763 83.8366 72.1369 84.0948 72.9257C84.3673 73.7146 84.7474 74.3959 85.235 74.9697C85.7371 75.5434 86.3395 75.988 87.0423 76.3036C87.7595 76.6191 88.5699 76.7769 89.4735 76.7769C90.5923 76.7769 91.6321 76.5618 92.5931 76.1315C93.5685 75.6868 94.4076 75.0199 95.1104 74.1306L98.1225 77.4008C97.6348 78.1037 96.9678 78.7778 96.1216 79.4232C95.2897 80.0687 94.2856 80.5994 93.1095 81.0154C91.9334 81.417 90.5923 81.6178 89.0862 81.6178ZM115.915 76.11V48.1406H122.155V81.1875H116.539L115.915 76.11ZM101.199 69.8276V69.3758C101.199 67.5972 101.4 65.9836 101.802 64.5349C102.203 63.0719 102.791 61.8169 103.566 60.7698C104.34 59.7228 105.294 58.9124 106.427 58.3386C107.56 57.7649 108.851 57.478 110.3 57.478C111.663 57.478 112.853 57.7649 113.871 58.3386C114.904 58.9124 115.779 59.7299 116.496 60.7913C117.228 61.8384 117.816 63.0791 118.26 64.5134C118.705 65.9334 119.028 67.4896 119.229 69.1822V70.1718C119.028 71.7926 118.705 73.2987 118.26 74.69C117.816 76.0813 117.228 77.3004 116.496 78.3475C115.779 79.3802 114.904 80.1834 113.871 80.7572C112.839 81.3309 111.634 81.6178 110.257 81.6178C108.808 81.6178 107.517 81.3237 106.384 80.7357C105.265 80.1476 104.319 79.3228 103.544 78.2614C102.784 77.2 102.203 75.9522 101.802 74.5178C101.4 73.0835 101.199 71.5201 101.199 69.8276ZM107.395 69.3758V69.8276C107.395 70.7886 107.467 71.6851 107.611 72.517C107.768 73.3489 108.019 74.0876 108.364 74.733C108.722 75.3641 109.181 75.8589 109.741 76.2175C110.314 76.5618 111.01 76.7339 111.827 76.7339C112.889 76.7339 113.764 76.4972 114.452 76.0239C115.141 75.5362 115.664 74.8693 116.023 74.023C116.396 73.1768 116.611 72.2014 116.668 71.097V68.2785C116.625 67.3749 116.496 66.5645 116.281 65.8473C116.08 65.1158 115.779 64.4919 115.377 63.9755C114.99 63.4592 114.502 63.0576 113.914 62.7707C113.341 62.4838 112.659 62.3404 111.87 62.3404C111.067 62.3404 110.379 62.5269 109.805 62.8998C109.231 63.2584 108.765 63.7532 108.407 64.3843C108.062 65.0154 107.804 65.7613 107.632 66.6219C107.474 67.4681 107.395 68.3861 107.395 69.3758ZM140.765 75.6151V57.9083H146.961V81.1875H141.131L140.765 75.6151ZM141.453 70.8388L143.282 70.7958C143.282 72.3448 143.103 73.7863 142.744 75.1203C142.386 76.4398 141.848 77.5873 141.131 78.5627C140.414 79.5237 139.51 80.2767 138.42 80.8217C137.33 81.3524 136.046 81.6178 134.569 81.6178C133.436 81.6178 132.389 81.46 131.428 81.1444C130.481 80.8145 129.663 80.3054 128.975 79.6169C128.301 78.9141 127.77 78.0176 127.383 76.9275C127.01 75.8231 126.823 74.4963 126.823 72.9473V57.9083H133.02V72.9903C133.02 73.6788 133.099 74.2597 133.256 74.733C133.428 75.2063 133.665 75.5936 133.966 75.8948C134.268 76.196 134.619 76.4112 135.021 76.5403C135.436 76.6693 135.895 76.7339 136.397 76.7339C137.674 76.7339 138.678 76.4757 139.41 75.9593C140.155 75.443 140.679 74.7402 140.98 73.8509C141.296 72.9473 141.453 71.9432 141.453 70.8388ZM158.235 48.1406V81.1875H152.017V48.1406H158.235ZM174.07 81.6178C172.263 81.6178 170.642 81.3309 169.208 80.7572C167.773 80.1691 166.554 79.3587 165.55 78.326C164.56 77.2933 163.8 76.0956 163.27 74.733C162.739 73.356 162.474 71.893 162.474 70.344V69.4834C162.474 67.7191 162.725 66.1055 163.227 64.6425C163.729 63.1795 164.446 61.9101 165.378 60.8344C166.325 59.7586 167.472 58.9339 168.82 58.3602C170.169 57.7721 171.689 57.478 173.382 57.478C175.031 57.478 176.494 57.7506 177.771 58.2956C179.047 58.8407 180.116 59.6152 180.976 60.6192C181.851 61.6233 182.511 62.8281 182.956 64.2337C183.4 65.625 183.623 67.1741 183.623 68.8809V71.4627H165.12V67.3319H177.534V66.8585C177.534 65.9979 177.376 65.2306 177.061 64.5564C176.759 63.868 176.3 63.3229 175.684 62.9213C175.067 62.5197 174.278 62.3189 173.317 62.3189C172.499 62.3189 171.797 62.4982 171.209 62.8568C170.621 63.2154 170.14 63.7174 169.767 64.3628C169.409 65.0083 169.136 65.7685 168.95 66.6434C168.777 67.504 168.691 68.4506 168.691 69.4834V70.344C168.691 71.2763 168.82 72.1369 169.079 72.9257C169.351 73.7146 169.731 74.3959 170.219 74.9697C170.721 75.5434 171.323 75.988 172.026 76.3036C172.743 76.6191 173.554 76.7769 174.457 76.7769C175.576 76.7769 176.616 76.5618 177.577 76.1315C178.552 75.6868 179.391 75.0199 180.094 74.1306L183.106 77.4008C182.619 78.1037 181.952 78.7778 181.105 79.4232C180.274 80.0687 179.27 80.5994 178.093 81.0154C176.917 81.417 175.576 81.6178 174.07 81.6178Z" fill="url(#paint0_linear_122_251)"/>
<defs>
<linearGradient id="paint0_linear_122_251" x1="92.9374" y1="38.1875" x2="92.9374" y2="93.1875" gradientUnits="userSpaceOnUse">
<stop stop-color="#FBEDA7"/>
<stop offset="1" stop-color="#D9D9D9" stop-opacity="0.8"/>
</linearGradient>
</defs>
</svg>
