<svg width="126" height="64" viewBox="0 0 126 64" fill="none" xmlns="http://www.w3.org/2000/svg">
<path fill-rule="evenodd" clip-rule="evenodd" d="M26.1336 9.2816V7.20316L20.388 9.33873H20.3771V11.4716H20.388L26.1336 13.6072V11.526L23.1873 10.3997L26.1336 9.27888V9.2816Z" fill="#AB4BF7"/>
<path fill-rule="evenodd" clip-rule="evenodd" d="M59.4132 13.5037V11.4253L62.3568 10.3072L59.4132 9.18905V7.1106L65.1507 9.24618H65.1643V11.3817H65.1507L59.4132 13.5064V13.5037ZM56.9485 4.16977L53.5751 15H55.5773L58.9507 4.16977H56.9485Z" fill="#AB4BF7"/>
<path fill-rule="evenodd" clip-rule="evenodd" d="M34.5753 6.91747C35.1466 7.54317 35.4458 8.3702 35.4105 9.21627V13.8302H33.4082V9.64066C33.4327 9.17274 33.2831 8.7157 32.9892 8.35116C32.7118 8.02742 32.301 7.84787 31.8739 7.86691C30.6197 7.86691 29.9913 8.73746 29.9913 10.4758V13.8302H27.989V6.25639H29.9913V6.93923C30.6279 6.32168 31.4903 5.99251 32.3771 6.03059C33.2042 5.99523 34.004 6.31896 34.5753 6.91747Z" fill="#AB4BF7"/>
<path fill-rule="evenodd" clip-rule="evenodd" d="M37.9623 3V13.8302H39.9646V3H37.9623Z" fill="#AB4BF7"/>
<path fill-rule="evenodd" clip-rule="evenodd" d="M51.2871 13.8302H49.6167L47.979 9.36862L46.3249 13.8302H44.6546L41.847 6.2428H43.9881L45.5659 10.7806L47.1928 6.2428H48.7571L50.3839 10.7942L51.9618 6.2428H54.1028L51.2925 13.8302H51.2871Z" fill="#AB4BF7"/>
<path d="M74.7006 17.9981C72.7742 17.9981 70.7505 17.6331 69.1643 16.754V1.24411C70.7256 0.38988 72.7494 3.05176e-05 74.7006 3.05176e-05C76.6517 3.05176e-05 78.6277 0.365037 80.1871 1.24411V7.19505H76.26V3.14558C75.7975 2.95066 75.2356 2.87804 74.6757 2.87804C74.1158 2.87804 73.6017 2.95066 73.1144 3.14558V14.8525C73.5769 15.0475 74.1139 15.1201 74.6757 15.1201C75.2376 15.1201 75.7726 15.0475 76.26 14.8525V10.805H80.1871V16.7559C78.6506 17.6102 76.6269 17.9752 74.7006 18V17.9981Z" fill="#F7DD43"/>
<path d="M87.5523 17.9981C85.4788 17.9981 83.4799 17.5585 81.8937 16.6565L81.5 1.3167C83.0613 0.439538 85.433 15.468 87.5294 15.468C89.6258 15.468 91.9707 0.382663 93.532 1.28467L93.1612 16.6565C91.6247 17.5585 89.6009 17.9732 87.5523 17.9981ZM89.2359 3.19524C88.7734 3.00032 88.2116 2.90285 87.5294 2.90285C86.8471 2.90285 86.3101 3.00032 85.8458 3.19524V14.7799C86.2016 15.1201 86.8701 15.468 87.5294 15.468C88.1887 15.468 88.8479 15.1201 89.2359 14.7799V3.19524Z" fill="#F7DD43"/>
<path d="M100.014 11.4127H98.9649V17.7783H94.9899V0.219781H100.014C102.405 0.219781 104.209 0.707094 105.623 1.70656V9.92589C104.234 10.9024 102.403 11.4127 100.014 11.4127ZM101.673 3.24303C101.308 2.97548 100.819 2.85318 99.9892 2.85318H98.9152V8.77927H99.9892C100.794 8.77927 101.281 8.65697 101.673 8.41427V3.24303Z" fill="#F7DD43"/>
<path d="M13.5029 49.4189C13.5029 49.0381 13.4443 48.6963 13.3271 48.3935C13.2197 48.081 13.0146 47.7978 12.7119 47.5439C12.4092 47.2802 11.9844 47.0215 11.4375 46.7675C10.8906 46.5136 10.1826 46.25 9.31348 45.9765C8.34668 45.664 7.42871 45.3125 6.55957 44.9218C5.7002 44.5312 4.93848 44.0771 4.27441 43.5595C3.62012 43.0322 3.10254 42.4218 2.72168 41.7285C2.35059 41.0351 2.16504 40.2295 2.16504 39.3115C2.16504 38.4228 2.36035 37.6172 2.75098 36.8945C3.1416 36.1621 3.68848 35.5371 4.3916 35.0195C5.09473 34.4922 5.9248 34.0869 6.88184 33.8037C7.84863 33.5205 8.9082 33.3789 10.0605 33.3789C11.6328 33.3789 13.0049 33.6621 14.1768 34.2285C15.3486 34.7949 16.2568 35.5713 16.9014 36.5576C17.5557 37.5439 17.8828 38.6718 17.8828 39.9414H13.5176C13.5176 39.3164 13.3857 38.7695 13.1221 38.3008C12.8682 37.8222 12.4775 37.4463 11.9502 37.1728C11.4326 36.8994 10.7783 36.7627 9.9873 36.7627C9.22559 36.7627 8.59082 36.8799 8.08301 37.1142C7.5752 37.3388 7.19434 37.6465 6.94043 38.0371C6.68652 38.4179 6.55957 38.8476 6.55957 39.3261C6.55957 39.6875 6.64746 40.0146 6.82324 40.3076C7.00879 40.6006 7.28223 40.874 7.64355 41.1279C8.00488 41.3818 8.44922 41.6211 8.97656 41.8457C9.50391 42.0703 10.1143 42.29 10.8076 42.5049C11.9697 42.8564 12.9902 43.2519 13.8691 43.6914C14.7578 44.1308 15.5 44.624 16.0957 45.1709C16.6914 45.7177 17.1406 46.3379 17.4434 47.0312C17.7461 47.7246 17.8975 48.5107 17.8975 49.3896C17.8975 50.3174 17.7168 51.1474 17.3555 51.8799C16.9941 52.6123 16.4717 53.2324 15.7881 53.7402C15.1045 54.248 14.2891 54.6338 13.3418 54.8974C12.3945 55.1611 11.335 55.2929 10.1631 55.2929C9.1084 55.2929 8.06836 55.1562 7.04297 54.8828C6.01758 54.5996 5.08496 54.1748 4.24512 53.6084C3.41504 53.042 2.75098 52.3193 2.25293 51.4404C1.75488 50.5615 1.50586 49.5215 1.50586 48.3203H5.91504C5.91504 48.9843 6.01758 49.5459 6.22266 50.0049C6.42773 50.4638 6.71582 50.8349 7.08691 51.1181C7.46777 51.4013 7.91699 51.6064 8.43457 51.7334C8.96191 51.8603 9.53809 51.9238 10.1631 51.9238C10.9248 51.9238 11.5498 51.8164 12.0381 51.6015C12.5361 51.3867 12.9023 51.0888 13.1367 50.708C13.3809 50.3271 13.5029 49.8974 13.5029 49.4189ZM27.1699 51.997C27.6875 51.997 28.1465 51.8994 28.5469 51.7041C28.9473 51.499 29.2598 51.2158 29.4844 50.8545C29.7188 50.4834 29.8408 50.0488 29.8506 49.5508H33.8203C33.8105 50.664 33.5127 51.6552 32.9268 52.5244C32.3408 53.3838 31.5547 54.0625 30.5684 54.5605C29.582 55.0488 28.4785 55.2929 27.2578 55.2929C26.0273 55.2929 24.9531 55.0879 24.0352 54.6777C23.127 54.2675 22.3701 53.7011 21.7646 52.9785C21.1592 52.2461 20.7051 51.3965 20.4023 50.4297C20.0996 49.4531 19.9482 48.4082 19.9482 47.2949V46.8701C19.9482 45.747 20.0996 44.7021 20.4023 43.7353C20.7051 42.7588 21.1592 41.9091 21.7646 41.1865C22.3701 40.4541 23.127 39.8828 24.0352 39.4726C24.9434 39.0625 26.0078 38.8574 27.2285 38.8574C28.5273 38.8574 29.665 39.1064 30.6416 39.6045C31.6279 40.1025 32.3994 40.8154 32.9561 41.7431C33.5225 42.6611 33.8105 43.75 33.8203 45.0097H29.8506C29.8408 44.4824 29.7285 44.0039 29.5137 43.5742C29.3086 43.1445 29.0059 42.8027 28.6055 42.5488C28.2148 42.2851 27.7314 42.1533 27.1553 42.1533C26.54 42.1533 26.0371 42.2851 25.6465 42.5488C25.2559 42.8027 24.9531 43.1543 24.7383 43.6035C24.5234 44.0429 24.3721 44.5459 24.2842 45.1123C24.2061 45.6689 24.167 46.2549 24.167 46.8701V47.2949C24.167 47.9101 24.2061 48.5009 24.2842 49.0674C24.3623 49.6338 24.5088 50.1367 24.7236 50.5761C24.9482 51.0156 25.2559 51.3623 25.6465 51.6162C26.0371 51.8701 26.5449 51.997 27.1699 51.997ZM40.3828 32.5V55H36.1641V32.5H40.3828ZM39.7822 46.5185H38.625C38.6348 45.415 38.7812 44.3994 39.0645 43.4716C39.3477 42.5341 39.7529 41.7236 40.2803 41.04C40.8076 40.3466 41.4375 39.8095 42.1699 39.4287C42.9121 39.0478 43.7324 38.8574 44.6309 38.8574C45.4121 38.8574 46.1201 38.9697 46.7549 39.1943C47.3994 39.4091 47.9512 39.7607 48.4102 40.249C48.8789 40.7275 49.2402 41.3574 49.4941 42.1386C49.748 42.9199 49.875 43.8672 49.875 44.9804V55H45.627V44.9511C45.627 44.248 45.5244 43.6963 45.3193 43.2959C45.124 42.8857 44.8359 42.5976 44.4551 42.4316C44.084 42.2558 43.625 42.1679 43.0781 42.1679C42.4727 42.1679 41.9551 42.2802 41.5254 42.5049C41.1055 42.7295 40.7686 43.042 40.5146 43.4424C40.2607 43.833 40.0752 44.292 39.958 44.8193C39.8408 45.3466 39.7822 45.9131 39.7822 46.5185ZM60.3779 55.2929C59.1475 55.2929 58.0439 55.0976 57.0674 54.707C56.0908 54.3066 55.2607 53.7549 54.5771 53.0517C53.9033 52.3486 53.3857 51.5332 53.0244 50.6054C52.6631 49.6679 52.4824 48.6718 52.4824 47.6172V47.0312C52.4824 45.83 52.6533 44.7314 52.9951 43.7353C53.3369 42.7392 53.8252 41.875 54.46 41.1425C55.1045 40.4101 55.8857 39.8486 56.8037 39.458C57.7217 39.0576 58.7568 38.8574 59.9092 38.8574C61.0322 38.8574 62.0283 39.0429 62.8975 39.414C63.7666 39.7851 64.4941 40.3125 65.0801 40.9961C65.6758 41.6797 66.125 42.5 66.4277 43.457C66.7305 44.4043 66.8818 45.459 66.8818 46.6211V48.3789H54.2842V45.5664H62.7363V45.2441C62.7363 44.6582 62.6289 44.1357 62.4141 43.6767C62.209 43.208 61.8965 42.8369 61.4766 42.5634C61.0566 42.29 60.5195 42.1533 59.8652 42.1533C59.3086 42.1533 58.8301 42.2754 58.4297 42.5195C58.0293 42.7636 57.7021 43.1054 57.4482 43.5449C57.2041 43.9843 57.0186 44.5019 56.8916 45.0976C56.7744 45.6836 56.7158 46.3281 56.7158 47.0312V47.6172C56.7158 48.2519 56.8037 48.8379 56.9795 49.375C57.165 49.9121 57.4238 50.3759 57.7559 50.7666C58.0977 51.1572 58.5078 51.4599 58.9863 51.6748C59.4746 51.8896 60.0264 51.997 60.6416 51.997C61.4033 51.997 62.1113 51.8506 62.7656 51.5576C63.4297 51.2549 64.001 50.8008 64.4795 50.1953L66.5303 52.4218C66.1982 52.9004 65.7441 53.3593 65.168 53.7988C64.6016 54.2383 63.918 54.5996 63.1172 54.8828C62.3164 55.1562 61.4033 55.2929 60.3779 55.2929ZM78.6445 51.5429V32.5H82.8926V55H79.0693L78.6445 51.5429ZM68.625 47.2656V46.958C68.625 45.747 68.7617 44.6484 69.0352 43.6621C69.3086 42.666 69.709 41.8115 70.2363 41.0986C70.7637 40.3857 71.4131 39.834 72.1846 39.4433C72.9561 39.0527 73.835 38.8574 74.8213 38.8574C75.749 38.8574 76.5596 39.0527 77.2529 39.4433C77.9561 39.834 78.5518 40.3906 79.04 41.1133C79.5381 41.8261 79.9385 42.6709 80.2412 43.6474C80.5439 44.6142 80.7637 45.6738 80.9004 46.8261V47.5C80.7637 48.6035 80.5439 49.6289 80.2412 50.5761C79.9385 51.5234 79.5381 52.3535 79.04 53.0664C78.5518 53.7695 77.9561 54.3164 77.2529 54.707C76.5498 55.0976 75.7295 55.2929 74.792 55.2929C73.8057 55.2929 72.9268 55.0927 72.1553 54.6924C71.3936 54.292 70.749 53.7304 70.2217 53.0078C69.7041 52.2851 69.3086 51.4355 69.0352 50.459C68.7617 49.4824 68.625 48.4179 68.625 47.2656ZM72.8438 46.958V47.2656C72.8438 47.9199 72.8926 48.5302 72.9902 49.0966C73.0977 49.6631 73.2686 50.166 73.5029 50.6054C73.7471 51.0351 74.0596 51.372 74.4404 51.6162C74.8311 51.8506 75.3047 51.9677 75.8613 51.9677C76.584 51.9677 77.1797 51.8066 77.6484 51.4843C78.1172 51.1523 78.4736 50.6982 78.7178 50.122C78.9717 49.5459 79.1182 48.8818 79.1572 48.1299V46.2109C79.1279 45.5957 79.04 45.0439 78.8936 44.5556C78.7568 44.0576 78.5518 43.6328 78.2783 43.2812C78.0146 42.9297 77.6826 42.6562 77.2822 42.4609C76.8916 42.2656 76.4277 42.1679 75.8906 42.1679C75.3438 42.1679 74.875 42.2949 74.4844 42.5488C74.0938 42.7929 73.7764 43.1299 73.5322 43.5595C73.2979 43.9892 73.1221 44.497 73.0049 45.083C72.8975 45.6591 72.8438 46.2841 72.8438 46.958ZM95.5635 51.206V39.1504H99.7822V55H95.8125L95.5635 51.206ZM96.0322 47.9541L97.2773 47.9248C97.2773 48.9795 97.1553 49.9609 96.9111 50.8691C96.667 51.7675 96.3008 52.5488 95.8125 53.2129C95.3242 53.8672 94.709 54.3799 93.9668 54.7509C93.2246 55.1123 92.3506 55.2929 91.3447 55.2929C90.5732 55.2929 89.8604 55.1855 89.2061 54.9707C88.5615 54.7461 88.0049 54.3994 87.5361 53.9306C87.0771 53.4521 86.7158 52.8418 86.4521 52.0996C86.1982 51.3476 86.0713 50.4443 86.0713 49.3896V39.1504H90.29V49.4189C90.29 49.8877 90.3438 50.2832 90.4512 50.6054C90.5684 50.9277 90.7295 51.1914 90.9346 51.3965C91.1396 51.6015 91.3789 51.748 91.6523 51.8359C91.9355 51.9238 92.248 51.9677 92.5898 51.9677C93.459 51.9677 94.1426 51.792 94.6406 51.4404C95.1484 51.0888 95.5049 50.6103 95.71 50.0049C95.9248 49.3896 96.0322 48.706 96.0322 47.9541ZM107.458 32.5V55H103.225V32.5H107.458ZM118.239 55.2929C117.009 55.2929 115.905 55.0976 114.929 54.707C113.952 54.3066 113.122 53.7549 112.438 53.0517C111.765 52.3486 111.247 51.5332 110.886 50.6054C110.524 49.6679 110.344 48.6718 110.344 47.6172V47.0312C110.344 45.83 110.515 44.7314 110.856 43.7353C111.198 42.7392 111.687 41.875 112.321 41.1425C112.966 40.4101 113.747 39.8486 114.665 39.458C115.583 39.0576 116.618 38.8574 117.771 38.8574C118.894 38.8574 119.89 39.0429 120.759 39.414C121.628 39.7851 122.355 40.3125 122.941 40.9961C123.537 41.6797 123.986 42.5 124.289 43.457C124.592 44.4043 124.743 45.459 124.743 46.6211V48.3789H112.146V45.5664H120.598V45.2441C120.598 44.6582 120.49 44.1357 120.275 43.6767C120.07 43.208 119.758 42.8369 119.338 42.5634C118.918 42.29 118.381 42.1533 117.727 42.1533C117.17 42.1533 116.691 42.2754 116.291 42.5195C115.891 42.7636 115.563 43.1054 115.31 43.5449C115.065 43.9843 114.88 44.5019 114.753 45.0976C114.636 45.6836 114.577 46.3281 114.577 47.0312V47.6172C114.577 48.2519 114.665 48.8379 114.841 49.375C115.026 49.9121 115.285 50.3759 115.617 50.7666C115.959 51.1572 116.369 51.4599 116.848 51.6748C117.336 51.8896 117.888 51.997 118.503 51.997C119.265 51.997 119.973 51.8506 120.627 51.5576C121.291 51.2549 121.862 50.8008 122.341 50.1953L124.392 52.4218C124.06 52.9004 123.605 53.3593 123.029 53.7988C122.463 54.2383 121.779 54.5996 120.979 54.8828C120.178 55.1562 119.265 55.2929 118.239 55.2929Z" fill="url(#paint0_linear_122_251)"/>
<defs>
<linearGradient id="paint0_linear_122_251" x1="63" y1="26" x2="63" y2="64" gradientUnits="userSpaceOnUse">
<stop stop-color="#FBEDA7"/>
<stop offset="1" stop-color="#D9D9D9" stop-opacity="0.8"/>
</linearGradient>
</defs>
</svg>
