<svg width="1361" height="1502" viewBox="0 0 1361 1502" fill="none" xmlns="http://www.w3.org/2000/svg">
<g opacity="0.2" filter="url(#filter0_f_175_190)">
<ellipse cx="690.5" cy="751" rx="670.5" ry="350" fill="#299F62"/>
</g>
<path d="M219.035 785C220.53 785 221.662 785.63 222.431 786.891C223.213 788.138 223.605 789.953 223.605 792.336C223.605 794.719 223.213 796.541 222.431 797.802C221.662 799.063 220.53 799.693 219.035 799.693C217.554 799.693 216.422 799.063 215.639 797.802C214.856 796.541 214.465 794.719 214.465 792.336C214.465 789.967 214.856 788.152 215.639 786.891C216.422 785.63 217.554 785 219.035 785ZM215.953 792.336C215.953 794.026 216.107 795.35 216.415 796.306L221.068 787.099C220.579 786.448 219.901 786.122 219.035 786.122C218.071 786.122 217.316 786.635 216.771 787.66C216.226 788.672 215.953 790.23 215.953 792.336ZM219.035 798.55C220.013 798.55 220.775 798.044 221.32 797.033C221.865 796.008 222.137 794.442 222.137 792.336C222.137 790.549 221.963 789.163 221.613 788.18L216.96 797.469C217.463 798.19 218.154 798.55 219.035 798.55Z" fill="url(#paint0_linear_175_190)" fill-opacity="0.6"/>
<path d="M220.293 822.135H223.374V823.236H215.387V822.135H218.951V810.455L215.555 812.471L214.968 811.536L219.161 808.959H220.293V822.135Z" fill="url(#paint1_linear_175_190)" fill-opacity="0.6"/>
<path d="M219.035 832.502C220.53 832.502 221.662 833.133 222.431 834.393C223.213 835.64 223.605 837.455 223.605 839.838C223.605 842.221 223.213 844.043 222.431 845.304C221.662 846.565 220.53 847.195 219.035 847.195C217.554 847.195 216.422 846.565 215.639 845.304C214.856 844.043 214.465 842.221 214.465 839.838C214.465 837.469 214.856 835.654 215.639 834.393C216.422 833.133 217.554 832.502 219.035 832.502ZM215.953 839.838C215.953 841.529 216.107 842.852 216.415 843.808L221.068 834.601C220.579 833.95 219.901 833.624 219.035 833.624C218.071 833.624 217.316 834.137 216.771 835.162C216.226 836.174 215.953 837.732 215.953 839.838ZM219.035 846.052C220.013 846.052 220.775 845.546 221.32 844.535C221.865 843.51 222.137 841.944 222.137 839.838C222.137 838.051 221.963 836.665 221.613 835.682L216.96 844.971C217.463 845.692 218.154 846.052 219.035 846.052Z" fill="url(#paint2_linear_175_190)" fill-opacity="0.6"/>
<path d="M220.293 869.637H223.374V870.738H215.387V869.637H218.951V857.957L215.555 859.973L214.968 859.038L219.161 856.461H220.293V869.637Z" fill="url(#paint3_linear_175_190)" fill-opacity="0.6"/>
<path d="M220.293 893.388H223.374V894.489H215.387V893.388H218.951V881.708L215.555 883.724L214.968 882.789L219.161 880.212H220.293V893.388Z" fill="url(#paint4_linear_175_190)" fill-opacity="0.6"/>
<path d="M219.035 903.755C220.53 903.755 221.662 904.386 222.431 905.646C223.213 906.893 223.605 908.708 223.605 911.091C223.605 913.474 223.213 915.296 222.431 916.557C221.662 917.818 220.53 918.448 219.035 918.448C217.554 918.448 216.422 917.818 215.639 916.557C214.856 915.296 214.465 913.474 214.465 911.091C214.465 908.722 214.856 906.907 215.639 905.646C216.422 904.386 217.554 903.755 219.035 903.755ZM215.953 911.091C215.953 912.782 216.107 914.105 216.415 915.061L221.068 905.854C220.579 905.203 219.901 904.878 219.035 904.878C218.071 904.878 217.316 905.39 216.771 906.415C216.226 907.427 215.953 908.985 215.953 911.091ZM219.035 917.305C220.013 917.305 220.775 916.8 221.32 915.788C221.865 914.763 222.137 913.197 222.137 911.091C222.137 909.304 221.963 907.919 221.613 906.935L216.96 916.225C217.463 916.945 218.154 917.305 219.035 917.305Z" fill="url(#paint5_linear_175_190)" fill-opacity="0.6"/>
<path d="M220.293 940.89H223.374V941.992H215.387V940.89H218.951V929.21L215.555 931.226L214.968 930.291L219.161 927.714H220.293V940.89Z" fill="url(#paint6_linear_175_190)" fill-opacity="0.6"/>
<path d="M219.035 951.257C220.53 951.257 221.662 951.888 222.431 953.149C223.213 954.396 223.605 956.21 223.605 958.594C223.605 960.977 223.213 962.798 222.431 964.059C221.662 965.32 220.53 965.95 219.035 965.95C217.554 965.95 216.422 965.32 215.639 964.059C214.856 962.798 214.465 960.977 214.465 958.594C214.465 956.224 214.856 954.409 215.639 953.149C216.422 951.888 217.554 951.257 219.035 951.257ZM215.953 958.594C215.953 960.284 216.107 961.607 216.415 962.563L221.068 953.356C220.579 952.705 219.901 952.38 219.035 952.38C218.071 952.38 217.316 952.892 216.771 953.918C216.226 954.929 215.953 956.488 215.953 958.594ZM219.035 964.807C220.013 964.807 220.775 964.302 221.32 963.29C221.865 962.265 222.137 960.699 222.137 958.594C222.137 956.806 221.963 955.421 221.613 954.437L216.96 963.727C217.463 964.447 218.154 964.807 219.035 964.807Z" fill="url(#paint7_linear_175_190)" fill-opacity="0.6"/>
<path d="M219.035 975.008C220.53 975.008 221.662 975.639 222.431 976.9C223.213 978.147 223.605 979.962 223.605 982.345C223.605 984.728 223.213 986.549 222.431 987.81C221.662 989.071 220.53 989.701 219.035 989.701C217.554 989.701 216.422 989.071 215.639 987.81C214.856 986.549 214.465 984.728 214.465 982.345C214.465 979.975 214.856 978.16 215.639 976.9C216.422 975.639 217.554 975.008 219.035 975.008ZM215.953 982.345C215.953 984.035 216.107 985.358 216.415 986.314L221.068 977.107C220.579 976.456 219.901 976.131 219.035 976.131C218.071 976.131 217.316 976.643 216.771 977.669C216.226 978.68 215.953 980.239 215.953 982.345ZM219.035 988.558C220.013 988.558 220.775 988.053 221.32 987.041C221.865 986.016 222.137 984.451 222.137 982.345C222.137 980.557 221.963 979.172 221.613 978.188L216.96 987.478C217.463 988.198 218.154 988.558 219.035 988.558Z" fill="url(#paint8_linear_175_190)" fill-opacity="0.6"/>
<path d="M220.293 1012.14H223.374V1013.24H215.387V1012.14H218.951V1000.46L215.555 1002.48L214.968 1001.54L219.161 998.967H220.293V1012.14Z" fill="url(#paint9_linear_175_190)" fill-opacity="0.6"/>
<path d="M219.035 1022.51C220.53 1022.51 221.662 1023.14 222.431 1024.4C223.213 1025.65 223.605 1027.46 223.605 1029.85C223.605 1032.23 223.213 1034.05 222.431 1035.31C221.662 1036.57 220.53 1037.2 219.035 1037.2C217.554 1037.2 216.422 1036.57 215.639 1035.31C214.856 1034.05 214.465 1032.23 214.465 1029.85C214.465 1027.48 214.856 1025.66 215.639 1024.4C216.422 1023.14 217.554 1022.51 219.035 1022.51ZM215.953 1029.85C215.953 1031.54 216.107 1032.86 216.415 1033.82L221.068 1024.61C220.579 1023.96 219.901 1023.63 219.035 1023.63C218.071 1023.63 217.316 1024.15 216.771 1025.17C216.226 1026.18 215.953 1027.74 215.953 1029.85ZM219.035 1036.06C220.013 1036.06 220.775 1035.55 221.32 1034.54C221.865 1033.52 222.137 1031.95 222.137 1029.85C222.137 1028.06 221.963 1026.67 221.613 1025.69L216.96 1034.98C217.463 1035.7 218.154 1036.06 219.035 1036.06Z" fill="url(#paint10_linear_175_190)" fill-opacity="0.6"/>
<path d="M220.293 1059.65H223.374V1060.75H215.387V1059.65H218.951V1047.97L215.555 1049.98L214.968 1049.05L219.161 1046.47H220.293V1059.65Z" fill="url(#paint11_linear_175_190)" fill-opacity="0.6"/>
<path d="M220.293 1083.4H223.374V1084.5H215.387V1083.4H218.951V1071.72L215.555 1073.73L214.968 1072.8L219.161 1070.22H220.293V1083.4Z" fill="url(#paint12_linear_175_190)" fill-opacity="0.6"/>
<path d="M257.965 832.502C259.46 832.502 260.592 833.133 261.361 834.393C262.144 835.64 262.535 837.455 262.535 839.838C262.535 842.221 262.144 844.043 261.361 845.304C260.592 846.565 259.46 847.195 257.965 847.195C256.484 847.195 255.352 846.565 254.569 845.304C253.787 844.043 253.395 842.221 253.395 839.838C253.395 837.469 253.787 835.654 254.569 834.393C255.352 833.133 256.484 832.502 257.965 832.502ZM254.884 839.838C254.884 841.529 255.037 842.852 255.345 843.808L259.998 834.601C259.509 833.95 258.832 833.624 257.965 833.624C257.001 833.624 256.246 834.137 255.701 835.162C255.156 836.174 254.884 837.732 254.884 839.838ZM257.965 846.052C258.943 846.052 259.705 845.546 260.25 844.535C260.795 843.51 261.068 841.944 261.068 839.838C261.068 838.051 260.893 836.665 260.543 835.682L255.89 844.971C256.393 845.692 257.085 846.052 257.965 846.052Z" fill="url(#paint13_linear_175_190)" fill-opacity="0.6"/>
<path d="M259.223 869.637H262.304V870.738H254.318V869.637H257.881V857.957L254.485 859.973L253.898 859.038L258.091 856.461H259.223V869.637Z" fill="url(#paint14_linear_175_190)" fill-opacity="0.6"/>
<path d="M257.965 880.004C259.46 880.004 260.592 880.635 261.361 881.895C262.144 883.142 262.535 884.957 262.535 887.34C262.535 889.723 262.144 891.545 261.361 892.806C260.592 894.067 259.46 894.697 257.965 894.697C256.484 894.697 255.352 894.067 254.569 892.806C253.787 891.545 253.395 889.723 253.395 887.34C253.395 884.971 253.787 883.156 254.569 881.895C255.352 880.635 256.484 880.004 257.965 880.004ZM254.884 887.34C254.884 889.031 255.037 890.354 255.345 891.31L259.998 882.103C259.509 881.452 258.832 881.126 257.965 881.126C257.001 881.126 256.246 881.639 255.701 882.664C255.156 883.676 254.884 885.234 254.884 887.34ZM257.965 893.554C258.943 893.554 259.705 893.049 260.25 892.037C260.795 891.012 261.068 889.446 261.068 887.34C261.068 885.553 260.893 884.168 260.543 883.184L255.89 892.474C256.393 893.194 257.085 893.554 257.965 893.554Z" fill="url(#paint15_linear_175_190)" fill-opacity="0.6"/>
<path d="M257.965 903.755C259.46 903.755 260.592 904.386 261.361 905.646C262.144 906.893 262.535 908.708 262.535 911.091C262.535 913.474 262.144 915.296 261.361 916.557C260.592 917.818 259.46 918.448 257.965 918.448C256.484 918.448 255.352 917.818 254.569 916.557C253.787 915.296 253.395 913.474 253.395 911.091C253.395 908.722 253.787 906.907 254.569 905.646C255.352 904.386 256.484 903.755 257.965 903.755ZM254.884 911.091C254.884 912.782 255.037 914.105 255.345 915.061L259.998 905.854C259.509 905.203 258.832 904.878 257.965 904.878C257.001 904.878 256.246 905.39 255.701 906.415C255.156 907.427 254.884 908.985 254.884 911.091ZM257.965 917.305C258.943 917.305 259.705 916.8 260.25 915.788C260.795 914.763 261.068 913.197 261.068 911.091C261.068 909.304 260.893 907.919 260.543 906.935L255.89 916.225C256.393 916.945 257.085 917.305 257.965 917.305Z" fill="url(#paint16_linear_175_190)" fill-opacity="0.6"/>
<path d="M259.223 940.89H262.304V941.992H254.318V940.89H257.881V929.21L254.485 931.226L253.898 930.291L258.091 927.714H259.223V940.89Z" fill="url(#paint17_linear_175_190)" fill-opacity="0.6"/>
<path d="M257.965 951.257C259.46 951.257 260.592 951.888 261.361 953.149C262.144 954.396 262.535 956.21 262.535 958.594C262.535 960.977 262.144 962.798 261.361 964.059C260.592 965.32 259.46 965.95 257.965 965.95C256.484 965.95 255.352 965.32 254.569 964.059C253.787 962.798 253.395 960.977 253.395 958.594C253.395 956.224 253.787 954.409 254.569 953.149C255.352 951.888 256.484 951.257 257.965 951.257ZM254.884 958.594C254.884 960.284 255.037 961.607 255.345 962.563L259.998 953.356C259.509 952.705 258.832 952.38 257.965 952.38C257.001 952.38 256.246 952.892 255.701 953.918C255.156 954.929 254.884 956.488 254.884 958.594ZM257.965 964.807C258.943 964.807 259.705 964.302 260.25 963.29C260.795 962.265 261.068 960.699 261.068 958.594C261.068 956.806 260.893 955.421 260.543 954.437L255.89 963.727C256.393 964.447 257.085 964.807 257.965 964.807Z" fill="url(#paint18_linear_175_190)" fill-opacity="0.6"/>
<path d="M259.223 988.392H262.304V989.494H254.318V988.392H257.881V976.713L254.485 978.728L253.898 977.793L258.091 975.216H259.223V988.392Z" fill="url(#paint19_linear_175_190)" fill-opacity="0.6"/>
<path d="M257.965 998.76C259.46 998.76 260.592 999.39 261.361 1000.65C262.144 1001.9 262.535 1003.71 262.535 1006.1C262.535 1008.48 262.144 1010.3 261.361 1011.56C260.592 1012.82 259.46 1013.45 257.965 1013.45C256.484 1013.45 255.352 1012.82 254.569 1011.56C253.787 1010.3 253.395 1008.48 253.395 1006.1C253.395 1003.73 253.787 1001.91 254.569 1000.65C255.352 999.39 256.484 998.76 257.965 998.76ZM254.884 1006.1C254.884 1007.79 255.037 1009.11 255.345 1010.07L259.998 1000.86C259.509 1000.21 258.832 999.882 257.965 999.882C257.001 999.882 256.246 1000.39 255.701 1001.42C255.156 1002.43 254.884 1003.99 254.884 1006.1ZM257.965 1012.31C258.943 1012.31 259.705 1011.8 260.25 1010.79C260.795 1009.77 261.068 1008.2 261.068 1006.1C261.068 1004.31 260.893 1002.92 260.543 1001.94L255.89 1011.23C256.393 1011.95 257.085 1012.31 257.965 1012.31Z" fill="url(#paint20_linear_175_190)" fill-opacity="0.6"/>
<path d="M257.965 1022.51C259.46 1022.51 260.592 1023.14 261.361 1024.4C262.144 1025.65 262.535 1027.46 262.535 1029.85C262.535 1032.23 262.144 1034.05 261.361 1035.31C260.592 1036.57 259.46 1037.2 257.965 1037.2C256.484 1037.2 255.352 1036.57 254.569 1035.31C253.787 1034.05 253.395 1032.23 253.395 1029.85C253.395 1027.48 253.787 1025.66 254.569 1024.4C255.352 1023.14 256.484 1022.51 257.965 1022.51ZM254.884 1029.85C254.884 1031.54 255.037 1032.86 255.345 1033.82L259.998 1024.61C259.509 1023.96 258.832 1023.63 257.965 1023.63C257.001 1023.63 256.246 1024.15 255.701 1025.17C255.156 1026.18 254.884 1027.74 254.884 1029.85ZM257.965 1036.06C258.943 1036.06 259.705 1035.55 260.25 1034.54C260.795 1033.52 261.068 1031.95 261.068 1029.85C261.068 1028.06 260.893 1026.67 260.543 1025.69L255.89 1034.98C256.393 1035.7 257.085 1036.06 257.965 1036.06Z" fill="url(#paint21_linear_175_190)" fill-opacity="0.6"/>
<path d="M259.223 1059.65H262.304V1060.75H254.318V1059.65H257.881V1047.97L254.485 1049.98L253.898 1049.05L258.091 1046.47H259.223V1059.65Z" fill="url(#paint22_linear_175_190)" fill-opacity="0.6"/>
<path d="M257.965 1070.01C259.46 1070.01 260.592 1070.64 261.361 1071.9C262.144 1073.15 262.535 1074.97 262.535 1077.35C262.535 1079.73 262.144 1081.55 261.361 1082.81C260.592 1084.08 259.46 1084.71 257.965 1084.71C256.484 1084.71 255.352 1084.08 254.569 1082.81C253.787 1081.55 253.395 1079.73 253.395 1077.35C253.395 1074.98 253.787 1073.16 254.569 1071.9C255.352 1070.64 256.484 1070.01 257.965 1070.01ZM254.884 1077.35C254.884 1079.04 255.037 1080.36 255.345 1081.32L259.998 1072.11C259.509 1071.46 258.832 1071.13 257.965 1071.13C257.001 1071.13 256.246 1071.65 255.701 1072.67C255.156 1073.68 254.884 1075.24 254.884 1077.35ZM257.965 1083.56C258.943 1083.56 259.705 1083.06 260.25 1082.05C260.795 1081.02 261.068 1079.45 261.068 1077.35C261.068 1075.56 260.893 1074.18 260.543 1073.19L255.89 1082.48C256.393 1083.2 257.085 1083.56 257.965 1083.56Z" fill="url(#paint23_linear_175_190)" fill-opacity="0.6"/>
<path d="M259.223 1107.15H262.304V1108.25H254.318V1107.15H257.881V1095.47L254.485 1097.48L253.898 1096.55L258.091 1093.97H259.223V1107.15Z" fill="url(#paint24_linear_175_190)" fill-opacity="0.6"/>
<path d="M259.223 1130.9H262.304V1132H254.318V1130.9H257.881V1119.22L254.485 1121.23L253.898 1120.3L258.091 1117.72H259.223V1130.9Z" fill="url(#paint25_linear_175_190)" fill-opacity="0.6"/>
<path d="M199.57 856.253C201.065 856.253 202.197 856.884 202.966 858.144C203.748 859.391 204.14 861.206 204.14 863.589C204.14 865.972 203.748 867.794 202.966 869.055C202.197 870.316 201.065 870.946 199.57 870.946C198.088 870.946 196.956 870.316 196.174 869.055C195.391 867.794 195 865.972 195 863.589C195 861.22 195.391 859.405 196.174 858.144C196.956 856.884 198.088 856.253 199.57 856.253ZM196.488 863.589C196.488 865.28 196.642 866.603 196.95 867.559L201.603 858.352C201.114 857.701 200.436 857.375 199.57 857.375C198.606 857.375 197.851 857.888 197.306 858.913C196.761 859.925 196.488 861.483 196.488 863.589ZM199.57 869.803C200.548 869.803 201.31 869.297 201.855 868.286C202.4 867.261 202.672 865.695 202.672 863.589C202.672 861.802 202.498 860.417 202.148 859.433L197.495 868.722C197.998 869.443 198.689 869.803 199.57 869.803Z" fill="url(#paint26_linear_175_190)" fill-opacity="0.6"/>
<path d="M199.57 880.004C201.065 880.004 202.197 880.635 202.966 881.895C203.748 883.142 204.14 884.957 204.14 887.34C204.14 889.723 203.748 891.545 202.966 892.806C202.197 894.067 201.065 894.697 199.57 894.697C198.088 894.697 196.956 894.067 196.174 892.806C195.391 891.545 195 889.723 195 887.34C195 884.971 195.391 883.156 196.174 881.895C196.956 880.635 198.088 880.004 199.57 880.004ZM196.488 887.34C196.488 889.031 196.642 890.354 196.95 891.31L201.603 882.103C201.114 881.452 200.436 881.126 199.57 881.126C198.606 881.126 197.851 881.639 197.306 882.664C196.761 883.676 196.488 885.234 196.488 887.34ZM199.57 893.554C200.548 893.554 201.31 893.049 201.855 892.037C202.4 891.012 202.672 889.446 202.672 887.34C202.672 885.553 202.498 884.168 202.148 883.184L197.495 892.474C197.998 893.194 198.689 893.554 199.57 893.554Z" fill="url(#paint27_linear_175_190)" fill-opacity="0.6"/>
<path d="M200.828 917.139H203.909V918.24H195.922V917.139H199.486V905.459L196.09 907.475L195.503 906.54L199.696 903.963H200.828V917.139Z" fill="url(#paint28_linear_175_190)" fill-opacity="0.6"/>
<path d="M199.57 927.506C201.065 927.506 202.197 928.137 202.966 929.398C203.748 930.644 204.14 932.459 204.14 934.842C204.14 937.225 203.748 939.047 202.966 940.308C202.197 941.569 201.065 942.199 199.57 942.199C198.088 942.199 196.956 941.569 196.174 940.308C195.391 939.047 195 937.225 195 934.842C195 932.473 195.391 930.658 196.174 929.398C196.956 928.137 198.088 927.506 199.57 927.506ZM196.488 934.842C196.488 936.533 196.642 937.856 196.95 938.812L201.603 929.605C201.114 928.954 200.436 928.629 199.57 928.629C198.606 928.629 197.851 929.141 197.306 930.166C196.761 931.178 196.488 932.737 196.488 934.842ZM199.57 941.056C200.548 941.056 201.31 940.551 201.855 939.539C202.4 938.514 202.672 936.948 202.672 934.842C202.672 933.055 202.498 931.67 202.148 930.686L197.495 939.976C197.998 940.696 198.689 941.056 199.57 941.056Z" fill="url(#paint29_linear_175_190)" fill-opacity="0.6"/>
<path d="M200.828 964.641H203.909V965.743H195.922V964.641H199.486V952.962L196.09 954.977L195.503 954.042L199.696 951.465H200.828V964.641Z" fill="url(#paint30_linear_175_190)" fill-opacity="0.6"/>
<path d="M200.828 988.392H203.909V989.494H195.922V988.392H199.486V976.713L196.09 978.728L195.503 977.793L199.696 975.216H200.828V988.392Z" fill="url(#paint31_linear_175_190)" fill-opacity="0.6"/>
<path d="M239.758 822.135H242.839V823.236H234.853V822.135H238.416V810.455L235.02 812.471L234.433 811.536L238.626 808.959H239.758V822.135Z" fill="url(#paint32_linear_175_190)" fill-opacity="0.6"/>
<path d="M238.5 832.502C239.995 832.502 241.127 833.133 241.896 834.393C242.679 835.64 243.07 837.455 243.07 839.838C243.07 842.221 242.679 844.043 241.896 845.304C241.127 846.565 239.995 847.195 238.5 847.195C237.019 847.195 235.887 846.565 235.104 845.304C234.321 844.043 233.93 842.221 233.93 839.838C233.93 837.469 234.321 835.654 235.104 834.393C235.887 833.133 237.019 832.502 238.5 832.502ZM235.419 839.838C235.419 841.529 235.572 842.852 235.88 843.808L240.533 834.601C240.044 833.95 239.366 833.624 238.5 833.624C237.536 833.624 236.781 834.137 236.236 835.162C235.691 836.174 235.419 837.732 235.419 839.838ZM238.5 846.052C239.478 846.052 240.24 845.546 240.785 844.535C241.33 843.51 241.602 841.944 241.602 839.838C241.602 838.051 241.428 836.665 241.078 835.682L236.425 844.971C236.928 845.692 237.62 846.052 238.5 846.052Z" fill="url(#paint33_linear_175_190)" fill-opacity="0.6"/>
<path d="M239.758 869.637H242.839V870.738H234.853V869.637H238.416V857.957L235.02 859.973L234.433 859.038L238.626 856.461H239.758V869.637Z" fill="url(#paint34_linear_175_190)" fill-opacity="0.6"/>
<path d="M239.758 893.388H242.839V894.489H234.853V893.388H238.416V881.708L235.02 883.724L234.433 882.789L238.626 880.212H239.758V893.388Z" fill="url(#paint35_linear_175_190)" fill-opacity="0.6"/>
<path d="M238.5 903.755C239.995 903.755 241.127 904.386 241.896 905.646C242.679 906.893 243.07 908.708 243.07 911.091C243.07 913.474 242.679 915.296 241.896 916.557C241.127 917.818 239.995 918.448 238.5 918.448C237.019 918.448 235.887 917.818 235.104 916.557C234.321 915.296 233.93 913.474 233.93 911.091C233.93 908.722 234.321 906.907 235.104 905.646C235.887 904.386 237.019 903.755 238.5 903.755ZM235.419 911.091C235.419 912.782 235.572 914.105 235.88 915.061L240.533 905.854C240.044 905.203 239.366 904.878 238.5 904.878C237.536 904.878 236.781 905.39 236.236 906.415C235.691 907.427 235.419 908.985 235.419 911.091ZM238.5 917.305C239.478 917.305 240.24 916.8 240.785 915.788C241.33 914.763 241.602 913.197 241.602 911.091C241.602 909.304 241.428 907.919 241.078 906.935L236.425 916.225C236.928 916.945 237.62 917.305 238.5 917.305Z" fill="url(#paint36_linear_175_190)" fill-opacity="0.6"/>
<path d="M239.758 940.89H242.839V941.992H234.853V940.89H238.416V929.21L235.02 931.226L234.433 930.291L238.626 927.714H239.758V940.89Z" fill="url(#paint37_linear_175_190)" fill-opacity="0.6"/>
<path d="M239.758 964.641H242.839V965.743H234.853V964.641H238.416V952.962L235.02 954.977L234.433 954.042L238.626 951.465H239.758V964.641Z" fill="url(#paint38_linear_175_190)" fill-opacity="0.6"/>
<path d="M238.5 975.008C239.995 975.008 241.127 975.639 241.896 976.9C242.679 978.147 243.07 979.962 243.07 982.345C243.07 984.728 242.679 986.549 241.896 987.81C241.127 989.071 239.995 989.701 238.5 989.701C237.019 989.701 235.887 989.071 235.104 987.81C234.321 986.549 233.93 984.728 233.93 982.345C233.93 979.975 234.321 978.16 235.104 976.9C235.887 975.639 237.019 975.008 238.5 975.008ZM235.419 982.345C235.419 984.035 235.572 985.358 235.88 986.314L240.533 977.107C240.044 976.456 239.366 976.131 238.5 976.131C237.536 976.131 236.781 976.643 236.236 977.669C235.691 978.68 235.419 980.239 235.419 982.345ZM238.5 988.558C239.478 988.558 240.24 988.053 240.785 987.041C241.33 986.016 241.602 984.451 241.602 982.345C241.602 980.557 241.428 979.172 241.078 978.188L236.425 987.478C236.928 988.198 237.62 988.558 238.5 988.558Z" fill="url(#paint39_linear_175_190)" fill-opacity="0.6"/>
<path d="M239.758 1012.14H242.839V1013.24H234.853V1012.14H238.416V1000.46L235.02 1002.48L234.433 1001.54L238.626 998.967H239.758V1012.14Z" fill="url(#paint40_linear_175_190)" fill-opacity="0.6"/>
<path d="M238.5 1022.51C239.995 1022.51 241.127 1023.14 241.896 1024.4C242.679 1025.65 243.07 1027.46 243.07 1029.85C243.07 1032.23 242.679 1034.05 241.896 1035.31C241.127 1036.57 239.995 1037.2 238.5 1037.2C237.019 1037.2 235.887 1036.57 235.104 1035.31C234.321 1034.05 233.93 1032.23 233.93 1029.85C233.93 1027.48 234.321 1025.66 235.104 1024.4C235.887 1023.14 237.019 1022.51 238.5 1022.51ZM235.419 1029.85C235.419 1031.54 235.572 1032.86 235.88 1033.82L240.533 1024.61C240.044 1023.96 239.366 1023.63 238.5 1023.63C237.536 1023.63 236.781 1024.15 236.236 1025.17C235.691 1026.18 235.419 1027.74 235.419 1029.85ZM238.5 1036.06C239.478 1036.06 240.24 1035.55 240.785 1034.54C241.33 1033.52 241.602 1031.95 241.602 1029.85C241.602 1028.06 241.428 1026.67 241.078 1025.69L236.425 1034.98C236.928 1035.7 237.62 1036.06 238.5 1036.06Z" fill="url(#paint41_linear_175_190)" fill-opacity="0.6"/>
<path d="M277.43 808.751C278.926 808.751 280.057 809.381 280.826 810.642C281.609 811.889 282 813.704 282 816.087C282 818.47 281.609 820.292 280.826 821.553C280.057 822.814 278.926 823.444 277.43 823.444C275.949 823.444 274.817 822.814 274.034 821.553C273.252 820.292 272.86 818.47 272.86 816.087C272.86 813.718 273.252 811.903 274.034 810.642C274.817 809.381 275.949 808.751 277.43 808.751ZM274.349 816.087C274.349 817.777 274.502 819.101 274.81 820.057L279.464 810.85C278.974 810.199 278.297 809.873 277.43 809.873C276.466 809.873 275.711 810.386 275.166 811.411C274.621 812.423 274.349 813.981 274.349 816.087ZM277.43 822.301C278.408 822.301 279.17 821.795 279.715 820.784C280.26 819.759 280.533 818.193 280.533 816.087C280.533 814.3 280.358 812.914 280.009 811.931L275.355 821.22C275.858 821.941 276.55 822.301 277.43 822.301Z" fill="url(#paint42_linear_175_190)" fill-opacity="0.6"/>
<path d="M278.688 845.886H281.769V846.987H273.783V845.886H277.346V834.206L273.95 836.222L273.363 835.287L277.556 832.71H278.688V845.886Z" fill="url(#paint43_linear_175_190)" fill-opacity="0.6"/>
<path d="M278.688 869.637H281.769V870.738H273.783V869.637H277.346V857.957L273.95 859.973L273.363 859.038L277.556 856.461H278.688V869.637Z" fill="url(#paint44_linear_175_190)" fill-opacity="0.6"/>
<path d="M277.43 880.004C278.926 880.004 280.057 880.635 280.826 881.895C281.609 883.142 282 884.957 282 887.34C282 889.723 281.609 891.545 280.826 892.806C280.057 894.067 278.926 894.697 277.43 894.697C275.949 894.697 274.817 894.067 274.034 892.806C273.252 891.545 272.86 889.723 272.86 887.34C272.86 884.971 273.252 883.156 274.034 881.895C274.817 880.635 275.949 880.004 277.43 880.004ZM274.349 887.34C274.349 889.031 274.502 890.354 274.81 891.31L279.464 882.103C278.974 881.452 278.297 881.126 277.43 881.126C276.466 881.126 275.711 881.639 275.166 882.664C274.621 883.676 274.349 885.234 274.349 887.34ZM277.43 893.554C278.408 893.554 279.17 893.049 279.715 892.037C280.26 891.012 280.533 889.446 280.533 887.34C280.533 885.553 280.358 884.168 280.009 883.184L275.355 892.474C275.858 893.194 276.55 893.554 277.43 893.554Z" fill="url(#paint45_linear_175_190)" fill-opacity="0.6"/>
<path d="M277.43 903.755C278.926 903.755 280.057 904.386 280.826 905.646C281.609 906.893 282 908.708 282 911.091C282 913.474 281.609 915.296 280.826 916.557C280.057 917.818 278.926 918.448 277.43 918.448C275.949 918.448 274.817 917.818 274.034 916.557C273.252 915.296 272.86 913.474 272.86 911.091C272.86 908.722 273.252 906.907 274.034 905.646C274.817 904.386 275.949 903.755 277.43 903.755ZM274.349 911.091C274.349 912.782 274.502 914.105 274.81 915.061L279.464 905.854C278.974 905.203 278.297 904.878 277.43 904.878C276.466 904.878 275.711 905.39 275.166 906.415C274.621 907.427 274.349 908.985 274.349 911.091ZM277.43 917.305C278.408 917.305 279.17 916.8 279.715 915.788C280.26 914.763 280.533 913.197 280.533 911.091C280.533 909.304 280.358 907.919 280.009 906.935L275.355 916.225C275.858 916.945 276.55 917.305 277.43 917.305Z" fill="url(#paint46_linear_175_190)" fill-opacity="0.6"/>
<g opacity="0.6">
<path d="M1084.93 585C1086.36 585 1087.44 585.605 1088.17 586.815C1088.92 588.011 1089.29 589.753 1089.29 592.04C1089.29 594.327 1088.92 596.075 1088.17 597.285C1087.44 598.495 1086.36 599.1 1084.93 599.1C1083.52 599.1 1082.44 598.495 1081.69 597.285C1080.94 596.075 1080.57 594.327 1080.57 592.04C1080.57 589.767 1080.94 588.025 1081.69 586.815C1082.44 585.605 1083.52 585 1084.93 585ZM1081.99 592.04C1081.99 593.662 1082.14 594.932 1082.43 595.849L1086.87 587.014C1086.4 586.389 1085.76 586.077 1084.93 586.077C1084.01 586.077 1083.29 586.569 1082.77 587.553C1082.25 588.523 1081.99 590.019 1081.99 592.04ZM1084.93 598.003C1085.86 598.003 1086.59 597.518 1087.11 596.547C1087.63 595.564 1087.89 594.061 1087.89 592.04C1087.89 590.325 1087.72 588.995 1087.39 588.051L1082.95 596.966C1083.43 597.658 1084.09 598.003 1084.93 598.003Z" fill="url(#paint47_linear_175_190)"/>
<path d="M1086.13 620.637H1089.07V621.694H1081.45V620.637H1084.85V609.428L1081.61 611.363L1081.05 610.465L1085.05 607.992H1086.13V620.637Z" fill="url(#paint48_linear_175_190)"/>
<path d="M1084.93 630.586C1086.36 630.586 1087.44 631.191 1088.17 632.4C1088.92 633.597 1089.29 635.339 1089.29 637.626C1089.29 639.913 1088.92 641.661 1088.17 642.871C1087.44 644.081 1086.36 644.686 1084.93 644.686C1083.52 644.686 1082.44 644.081 1081.69 642.871C1080.94 641.661 1080.57 639.913 1080.57 637.626C1080.57 635.352 1080.94 633.61 1081.69 632.4C1082.44 631.191 1083.52 630.586 1084.93 630.586ZM1081.99 637.626C1081.99 639.248 1082.14 640.518 1082.43 641.435L1086.87 632.6C1086.4 631.975 1085.76 631.663 1084.93 631.663C1084.01 631.663 1083.29 632.155 1082.77 633.138C1082.25 634.109 1081.99 635.605 1081.99 637.626ZM1084.93 643.589C1085.86 643.589 1086.59 643.104 1087.11 642.133C1087.63 641.149 1087.89 639.647 1087.89 637.626C1087.89 635.911 1087.72 634.581 1087.39 633.637L1082.95 642.552C1083.43 643.243 1084.09 643.589 1084.93 643.589Z" fill="url(#paint49_linear_175_190)"/>
<path d="M1086.13 666.222H1089.07V667.279H1081.45V666.222H1084.85V655.014L1081.61 656.948L1081.05 656.051L1085.05 653.578H1086.13V666.222Z" fill="url(#paint50_linear_175_190)"/>
<path d="M1086.13 689.015H1089.07V690.072H1081.45V689.015H1084.85V677.807L1081.61 679.741L1081.05 678.844L1085.05 676.371H1086.13V689.015Z" fill="url(#paint51_linear_175_190)"/>
<path d="M1084.93 698.964C1086.36 698.964 1087.44 699.569 1088.17 700.779C1088.92 701.976 1089.29 703.717 1089.29 706.004C1089.29 708.291 1088.92 710.039 1088.17 711.249C1087.44 712.459 1086.36 713.064 1084.93 713.064C1083.52 713.064 1082.44 712.459 1081.69 711.249C1080.94 710.039 1080.57 708.291 1080.57 706.004C1080.57 703.731 1080.94 701.989 1081.69 700.779C1082.44 699.569 1083.52 698.964 1084.93 698.964ZM1081.99 706.004C1081.99 707.626 1082.14 708.896 1082.43 709.813L1086.87 700.978C1086.4 700.353 1085.76 700.041 1084.93 700.041C1084.01 700.041 1083.29 700.533 1082.77 701.517C1082.25 702.487 1081.99 703.983 1081.99 706.004ZM1084.93 711.967C1085.86 711.967 1086.59 711.482 1087.11 710.511C1087.63 709.528 1087.89 708.025 1087.89 706.004C1087.89 704.289 1087.72 702.959 1087.39 702.015L1082.95 710.93C1083.43 711.622 1084.09 711.967 1084.93 711.967Z" fill="url(#paint52_linear_175_190)"/>
<path d="M1086.13 734.601H1089.07V735.658H1081.45V734.601H1084.85V723.392L1081.61 725.327L1081.05 724.429L1085.05 721.956H1086.13V734.601Z" fill="url(#paint53_linear_175_190)"/>
<path d="M1084.93 744.55C1086.36 744.55 1087.44 745.155 1088.17 746.365C1088.92 747.561 1089.29 749.303 1089.29 751.59C1089.29 753.877 1088.92 755.625 1088.17 756.835C1087.44 758.045 1086.36 758.65 1084.93 758.65C1083.52 758.65 1082.44 758.045 1081.69 756.835C1080.94 755.625 1080.57 753.877 1080.57 751.59C1080.57 749.316 1080.94 747.574 1081.69 746.365C1082.44 745.155 1083.52 744.55 1084.93 744.55ZM1081.99 751.59C1081.99 753.212 1082.14 754.482 1082.43 755.399L1086.87 746.564C1086.4 745.939 1085.76 745.627 1084.93 745.627C1084.01 745.627 1083.29 746.119 1082.77 747.102C1082.25 748.073 1081.99 749.569 1081.99 751.59ZM1084.93 757.553C1085.86 757.553 1086.59 757.068 1087.11 756.097C1087.63 755.113 1087.89 753.611 1087.89 751.59C1087.89 749.875 1087.72 748.545 1087.39 747.601L1082.95 756.516C1083.43 757.207 1084.09 757.553 1084.93 757.553Z" fill="url(#paint54_linear_175_190)"/>
<path d="M1084.93 767.342C1086.36 767.342 1087.44 767.947 1088.17 769.157C1088.92 770.354 1089.29 772.096 1089.29 774.383C1089.29 776.669 1088.92 778.418 1088.17 779.628C1087.44 780.838 1086.36 781.443 1084.93 781.443C1083.52 781.443 1082.44 780.838 1081.69 779.628C1080.94 778.418 1080.57 776.669 1080.57 774.383C1080.57 772.109 1080.94 770.367 1081.69 769.157C1082.44 767.947 1083.52 767.342 1084.93 767.342ZM1081.99 774.383C1081.99 776.005 1082.14 777.274 1082.43 778.192L1086.87 769.357C1086.4 768.732 1085.76 768.419 1084.93 768.419C1084.01 768.419 1083.29 768.911 1082.77 769.895C1082.25 770.866 1081.99 772.362 1081.99 774.383ZM1084.93 780.346C1085.86 780.346 1086.59 779.86 1087.11 778.89C1087.63 777.906 1087.89 776.404 1087.89 774.383C1087.89 772.667 1087.72 771.338 1087.39 770.394L1082.95 779.309C1083.43 780 1084.09 780.346 1084.93 780.346Z" fill="url(#paint55_linear_175_190)"/>
<path d="M1086.13 802.979H1089.07V804.036H1081.45V802.979H1084.85V791.771L1081.61 793.705L1081.05 792.808L1085.05 790.335H1086.13V802.979Z" fill="url(#paint56_linear_175_190)"/>
<path d="M1084.93 812.928C1086.36 812.928 1087.44 813.533 1088.17 814.743C1088.92 815.94 1089.29 817.681 1089.29 819.968C1089.29 822.255 1088.92 824.003 1088.17 825.213C1087.44 826.423 1086.36 827.028 1084.93 827.028C1083.52 827.028 1082.44 826.423 1081.69 825.213C1080.94 824.003 1080.57 822.255 1080.57 819.968C1080.57 817.695 1080.94 815.953 1081.69 814.743C1082.44 813.533 1083.52 812.928 1084.93 812.928ZM1081.99 819.968C1081.99 821.59 1082.14 822.86 1082.43 823.777L1086.87 814.942C1086.4 814.317 1085.76 814.005 1084.93 814.005C1084.01 814.005 1083.29 814.497 1082.77 815.481C1082.25 816.451 1081.99 817.947 1081.99 819.968ZM1084.93 825.931C1085.86 825.931 1086.59 825.446 1087.11 824.475C1087.63 823.492 1087.89 821.989 1087.89 819.968C1087.89 818.253 1087.72 816.923 1087.39 815.979L1082.95 824.894C1083.43 825.586 1084.09 825.931 1084.93 825.931Z" fill="url(#paint57_linear_175_190)"/>
<path d="M1086.13 848.565H1089.07V849.622H1081.45V848.565H1084.85V837.356L1081.61 839.291L1081.05 838.393L1085.05 835.92H1086.13V848.565Z" fill="url(#paint58_linear_175_190)"/>
<path d="M1086.13 871.357H1089.07V872.414H1081.45V871.357H1084.85V860.149L1081.61 862.084L1081.05 861.186L1085.05 858.713H1086.13V871.357Z" fill="url(#paint59_linear_175_190)"/>
<path d="M1122.07 630.586C1123.5 630.586 1124.58 631.191 1125.31 632.4C1126.06 633.597 1126.43 635.339 1126.43 637.626C1126.43 639.913 1126.06 641.661 1125.31 642.871C1124.58 644.081 1123.5 644.686 1122.07 644.686C1120.66 644.686 1119.58 644.081 1118.83 642.871C1118.08 641.661 1117.71 639.913 1117.71 637.626C1117.71 635.352 1118.08 633.61 1118.83 632.4C1119.58 631.191 1120.66 630.586 1122.07 630.586ZM1119.13 637.626C1119.13 639.248 1119.28 640.518 1119.57 641.435L1124.01 632.6C1123.54 631.975 1122.9 631.663 1122.07 631.663C1121.15 631.663 1120.43 632.155 1119.91 633.138C1119.39 634.109 1119.13 635.605 1119.13 637.626ZM1122.07 643.589C1123 643.589 1123.73 643.104 1124.25 642.133C1124.77 641.149 1125.03 639.647 1125.03 637.626C1125.03 635.911 1124.86 634.581 1124.53 633.637L1120.09 642.552C1120.57 643.243 1121.23 643.589 1122.07 643.589Z" fill="url(#paint60_linear_175_190)"/>
<path d="M1123.27 666.222H1126.21V667.279H1118.59V666.222H1121.99V655.014L1118.75 656.948L1118.19 656.051L1122.19 653.578H1123.27V666.222Z" fill="url(#paint61_linear_175_190)"/>
<path d="M1122.07 676.171C1123.5 676.171 1124.58 676.776 1125.31 677.986C1126.06 679.183 1126.43 680.924 1126.43 683.211C1126.43 685.498 1126.06 687.247 1125.31 688.457C1124.58 689.666 1123.5 690.271 1122.07 690.271C1120.66 690.271 1119.58 689.666 1118.83 688.457C1118.08 687.247 1117.71 685.498 1117.71 683.211C1117.71 680.938 1118.08 679.196 1118.83 677.986C1119.58 676.776 1120.66 676.171 1122.07 676.171ZM1119.13 683.211C1119.13 684.833 1119.28 686.103 1119.57 687.021L1124.01 678.186C1123.54 677.561 1122.9 677.248 1122.07 677.248C1121.15 677.248 1120.43 677.74 1119.91 678.724C1119.39 679.695 1119.13 681.19 1119.13 683.211ZM1122.07 689.174C1123 689.174 1123.73 688.689 1124.25 687.719C1124.77 686.735 1125.03 685.232 1125.03 683.211C1125.03 681.496 1124.86 680.167 1124.53 679.223L1120.09 688.137C1120.57 688.829 1121.23 689.174 1122.07 689.174Z" fill="url(#paint62_linear_175_190)"/>
<path d="M1122.07 698.964C1123.5 698.964 1124.58 699.569 1125.31 700.779C1126.06 701.976 1126.43 703.717 1126.43 706.004C1126.43 708.291 1126.06 710.039 1125.31 711.249C1124.58 712.459 1123.5 713.064 1122.07 713.064C1120.66 713.064 1119.58 712.459 1118.83 711.249C1118.08 710.039 1117.71 708.291 1117.71 706.004C1117.71 703.731 1118.08 701.989 1118.83 700.779C1119.58 699.569 1120.66 698.964 1122.07 698.964ZM1119.13 706.004C1119.13 707.626 1119.28 708.896 1119.57 709.813L1124.01 700.978C1123.54 700.353 1122.9 700.041 1122.07 700.041C1121.15 700.041 1120.43 700.533 1119.91 701.517C1119.39 702.487 1119.13 703.983 1119.13 706.004ZM1122.07 711.967C1123 711.967 1123.73 711.482 1124.25 710.511C1124.77 709.528 1125.03 708.025 1125.03 706.004C1125.03 704.289 1124.86 702.959 1124.53 702.015L1120.09 710.93C1120.57 711.622 1121.23 711.967 1122.07 711.967Z" fill="url(#paint63_linear_175_190)"/>
<path d="M1123.27 734.601H1126.21V735.658H1118.59V734.601H1121.99V723.392L1118.75 725.327L1118.19 724.429L1122.19 721.956H1123.27V734.601Z" fill="url(#paint64_linear_175_190)"/>
<path d="M1122.07 744.55C1123.5 744.55 1124.58 745.155 1125.31 746.365C1126.06 747.561 1126.43 749.303 1126.43 751.59C1126.43 753.877 1126.06 755.625 1125.31 756.835C1124.58 758.045 1123.5 758.65 1122.07 758.65C1120.66 758.65 1119.58 758.045 1118.83 756.835C1118.08 755.625 1117.71 753.877 1117.71 751.59C1117.71 749.316 1118.08 747.574 1118.83 746.365C1119.58 745.155 1120.66 744.55 1122.07 744.55ZM1119.13 751.59C1119.13 753.212 1119.28 754.482 1119.57 755.399L1124.01 746.564C1123.54 745.939 1122.9 745.627 1122.07 745.627C1121.15 745.627 1120.43 746.119 1119.91 747.102C1119.39 748.073 1119.13 749.569 1119.13 751.59ZM1122.07 757.553C1123 757.553 1123.73 757.068 1124.25 756.097C1124.77 755.113 1125.03 753.611 1125.03 751.59C1125.03 749.875 1124.86 748.545 1124.53 747.601L1120.09 756.516C1120.57 757.207 1121.23 757.553 1122.07 757.553Z" fill="url(#paint65_linear_175_190)"/>
<path d="M1123.27 780.186H1126.21V781.243H1118.59V780.186H1121.99V768.978L1118.75 770.912L1118.19 770.015L1122.19 767.542H1123.27V780.186Z" fill="url(#paint66_linear_175_190)"/>
<path d="M1122.07 790.135C1123.5 790.135 1124.58 790.74 1125.31 791.95C1126.06 793.147 1126.43 794.888 1126.43 797.175C1126.43 799.462 1126.06 801.211 1125.31 802.421C1124.58 803.63 1123.5 804.235 1122.07 804.235C1120.66 804.235 1119.58 803.63 1118.83 802.421C1118.08 801.211 1117.71 799.462 1117.71 797.175C1117.71 794.902 1118.08 793.16 1118.83 791.95C1119.58 790.74 1120.66 790.135 1122.07 790.135ZM1119.13 797.175C1119.13 798.797 1119.28 800.067 1119.57 800.985L1124.01 792.15C1123.54 791.525 1122.9 791.212 1122.07 791.212C1121.15 791.212 1120.43 791.704 1119.91 792.688C1119.39 793.659 1119.13 795.154 1119.13 797.175ZM1122.07 803.139C1123 803.139 1123.73 802.653 1124.25 801.683C1124.77 800.699 1125.03 799.196 1125.03 797.175C1125.03 795.46 1124.86 794.131 1124.53 793.187L1120.09 802.101C1120.57 802.793 1121.23 803.139 1122.07 803.139Z" fill="url(#paint67_linear_175_190)"/>
<path d="M1122.07 812.928C1123.5 812.928 1124.58 813.533 1125.31 814.743C1126.06 815.94 1126.43 817.681 1126.43 819.968C1126.43 822.255 1126.06 824.003 1125.31 825.213C1124.58 826.423 1123.5 827.028 1122.07 827.028C1120.66 827.028 1119.58 826.423 1118.83 825.213C1118.08 824.003 1117.71 822.255 1117.71 819.968C1117.71 817.695 1118.08 815.953 1118.83 814.743C1119.58 813.533 1120.66 812.928 1122.07 812.928ZM1119.13 819.968C1119.13 821.59 1119.28 822.86 1119.57 823.777L1124.01 814.942C1123.54 814.317 1122.9 814.005 1122.07 814.005C1121.15 814.005 1120.43 814.497 1119.91 815.481C1119.39 816.451 1119.13 817.947 1119.13 819.968ZM1122.07 825.931C1123 825.931 1123.73 825.446 1124.25 824.475C1124.77 823.492 1125.03 821.989 1125.03 819.968C1125.03 818.253 1124.86 816.923 1124.53 815.979L1120.09 824.894C1120.57 825.586 1121.23 825.931 1122.07 825.931Z" fill="url(#paint68_linear_175_190)"/>
<path d="M1123.27 848.565H1126.21V849.622H1118.59V848.565H1121.99V837.356L1118.75 839.291L1118.19 838.393L1122.19 835.92H1123.27V848.565Z" fill="url(#paint69_linear_175_190)"/>
<path d="M1122.07 858.514C1123.5 858.514 1124.58 859.119 1125.31 860.329C1126.06 861.525 1126.43 863.267 1126.43 865.554C1126.43 867.841 1126.06 869.589 1125.31 870.799C1124.58 872.009 1123.5 872.614 1122.07 872.614C1120.66 872.614 1119.58 872.009 1118.83 870.799C1118.08 869.589 1117.71 867.841 1117.71 865.554C1117.71 863.28 1118.08 861.538 1118.83 860.329C1119.58 859.119 1120.66 858.514 1122.07 858.514ZM1119.13 865.554C1119.13 867.176 1119.28 868.446 1119.57 869.363L1124.01 860.528C1123.54 859.903 1122.9 859.591 1122.07 859.591C1121.15 859.591 1120.43 860.083 1119.91 861.066C1119.39 862.037 1119.13 863.533 1119.13 865.554ZM1122.07 871.517C1123 871.517 1123.73 871.032 1124.25 870.061C1124.77 869.077 1125.03 867.575 1125.03 865.554C1125.03 863.839 1124.86 862.509 1124.53 861.565L1120.09 870.48C1120.57 871.171 1121.23 871.517 1122.07 871.517Z" fill="url(#paint70_linear_175_190)"/>
<path d="M1123.27 894.15H1126.21V895.207H1118.59V894.15H1121.99V882.942L1118.75 884.876L1118.19 883.979L1122.19 881.506H1123.27V894.15Z" fill="url(#paint71_linear_175_190)"/>
<path d="M1123.27 916.943H1126.21V918H1118.59V916.943H1121.99V905.735L1118.75 907.669L1118.19 906.772L1122.19 904.299H1123.27V916.943Z" fill="url(#paint72_linear_175_190)"/>
<path d="M1066.36 653.378C1067.79 653.378 1068.87 653.983 1069.6 655.193C1070.35 656.39 1070.72 658.132 1070.72 660.419C1070.72 662.705 1070.35 664.454 1069.6 665.664C1068.87 666.874 1067.79 667.479 1066.36 667.479C1064.95 667.479 1063.87 666.874 1063.12 665.664C1062.37 664.454 1062 662.705 1062 660.419C1062 658.145 1062.37 656.403 1063.12 655.193C1063.87 653.983 1064.95 653.378 1066.36 653.378ZM1063.42 660.419C1063.42 662.041 1063.57 663.31 1063.86 664.228L1068.3 655.393C1067.83 654.768 1067.19 654.455 1066.36 654.455C1065.44 654.455 1064.72 654.947 1064.2 655.931C1063.68 656.902 1063.42 658.398 1063.42 660.419ZM1066.36 666.382C1067.29 666.382 1068.02 665.896 1068.54 664.926C1069.06 663.942 1069.32 662.44 1069.32 660.419C1069.32 658.703 1069.15 657.374 1068.82 656.43L1064.38 665.345C1064.86 666.036 1065.52 666.382 1066.36 666.382Z" fill="url(#paint73_linear_175_190)"/>
<path d="M1066.36 676.171C1067.79 676.171 1068.87 676.776 1069.6 677.986C1070.35 679.183 1070.72 680.924 1070.72 683.211C1070.72 685.498 1070.35 687.247 1069.6 688.457C1068.87 689.666 1067.79 690.271 1066.36 690.271C1064.95 690.271 1063.87 689.666 1063.12 688.457C1062.37 687.247 1062 685.498 1062 683.211C1062 680.938 1062.37 679.196 1063.12 677.986C1063.87 676.776 1064.95 676.171 1066.36 676.171ZM1063.42 683.211C1063.42 684.833 1063.57 686.103 1063.86 687.021L1068.3 678.186C1067.83 677.561 1067.19 677.248 1066.36 677.248C1065.44 677.248 1064.72 677.74 1064.2 678.724C1063.68 679.695 1063.42 681.19 1063.42 683.211ZM1066.36 689.174C1067.29 689.174 1068.02 688.689 1068.54 687.719C1069.06 686.735 1069.32 685.232 1069.32 683.211C1069.32 681.496 1069.15 680.167 1068.82 679.223L1064.38 688.137C1064.86 688.829 1065.52 689.174 1066.36 689.174Z" fill="url(#paint74_linear_175_190)"/>
<path d="M1067.56 711.808H1070.5V712.865H1062.88V711.808H1066.28V700.599L1063.04 702.534L1062.48 701.636L1066.48 699.163H1067.56V711.808Z" fill="url(#paint75_linear_175_190)"/>
<path d="M1066.36 721.757C1067.79 721.757 1068.87 722.362 1069.6 723.572C1070.35 724.768 1070.72 726.51 1070.72 728.797C1070.72 731.084 1070.35 732.832 1069.6 734.042C1068.87 735.252 1067.79 735.857 1066.36 735.857C1064.95 735.857 1063.87 735.252 1063.12 734.042C1062.37 732.832 1062 731.084 1062 728.797C1062 726.523 1062.37 724.782 1063.12 723.572C1063.87 722.362 1064.95 721.757 1066.36 721.757ZM1063.42 728.797C1063.42 730.419 1063.57 731.689 1063.86 732.606L1068.3 723.771C1067.83 723.146 1067.19 722.834 1066.36 722.834C1065.44 722.834 1064.72 723.326 1064.2 724.31C1063.68 725.28 1063.42 726.776 1063.42 728.797ZM1066.36 734.76C1067.29 734.76 1068.02 734.275 1068.54 733.304C1069.06 732.32 1069.32 730.818 1069.32 728.797C1069.32 727.082 1069.15 725.752 1068.82 724.808L1064.38 733.723C1064.86 734.414 1065.52 734.76 1066.36 734.76Z" fill="url(#paint76_linear_175_190)"/>
<path d="M1067.56 757.393H1070.5V758.45H1062.88V757.393H1066.28V746.185L1063.04 748.12L1062.48 747.222L1066.48 744.749H1067.56V757.393Z" fill="url(#paint77_linear_175_190)"/>
<path d="M1067.56 780.186H1070.5V781.243H1062.88V780.186H1066.28V768.978L1063.04 770.912L1062.48 770.015L1066.48 767.542H1067.56V780.186Z" fill="url(#paint78_linear_175_190)"/>
<path d="M1104.7 620.637H1107.64V621.694H1100.02V620.637H1103.42V609.428L1100.18 611.363L1099.62 610.465L1103.62 607.992H1104.7V620.637Z" fill="url(#paint79_linear_175_190)"/>
<path d="M1103.5 630.586C1104.93 630.586 1106.01 631.191 1106.74 632.4C1107.49 633.597 1107.86 635.339 1107.86 637.626C1107.86 639.913 1107.49 641.661 1106.74 642.871C1106.01 644.081 1104.93 644.686 1103.5 644.686C1102.09 644.686 1101.01 644.081 1100.26 642.871C1099.51 641.661 1099.14 639.913 1099.14 637.626C1099.14 635.352 1099.51 633.61 1100.26 632.4C1101.01 631.191 1102.09 630.586 1103.5 630.586ZM1100.56 637.626C1100.56 639.248 1100.71 640.518 1101 641.435L1105.44 632.6C1104.97 631.975 1104.33 631.663 1103.5 631.663C1102.58 631.663 1101.86 632.155 1101.34 633.138C1100.82 634.109 1100.56 635.605 1100.56 637.626ZM1103.5 643.589C1104.43 643.589 1105.16 643.104 1105.68 642.133C1106.2 641.149 1106.46 639.647 1106.46 637.626C1106.46 635.911 1106.29 634.581 1105.96 633.637L1101.52 642.552C1102 643.243 1102.66 643.589 1103.5 643.589Z" fill="url(#paint80_linear_175_190)"/>
<path d="M1104.7 666.222H1107.64V667.279H1100.02V666.222H1103.42V655.014L1100.18 656.948L1099.62 656.051L1103.62 653.578H1104.7V666.222Z" fill="url(#paint81_linear_175_190)"/>
<path d="M1104.7 689.015H1107.64V690.072H1100.02V689.015H1103.42V677.807L1100.18 679.741L1099.62 678.844L1103.62 676.371H1104.7V689.015Z" fill="url(#paint82_linear_175_190)"/>
<path d="M1103.5 698.964C1104.93 698.964 1106.01 699.569 1106.74 700.779C1107.49 701.976 1107.86 703.717 1107.86 706.004C1107.86 708.291 1107.49 710.039 1106.74 711.249C1106.01 712.459 1104.93 713.064 1103.5 713.064C1102.09 713.064 1101.01 712.459 1100.26 711.249C1099.51 710.039 1099.14 708.291 1099.14 706.004C1099.14 703.731 1099.51 701.989 1100.26 700.779C1101.01 699.569 1102.09 698.964 1103.5 698.964ZM1100.56 706.004C1100.56 707.626 1100.71 708.896 1101 709.813L1105.44 700.978C1104.97 700.353 1104.33 700.041 1103.5 700.041C1102.58 700.041 1101.86 700.533 1101.34 701.517C1100.82 702.487 1100.56 703.983 1100.56 706.004ZM1103.5 711.967C1104.43 711.967 1105.16 711.482 1105.68 710.511C1106.2 709.528 1106.46 708.025 1106.46 706.004C1106.46 704.289 1106.29 702.959 1105.96 702.015L1101.52 710.93C1102 711.622 1102.66 711.967 1103.5 711.967Z" fill="url(#paint83_linear_175_190)"/>
<path d="M1104.7 734.601H1107.64V735.658H1100.02V734.601H1103.42V723.392L1100.18 725.327L1099.62 724.429L1103.62 721.956H1104.7V734.601Z" fill="url(#paint84_linear_175_190)"/>
<path d="M1104.7 757.393H1107.64V758.45H1100.02V757.393H1103.42V746.185L1100.18 748.12L1099.62 747.222L1103.62 744.749H1104.7V757.393Z" fill="url(#paint85_linear_175_190)"/>
<path d="M1103.5 767.342C1104.93 767.342 1106.01 767.947 1106.74 769.157C1107.49 770.354 1107.86 772.096 1107.86 774.383C1107.86 776.669 1107.49 778.418 1106.74 779.628C1106.01 780.838 1104.93 781.443 1103.5 781.443C1102.09 781.443 1101.01 780.838 1100.26 779.628C1099.51 778.418 1099.14 776.669 1099.14 774.383C1099.14 772.109 1099.51 770.367 1100.26 769.157C1101.01 767.947 1102.09 767.342 1103.5 767.342ZM1100.56 774.383C1100.56 776.005 1100.71 777.274 1101 778.192L1105.44 769.357C1104.97 768.732 1104.33 768.419 1103.5 768.419C1102.58 768.419 1101.86 768.911 1101.34 769.895C1100.82 770.866 1100.56 772.362 1100.56 774.383ZM1103.5 780.346C1104.43 780.346 1105.16 779.86 1105.68 778.89C1106.2 777.906 1106.46 776.404 1106.46 774.383C1106.46 772.667 1106.29 771.338 1105.96 770.394L1101.52 779.309C1102 780 1102.66 780.346 1103.5 780.346Z" fill="url(#paint86_linear_175_190)"/>
<path d="M1104.7 802.979H1107.64V804.036H1100.02V802.979H1103.42V791.771L1100.18 793.705L1099.62 792.808L1103.62 790.335H1104.7V802.979Z" fill="url(#paint87_linear_175_190)"/>
<path d="M1103.5 812.928C1104.93 812.928 1106.01 813.533 1106.74 814.743C1107.49 815.94 1107.86 817.681 1107.86 819.968C1107.86 822.255 1107.49 824.003 1106.74 825.213C1106.01 826.423 1104.93 827.028 1103.5 827.028C1102.09 827.028 1101.01 826.423 1100.26 825.213C1099.51 824.003 1099.14 822.255 1099.14 819.968C1099.14 817.695 1099.51 815.953 1100.26 814.743C1101.01 813.533 1102.09 812.928 1103.5 812.928ZM1100.56 819.968C1100.56 821.59 1100.71 822.86 1101 823.777L1105.44 814.942C1104.97 814.317 1104.33 814.005 1103.5 814.005C1102.58 814.005 1101.86 814.497 1101.34 815.481C1100.82 816.451 1100.56 817.947 1100.56 819.968ZM1103.5 825.931C1104.43 825.931 1105.16 825.446 1105.68 824.475C1106.2 823.492 1106.46 821.989 1106.46 819.968C1106.46 818.253 1106.29 816.923 1105.96 815.979L1101.52 824.894C1102 825.586 1102.66 825.931 1103.5 825.931Z" fill="url(#paint88_linear_175_190)"/>
<path d="M1140.64 607.793C1142.07 607.793 1143.15 608.398 1143.88 609.608C1144.63 610.804 1145 612.546 1145 614.833C1145 617.12 1144.63 618.868 1143.88 620.078C1143.15 621.288 1142.07 621.893 1140.64 621.893C1139.23 621.893 1138.15 621.288 1137.4 620.078C1136.65 618.868 1136.28 617.12 1136.28 614.833C1136.28 612.559 1136.65 610.818 1137.4 609.608C1138.15 608.398 1139.23 607.793 1140.64 607.793ZM1137.7 614.833C1137.7 616.455 1137.85 617.725 1138.14 618.642L1142.58 609.807C1142.11 609.182 1141.47 608.87 1140.64 608.87C1139.72 608.87 1139 609.362 1138.48 610.346C1137.96 611.316 1137.7 612.812 1137.7 614.833ZM1140.64 620.796C1141.57 620.796 1142.3 620.311 1142.82 619.34C1143.34 618.356 1143.6 616.854 1143.6 614.833C1143.6 613.118 1143.43 611.788 1143.1 610.844L1138.66 619.759C1139.14 620.45 1139.8 620.796 1140.64 620.796Z" fill="url(#paint89_linear_175_190)"/>
<path d="M1141.84 643.429H1144.78V644.486H1137.16V643.429H1140.56V632.221L1137.32 634.156L1136.76 633.258L1140.76 630.785H1141.84V643.429Z" fill="url(#paint90_linear_175_190)"/>
<path d="M1141.84 666.222H1144.78V667.279H1137.16V666.222H1140.56V655.014L1137.32 656.948L1136.76 656.051L1140.76 653.578H1141.84V666.222Z" fill="url(#paint91_linear_175_190)"/>
<path d="M1140.64 676.171C1142.07 676.171 1143.15 676.776 1143.88 677.986C1144.63 679.183 1145 680.924 1145 683.211C1145 685.498 1144.63 687.247 1143.88 688.457C1143.15 689.666 1142.07 690.271 1140.64 690.271C1139.23 690.271 1138.15 689.666 1137.4 688.457C1136.65 687.247 1136.28 685.498 1136.28 683.211C1136.28 680.938 1136.65 679.196 1137.4 677.986C1138.15 676.776 1139.23 676.171 1140.64 676.171ZM1137.7 683.211C1137.7 684.833 1137.85 686.103 1138.14 687.021L1142.58 678.186C1142.11 677.561 1141.47 677.248 1140.64 677.248C1139.72 677.248 1139 677.74 1138.48 678.724C1137.96 679.695 1137.7 681.19 1137.7 683.211ZM1140.64 689.174C1141.57 689.174 1142.3 688.689 1142.82 687.719C1143.34 686.735 1143.6 685.232 1143.6 683.211C1143.6 681.496 1143.43 680.167 1143.1 679.223L1138.66 688.137C1139.14 688.829 1139.8 689.174 1140.64 689.174Z" fill="url(#paint92_linear_175_190)"/>
<path d="M1140.64 698.964C1142.07 698.964 1143.15 699.569 1143.88 700.779C1144.63 701.976 1145 703.717 1145 706.004C1145 708.291 1144.63 710.039 1143.88 711.249C1143.15 712.459 1142.07 713.064 1140.64 713.064C1139.23 713.064 1138.15 712.459 1137.4 711.249C1136.65 710.039 1136.28 708.291 1136.28 706.004C1136.28 703.731 1136.65 701.989 1137.4 700.779C1138.15 699.569 1139.23 698.964 1140.64 698.964ZM1137.7 706.004C1137.7 707.626 1137.85 708.896 1138.14 709.813L1142.58 700.978C1142.11 700.353 1141.47 700.041 1140.64 700.041C1139.72 700.041 1139 700.533 1138.48 701.517C1137.96 702.487 1137.7 703.983 1137.7 706.004ZM1140.64 711.967C1141.57 711.967 1142.3 711.482 1142.82 710.511C1143.34 709.528 1143.6 708.025 1143.6 706.004C1143.6 704.289 1143.43 702.959 1143.1 702.015L1138.66 710.93C1139.14 711.622 1139.8 711.967 1140.64 711.967Z" fill="url(#paint93_linear_175_190)"/>
</g>
<defs>
<filter id="filter0_f_175_190" x="-380.19" y="0.809998" width="2141.38" height="1500.38" filterUnits="userSpaceOnUse" color-interpolation-filters="sRGB">
<feFlood flood-opacity="0" result="BackgroundImageFix"/>
<feBlend mode="normal" in="SourceGraphic" in2="BackgroundImageFix" result="shape"/>
<feGaussianBlur stdDeviation="200.095" result="effect1_foregroundBlur_175_190"/>
</filter>
<linearGradient id="paint0_linear_175_190" x1="238.5" y1="785" x2="238.5" y2="1096.38" gradientUnits="userSpaceOnUse">
<stop stop-color="#F7DD43"/>
<stop offset="1" stop-color="#F343F7" stop-opacity="0"/>
</linearGradient>
<linearGradient id="paint1_linear_175_190" x1="238.5" y1="785" x2="238.5" y2="1096.38" gradientUnits="userSpaceOnUse">
<stop stop-color="#F7DD43"/>
<stop offset="1" stop-color="#F343F7" stop-opacity="0"/>
</linearGradient>
<linearGradient id="paint2_linear_175_190" x1="238.5" y1="785" x2="238.5" y2="1096.38" gradientUnits="userSpaceOnUse">
<stop stop-color="#F7DD43"/>
<stop offset="1" stop-color="#F343F7" stop-opacity="0"/>
</linearGradient>
<linearGradient id="paint3_linear_175_190" x1="238.5" y1="785" x2="238.5" y2="1096.38" gradientUnits="userSpaceOnUse">
<stop stop-color="#F7DD43"/>
<stop offset="1" stop-color="#F343F7" stop-opacity="0"/>
</linearGradient>
<linearGradient id="paint4_linear_175_190" x1="238.5" y1="785" x2="238.5" y2="1096.38" gradientUnits="userSpaceOnUse">
<stop stop-color="#F7DD43"/>
<stop offset="1" stop-color="#F343F7" stop-opacity="0"/>
</linearGradient>
<linearGradient id="paint5_linear_175_190" x1="238.5" y1="785" x2="238.5" y2="1096.38" gradientUnits="userSpaceOnUse">
<stop stop-color="#F7DD43"/>
<stop offset="1" stop-color="#F343F7" stop-opacity="0"/>
</linearGradient>
<linearGradient id="paint6_linear_175_190" x1="238.5" y1="785" x2="238.5" y2="1096.38" gradientUnits="userSpaceOnUse">
<stop stop-color="#F7DD43"/>
<stop offset="1" stop-color="#F343F7" stop-opacity="0"/>
</linearGradient>
<linearGradient id="paint7_linear_175_190" x1="238.5" y1="785" x2="238.5" y2="1096.38" gradientUnits="userSpaceOnUse">
<stop stop-color="#F7DD43"/>
<stop offset="1" stop-color="#F343F7" stop-opacity="0"/>
</linearGradient>
<linearGradient id="paint8_linear_175_190" x1="238.5" y1="785" x2="238.5" y2="1096.38" gradientUnits="userSpaceOnUse">
<stop stop-color="#F7DD43"/>
<stop offset="1" stop-color="#F343F7" stop-opacity="0"/>
</linearGradient>
<linearGradient id="paint9_linear_175_190" x1="238.5" y1="785" x2="238.5" y2="1096.38" gradientUnits="userSpaceOnUse">
<stop stop-color="#F7DD43"/>
<stop offset="1" stop-color="#F343F7" stop-opacity="0"/>
</linearGradient>
<linearGradient id="paint10_linear_175_190" x1="238.5" y1="785" x2="238.5" y2="1096.38" gradientUnits="userSpaceOnUse">
<stop stop-color="#F7DD43"/>
<stop offset="1" stop-color="#F343F7" stop-opacity="0"/>
</linearGradient>
<linearGradient id="paint11_linear_175_190" x1="238.5" y1="785" x2="238.5" y2="1096.38" gradientUnits="userSpaceOnUse">
<stop stop-color="#F7DD43"/>
<stop offset="1" stop-color="#F343F7" stop-opacity="0"/>
</linearGradient>
<linearGradient id="paint12_linear_175_190" x1="238.5" y1="785" x2="238.5" y2="1096.38" gradientUnits="userSpaceOnUse">
<stop stop-color="#F7DD43"/>
<stop offset="1" stop-color="#F343F7" stop-opacity="0"/>
</linearGradient>
<linearGradient id="paint13_linear_175_190" x1="238.5" y1="785" x2="238.5" y2="1096.38" gradientUnits="userSpaceOnUse">
<stop stop-color="#F7DD43"/>
<stop offset="1" stop-color="#F343F7" stop-opacity="0"/>
</linearGradient>
<linearGradient id="paint14_linear_175_190" x1="238.5" y1="785" x2="238.5" y2="1096.38" gradientUnits="userSpaceOnUse">
<stop stop-color="#F7DD43"/>
<stop offset="1" stop-color="#F343F7" stop-opacity="0"/>
</linearGradient>
<linearGradient id="paint15_linear_175_190" x1="238.5" y1="785" x2="238.5" y2="1096.38" gradientUnits="userSpaceOnUse">
<stop stop-color="#F7DD43"/>
<stop offset="1" stop-color="#F343F7" stop-opacity="0"/>
</linearGradient>
<linearGradient id="paint16_linear_175_190" x1="238.5" y1="785" x2="238.5" y2="1096.38" gradientUnits="userSpaceOnUse">
<stop stop-color="#F7DD43"/>
<stop offset="1" stop-color="#F343F7" stop-opacity="0"/>
</linearGradient>
<linearGradient id="paint17_linear_175_190" x1="238.5" y1="785" x2="238.5" y2="1096.38" gradientUnits="userSpaceOnUse">
<stop stop-color="#F7DD43"/>
<stop offset="1" stop-color="#F343F7" stop-opacity="0"/>
</linearGradient>
<linearGradient id="paint18_linear_175_190" x1="238.5" y1="785" x2="238.5" y2="1096.38" gradientUnits="userSpaceOnUse">
<stop stop-color="#F7DD43"/>
<stop offset="1" stop-color="#F343F7" stop-opacity="0"/>
</linearGradient>
<linearGradient id="paint19_linear_175_190" x1="238.5" y1="785" x2="238.5" y2="1096.38" gradientUnits="userSpaceOnUse">
<stop stop-color="#F7DD43"/>
<stop offset="1" stop-color="#F343F7" stop-opacity="0"/>
</linearGradient>
<linearGradient id="paint20_linear_175_190" x1="238.5" y1="785" x2="238.5" y2="1096.38" gradientUnits="userSpaceOnUse">
<stop stop-color="#F7DD43"/>
<stop offset="1" stop-color="#F343F7" stop-opacity="0"/>
</linearGradient>
<linearGradient id="paint21_linear_175_190" x1="238.5" y1="785" x2="238.5" y2="1096.38" gradientUnits="userSpaceOnUse">
<stop stop-color="#F7DD43"/>
<stop offset="1" stop-color="#F343F7" stop-opacity="0"/>
</linearGradient>
<linearGradient id="paint22_linear_175_190" x1="238.5" y1="785" x2="238.5" y2="1096.38" gradientUnits="userSpaceOnUse">
<stop stop-color="#F7DD43"/>
<stop offset="1" stop-color="#F343F7" stop-opacity="0"/>
</linearGradient>
<linearGradient id="paint23_linear_175_190" x1="238.5" y1="785" x2="238.5" y2="1096.38" gradientUnits="userSpaceOnUse">
<stop stop-color="#F7DD43"/>
<stop offset="1" stop-color="#F343F7" stop-opacity="0"/>
</linearGradient>
<linearGradient id="paint24_linear_175_190" x1="238.5" y1="785" x2="238.5" y2="1096.38" gradientUnits="userSpaceOnUse">
<stop stop-color="#F7DD43"/>
<stop offset="1" stop-color="#F343F7" stop-opacity="0"/>
</linearGradient>
<linearGradient id="paint25_linear_175_190" x1="238.5" y1="785" x2="238.5" y2="1096.38" gradientUnits="userSpaceOnUse">
<stop stop-color="#F7DD43"/>
<stop offset="1" stop-color="#F343F7" stop-opacity="0"/>
</linearGradient>
<linearGradient id="paint26_linear_175_190" x1="238.5" y1="785" x2="238.5" y2="1096.38" gradientUnits="userSpaceOnUse">
<stop stop-color="#F7DD43"/>
<stop offset="1" stop-color="#F343F7" stop-opacity="0"/>
</linearGradient>
<linearGradient id="paint27_linear_175_190" x1="238.5" y1="785" x2="238.5" y2="1096.38" gradientUnits="userSpaceOnUse">
<stop stop-color="#F7DD43"/>
<stop offset="1" stop-color="#F343F7" stop-opacity="0"/>
</linearGradient>
<linearGradient id="paint28_linear_175_190" x1="238.5" y1="785" x2="238.5" y2="1096.38" gradientUnits="userSpaceOnUse">
<stop stop-color="#F7DD43"/>
<stop offset="1" stop-color="#F343F7" stop-opacity="0"/>
</linearGradient>
<linearGradient id="paint29_linear_175_190" x1="238.5" y1="785" x2="238.5" y2="1096.38" gradientUnits="userSpaceOnUse">
<stop stop-color="#F7DD43"/>
<stop offset="1" stop-color="#F343F7" stop-opacity="0"/>
</linearGradient>
<linearGradient id="paint30_linear_175_190" x1="238.5" y1="785" x2="238.5" y2="1096.38" gradientUnits="userSpaceOnUse">
<stop stop-color="#F7DD43"/>
<stop offset="1" stop-color="#F343F7" stop-opacity="0"/>
</linearGradient>
<linearGradient id="paint31_linear_175_190" x1="238.5" y1="785" x2="238.5" y2="1096.38" gradientUnits="userSpaceOnUse">
<stop stop-color="#F7DD43"/>
<stop offset="1" stop-color="#F343F7" stop-opacity="0"/>
</linearGradient>
<linearGradient id="paint32_linear_175_190" x1="238.5" y1="785" x2="238.5" y2="1096.38" gradientUnits="userSpaceOnUse">
<stop stop-color="#F7DD43"/>
<stop offset="1" stop-color="#F343F7" stop-opacity="0"/>
</linearGradient>
<linearGradient id="paint33_linear_175_190" x1="238.5" y1="785" x2="238.5" y2="1096.38" gradientUnits="userSpaceOnUse">
<stop stop-color="#F7DD43"/>
<stop offset="1" stop-color="#F343F7" stop-opacity="0"/>
</linearGradient>
<linearGradient id="paint34_linear_175_190" x1="238.5" y1="785" x2="238.5" y2="1096.38" gradientUnits="userSpaceOnUse">
<stop stop-color="#F7DD43"/>
<stop offset="1" stop-color="#F343F7" stop-opacity="0"/>
</linearGradient>
<linearGradient id="paint35_linear_175_190" x1="238.5" y1="785" x2="238.5" y2="1096.38" gradientUnits="userSpaceOnUse">
<stop stop-color="#F7DD43"/>
<stop offset="1" stop-color="#F343F7" stop-opacity="0"/>
</linearGradient>
<linearGradient id="paint36_linear_175_190" x1="238.5" y1="785" x2="238.5" y2="1096.38" gradientUnits="userSpaceOnUse">
<stop stop-color="#F7DD43"/>
<stop offset="1" stop-color="#F343F7" stop-opacity="0"/>
</linearGradient>
<linearGradient id="paint37_linear_175_190" x1="238.5" y1="785" x2="238.5" y2="1096.38" gradientUnits="userSpaceOnUse">
<stop stop-color="#F7DD43"/>
<stop offset="1" stop-color="#F343F7" stop-opacity="0"/>
</linearGradient>
<linearGradient id="paint38_linear_175_190" x1="238.5" y1="785" x2="238.5" y2="1096.38" gradientUnits="userSpaceOnUse">
<stop stop-color="#F7DD43"/>
<stop offset="1" stop-color="#F343F7" stop-opacity="0"/>
</linearGradient>
<linearGradient id="paint39_linear_175_190" x1="238.5" y1="785" x2="238.5" y2="1096.38" gradientUnits="userSpaceOnUse">
<stop stop-color="#F7DD43"/>
<stop offset="1" stop-color="#F343F7" stop-opacity="0"/>
</linearGradient>
<linearGradient id="paint40_linear_175_190" x1="238.5" y1="785" x2="238.5" y2="1096.38" gradientUnits="userSpaceOnUse">
<stop stop-color="#F7DD43"/>
<stop offset="1" stop-color="#F343F7" stop-opacity="0"/>
</linearGradient>
<linearGradient id="paint41_linear_175_190" x1="238.5" y1="785" x2="238.5" y2="1096.38" gradientUnits="userSpaceOnUse">
<stop stop-color="#F7DD43"/>
<stop offset="1" stop-color="#F343F7" stop-opacity="0"/>
</linearGradient>
<linearGradient id="paint42_linear_175_190" x1="238.5" y1="785" x2="238.5" y2="1096.38" gradientUnits="userSpaceOnUse">
<stop stop-color="#F7DD43"/>
<stop offset="1" stop-color="#F343F7" stop-opacity="0"/>
</linearGradient>
<linearGradient id="paint43_linear_175_190" x1="238.5" y1="785" x2="238.5" y2="1096.38" gradientUnits="userSpaceOnUse">
<stop stop-color="#F7DD43"/>
<stop offset="1" stop-color="#F343F7" stop-opacity="0"/>
</linearGradient>
<linearGradient id="paint44_linear_175_190" x1="238.5" y1="785" x2="238.5" y2="1096.38" gradientUnits="userSpaceOnUse">
<stop stop-color="#F7DD43"/>
<stop offset="1" stop-color="#F343F7" stop-opacity="0"/>
</linearGradient>
<linearGradient id="paint45_linear_175_190" x1="238.5" y1="785" x2="238.5" y2="1096.38" gradientUnits="userSpaceOnUse">
<stop stop-color="#F7DD43"/>
<stop offset="1" stop-color="#F343F7" stop-opacity="0"/>
</linearGradient>
<linearGradient id="paint46_linear_175_190" x1="238.5" y1="785" x2="238.5" y2="1096.38" gradientUnits="userSpaceOnUse">
<stop stop-color="#F7DD43"/>
<stop offset="1" stop-color="#F343F7" stop-opacity="0"/>
</linearGradient>
<linearGradient id="paint47_linear_175_190" x1="1103.5" y1="585" x2="1103.5" y2="883.818" gradientUnits="userSpaceOnUse">
<stop stop-color="#F7DD43"/>
<stop offset="1" stop-color="#43F7EC" stop-opacity="0"/>
</linearGradient>
<linearGradient id="paint48_linear_175_190" x1="1103.5" y1="585" x2="1103.5" y2="883.818" gradientUnits="userSpaceOnUse">
<stop stop-color="#F7DD43"/>
<stop offset="1" stop-color="#43F7EC" stop-opacity="0"/>
</linearGradient>
<linearGradient id="paint49_linear_175_190" x1="1103.5" y1="585" x2="1103.5" y2="883.818" gradientUnits="userSpaceOnUse">
<stop stop-color="#F7DD43"/>
<stop offset="1" stop-color="#43F7EC" stop-opacity="0"/>
</linearGradient>
<linearGradient id="paint50_linear_175_190" x1="1103.5" y1="585" x2="1103.5" y2="883.818" gradientUnits="userSpaceOnUse">
<stop stop-color="#F7DD43"/>
<stop offset="1" stop-color="#43F7EC" stop-opacity="0"/>
</linearGradient>
<linearGradient id="paint51_linear_175_190" x1="1103.5" y1="585" x2="1103.5" y2="883.818" gradientUnits="userSpaceOnUse">
<stop stop-color="#F7DD43"/>
<stop offset="1" stop-color="#43F7EC" stop-opacity="0"/>
</linearGradient>
<linearGradient id="paint52_linear_175_190" x1="1103.5" y1="585" x2="1103.5" y2="883.818" gradientUnits="userSpaceOnUse">
<stop stop-color="#F7DD43"/>
<stop offset="1" stop-color="#43F7EC" stop-opacity="0"/>
</linearGradient>
<linearGradient id="paint53_linear_175_190" x1="1103.5" y1="585" x2="1103.5" y2="883.818" gradientUnits="userSpaceOnUse">
<stop stop-color="#F7DD43"/>
<stop offset="1" stop-color="#43F7EC" stop-opacity="0"/>
</linearGradient>
<linearGradient id="paint54_linear_175_190" x1="1103.5" y1="585" x2="1103.5" y2="883.818" gradientUnits="userSpaceOnUse">
<stop stop-color="#F7DD43"/>
<stop offset="1" stop-color="#43F7EC" stop-opacity="0"/>
</linearGradient>
<linearGradient id="paint55_linear_175_190" x1="1103.5" y1="585" x2="1103.5" y2="883.818" gradientUnits="userSpaceOnUse">
<stop stop-color="#F7DD43"/>
<stop offset="1" stop-color="#43F7EC" stop-opacity="0"/>
</linearGradient>
<linearGradient id="paint56_linear_175_190" x1="1103.5" y1="585" x2="1103.5" y2="883.818" gradientUnits="userSpaceOnUse">
<stop stop-color="#F7DD43"/>
<stop offset="1" stop-color="#43F7EC" stop-opacity="0"/>
</linearGradient>
<linearGradient id="paint57_linear_175_190" x1="1103.5" y1="585" x2="1103.5" y2="883.818" gradientUnits="userSpaceOnUse">
<stop stop-color="#F7DD43"/>
<stop offset="1" stop-color="#43F7EC" stop-opacity="0"/>
</linearGradient>
<linearGradient id="paint58_linear_175_190" x1="1103.5" y1="585" x2="1103.5" y2="883.818" gradientUnits="userSpaceOnUse">
<stop stop-color="#F7DD43"/>
<stop offset="1" stop-color="#43F7EC" stop-opacity="0"/>
</linearGradient>
<linearGradient id="paint59_linear_175_190" x1="1103.5" y1="585" x2="1103.5" y2="883.818" gradientUnits="userSpaceOnUse">
<stop stop-color="#F7DD43"/>
<stop offset="1" stop-color="#43F7EC" stop-opacity="0"/>
</linearGradient>
<linearGradient id="paint60_linear_175_190" x1="1103.5" y1="585" x2="1103.5" y2="883.818" gradientUnits="userSpaceOnUse">
<stop stop-color="#F7DD43"/>
<stop offset="1" stop-color="#43F7EC" stop-opacity="0"/>
</linearGradient>
<linearGradient id="paint61_linear_175_190" x1="1103.5" y1="585" x2="1103.5" y2="883.818" gradientUnits="userSpaceOnUse">
<stop stop-color="#F7DD43"/>
<stop offset="1" stop-color="#43F7EC" stop-opacity="0"/>
</linearGradient>
<linearGradient id="paint62_linear_175_190" x1="1103.5" y1="585" x2="1103.5" y2="883.818" gradientUnits="userSpaceOnUse">
<stop stop-color="#F7DD43"/>
<stop offset="1" stop-color="#43F7EC" stop-opacity="0"/>
</linearGradient>
<linearGradient id="paint63_linear_175_190" x1="1103.5" y1="585" x2="1103.5" y2="883.818" gradientUnits="userSpaceOnUse">
<stop stop-color="#F7DD43"/>
<stop offset="1" stop-color="#43F7EC" stop-opacity="0"/>
</linearGradient>
<linearGradient id="paint64_linear_175_190" x1="1103.5" y1="585" x2="1103.5" y2="883.818" gradientUnits="userSpaceOnUse">
<stop stop-color="#F7DD43"/>
<stop offset="1" stop-color="#43F7EC" stop-opacity="0"/>
</linearGradient>
<linearGradient id="paint65_linear_175_190" x1="1103.5" y1="585" x2="1103.5" y2="883.818" gradientUnits="userSpaceOnUse">
<stop stop-color="#F7DD43"/>
<stop offset="1" stop-color="#43F7EC" stop-opacity="0"/>
</linearGradient>
<linearGradient id="paint66_linear_175_190" x1="1103.5" y1="585" x2="1103.5" y2="883.818" gradientUnits="userSpaceOnUse">
<stop stop-color="#F7DD43"/>
<stop offset="1" stop-color="#43F7EC" stop-opacity="0"/>
</linearGradient>
<linearGradient id="paint67_linear_175_190" x1="1103.5" y1="585" x2="1103.5" y2="883.818" gradientUnits="userSpaceOnUse">
<stop stop-color="#F7DD43"/>
<stop offset="1" stop-color="#43F7EC" stop-opacity="0"/>
</linearGradient>
<linearGradient id="paint68_linear_175_190" x1="1103.5" y1="585" x2="1103.5" y2="883.818" gradientUnits="userSpaceOnUse">
<stop stop-color="#F7DD43"/>
<stop offset="1" stop-color="#43F7EC" stop-opacity="0"/>
</linearGradient>
<linearGradient id="paint69_linear_175_190" x1="1103.5" y1="585" x2="1103.5" y2="883.818" gradientUnits="userSpaceOnUse">
<stop stop-color="#F7DD43"/>
<stop offset="1" stop-color="#43F7EC" stop-opacity="0"/>
</linearGradient>
<linearGradient id="paint70_linear_175_190" x1="1103.5" y1="585" x2="1103.5" y2="883.818" gradientUnits="userSpaceOnUse">
<stop stop-color="#F7DD43"/>
<stop offset="1" stop-color="#43F7EC" stop-opacity="0"/>
</linearGradient>
<linearGradient id="paint71_linear_175_190" x1="1103.5" y1="585" x2="1103.5" y2="883.818" gradientUnits="userSpaceOnUse">
<stop stop-color="#F7DD43"/>
<stop offset="1" stop-color="#43F7EC" stop-opacity="0"/>
</linearGradient>
<linearGradient id="paint72_linear_175_190" x1="1103.5" y1="585" x2="1103.5" y2="883.818" gradientUnits="userSpaceOnUse">
<stop stop-color="#F7DD43"/>
<stop offset="1" stop-color="#43F7EC" stop-opacity="0"/>
</linearGradient>
<linearGradient id="paint73_linear_175_190" x1="1103.5" y1="585" x2="1103.5" y2="883.818" gradientUnits="userSpaceOnUse">
<stop stop-color="#F7DD43"/>
<stop offset="1" stop-color="#43F7EC" stop-opacity="0"/>
</linearGradient>
<linearGradient id="paint74_linear_175_190" x1="1103.5" y1="585" x2="1103.5" y2="883.818" gradientUnits="userSpaceOnUse">
<stop stop-color="#F7DD43"/>
<stop offset="1" stop-color="#43F7EC" stop-opacity="0"/>
</linearGradient>
<linearGradient id="paint75_linear_175_190" x1="1103.5" y1="585" x2="1103.5" y2="883.818" gradientUnits="userSpaceOnUse">
<stop stop-color="#F7DD43"/>
<stop offset="1" stop-color="#43F7EC" stop-opacity="0"/>
</linearGradient>
<linearGradient id="paint76_linear_175_190" x1="1103.5" y1="585" x2="1103.5" y2="883.818" gradientUnits="userSpaceOnUse">
<stop stop-color="#F7DD43"/>
<stop offset="1" stop-color="#43F7EC" stop-opacity="0"/>
</linearGradient>
<linearGradient id="paint77_linear_175_190" x1="1103.5" y1="585" x2="1103.5" y2="883.818" gradientUnits="userSpaceOnUse">
<stop stop-color="#F7DD43"/>
<stop offset="1" stop-color="#43F7EC" stop-opacity="0"/>
</linearGradient>
<linearGradient id="paint78_linear_175_190" x1="1103.5" y1="585" x2="1103.5" y2="883.818" gradientUnits="userSpaceOnUse">
<stop stop-color="#F7DD43"/>
<stop offset="1" stop-color="#43F7EC" stop-opacity="0"/>
</linearGradient>
<linearGradient id="paint79_linear_175_190" x1="1103.5" y1="585" x2="1103.5" y2="883.818" gradientUnits="userSpaceOnUse">
<stop stop-color="#F7DD43"/>
<stop offset="1" stop-color="#43F7EC" stop-opacity="0"/>
</linearGradient>
<linearGradient id="paint80_linear_175_190" x1="1103.5" y1="585" x2="1103.5" y2="883.818" gradientUnits="userSpaceOnUse">
<stop stop-color="#F7DD43"/>
<stop offset="1" stop-color="#43F7EC" stop-opacity="0"/>
</linearGradient>
<linearGradient id="paint81_linear_175_190" x1="1103.5" y1="585" x2="1103.5" y2="883.818" gradientUnits="userSpaceOnUse">
<stop stop-color="#F7DD43"/>
<stop offset="1" stop-color="#43F7EC" stop-opacity="0"/>
</linearGradient>
<linearGradient id="paint82_linear_175_190" x1="1103.5" y1="585" x2="1103.5" y2="883.818" gradientUnits="userSpaceOnUse">
<stop stop-color="#F7DD43"/>
<stop offset="1" stop-color="#43F7EC" stop-opacity="0"/>
</linearGradient>
<linearGradient id="paint83_linear_175_190" x1="1103.5" y1="585" x2="1103.5" y2="883.818" gradientUnits="userSpaceOnUse">
<stop stop-color="#F7DD43"/>
<stop offset="1" stop-color="#43F7EC" stop-opacity="0"/>
</linearGradient>
<linearGradient id="paint84_linear_175_190" x1="1103.5" y1="585" x2="1103.5" y2="883.818" gradientUnits="userSpaceOnUse">
<stop stop-color="#F7DD43"/>
<stop offset="1" stop-color="#43F7EC" stop-opacity="0"/>
</linearGradient>
<linearGradient id="paint85_linear_175_190" x1="1103.5" y1="585" x2="1103.5" y2="883.818" gradientUnits="userSpaceOnUse">
<stop stop-color="#F7DD43"/>
<stop offset="1" stop-color="#43F7EC" stop-opacity="0"/>
</linearGradient>
<linearGradient id="paint86_linear_175_190" x1="1103.5" y1="585" x2="1103.5" y2="883.818" gradientUnits="userSpaceOnUse">
<stop stop-color="#F7DD43"/>
<stop offset="1" stop-color="#43F7EC" stop-opacity="0"/>
</linearGradient>
<linearGradient id="paint87_linear_175_190" x1="1103.5" y1="585" x2="1103.5" y2="883.818" gradientUnits="userSpaceOnUse">
<stop stop-color="#F7DD43"/>
<stop offset="1" stop-color="#43F7EC" stop-opacity="0"/>
</linearGradient>
<linearGradient id="paint88_linear_175_190" x1="1103.5" y1="585" x2="1103.5" y2="883.818" gradientUnits="userSpaceOnUse">
<stop stop-color="#F7DD43"/>
<stop offset="1" stop-color="#43F7EC" stop-opacity="0"/>
</linearGradient>
<linearGradient id="paint89_linear_175_190" x1="1103.5" y1="585" x2="1103.5" y2="883.818" gradientUnits="userSpaceOnUse">
<stop stop-color="#F7DD43"/>
<stop offset="1" stop-color="#43F7EC" stop-opacity="0"/>
</linearGradient>
<linearGradient id="paint90_linear_175_190" x1="1103.5" y1="585" x2="1103.5" y2="883.818" gradientUnits="userSpaceOnUse">
<stop stop-color="#F7DD43"/>
<stop offset="1" stop-color="#43F7EC" stop-opacity="0"/>
</linearGradient>
<linearGradient id="paint91_linear_175_190" x1="1103.5" y1="585" x2="1103.5" y2="883.818" gradientUnits="userSpaceOnUse">
<stop stop-color="#F7DD43"/>
<stop offset="1" stop-color="#43F7EC" stop-opacity="0"/>
</linearGradient>
<linearGradient id="paint92_linear_175_190" x1="1103.5" y1="585" x2="1103.5" y2="883.818" gradientUnits="userSpaceOnUse">
<stop stop-color="#F7DD43"/>
<stop offset="1" stop-color="#43F7EC" stop-opacity="0"/>
</linearGradient>
<linearGradient id="paint93_linear_175_190" x1="1103.5" y1="585" x2="1103.5" y2="883.818" gradientUnits="userSpaceOnUse">
<stop stop-color="#F7DD43"/>
<stop offset="1" stop-color="#43F7EC" stop-opacity="0"/>
</linearGradient>
</defs>
</svg>
