<svg width="1361" height="1502" viewBox="0 0 1361 1502" fill="none" xmlns="http://www.w3.org/2000/svg">
<g opacity="0.2" filter="url(#filter0_f_175_194)">
<ellipse cx="690.5" cy="751" rx="670.5" ry="350" fill="url(#paint0_linear_175_194)"/>
</g>
<path d="M293.035 791C294.53 791 295.662 791.63 296.431 792.891C297.213 794.138 297.605 795.953 297.605 798.336C297.605 800.719 297.213 802.541 296.431 803.802C295.662 805.063 294.53 805.693 293.035 805.693C291.554 805.693 290.422 805.063 289.639 803.802C288.856 802.541 288.465 800.719 288.465 798.336C288.465 795.967 288.856 794.152 289.639 792.891C290.422 791.63 291.554 791 293.035 791ZM289.953 798.336C289.953 800.026 290.107 801.35 290.415 802.306L295.068 793.099C294.579 792.448 293.901 792.122 293.035 792.122C292.071 792.122 291.316 792.635 290.771 793.66C290.226 794.672 289.953 796.23 289.953 798.336ZM293.035 804.55C294.013 804.55 294.775 804.044 295.32 803.033C295.865 802.008 296.137 800.442 296.137 798.336C296.137 796.549 295.963 795.163 295.613 794.18L290.96 803.469C291.463 804.19 292.154 804.55 293.035 804.55Z" fill="url(#paint1_linear_175_194)" fill-opacity="0.6"/>
<path d="M294.293 828.135H297.374V829.236H289.387V828.135H292.951V816.455L289.555 818.471L288.968 817.536L293.161 814.959H294.293V828.135Z" fill="url(#paint2_linear_175_194)" fill-opacity="0.6"/>
<path d="M293.035 838.502C294.53 838.502 295.662 839.133 296.431 840.393C297.213 841.64 297.605 843.455 297.605 845.838C297.605 848.221 297.213 850.043 296.431 851.304C295.662 852.565 294.53 853.195 293.035 853.195C291.554 853.195 290.422 852.565 289.639 851.304C288.856 850.043 288.465 848.221 288.465 845.838C288.465 843.469 288.856 841.654 289.639 840.393C290.422 839.133 291.554 838.502 293.035 838.502ZM289.953 845.838C289.953 847.529 290.107 848.852 290.415 849.808L295.068 840.601C294.579 839.95 293.901 839.624 293.035 839.624C292.071 839.624 291.316 840.137 290.771 841.162C290.226 842.174 289.953 843.732 289.953 845.838ZM293.035 852.052C294.013 852.052 294.775 851.546 295.32 850.535C295.865 849.51 296.137 847.944 296.137 845.838C296.137 844.051 295.963 842.665 295.613 841.682L290.96 850.971C291.463 851.692 292.154 852.052 293.035 852.052Z" fill="url(#paint3_linear_175_194)" fill-opacity="0.6"/>
<path d="M294.293 875.637H297.374V876.738H289.387V875.637H292.951V863.957L289.555 865.973L288.968 865.038L293.161 862.461H294.293V875.637Z" fill="url(#paint4_linear_175_194)" fill-opacity="0.6"/>
<path d="M294.293 899.388H297.374V900.489H289.387V899.388H292.951V887.708L289.555 889.724L288.968 888.789L293.161 886.212H294.293V899.388Z" fill="url(#paint5_linear_175_194)" fill-opacity="0.6"/>
<path d="M293.035 909.755C294.53 909.755 295.662 910.386 296.431 911.646C297.213 912.893 297.605 914.708 297.605 917.091C297.605 919.474 297.213 921.296 296.431 922.557C295.662 923.818 294.53 924.448 293.035 924.448C291.554 924.448 290.422 923.818 289.639 922.557C288.856 921.296 288.465 919.474 288.465 917.091C288.465 914.722 288.856 912.907 289.639 911.646C290.422 910.386 291.554 909.755 293.035 909.755ZM289.953 917.091C289.953 918.782 290.107 920.105 290.415 921.061L295.068 911.854C294.579 911.203 293.901 910.878 293.035 910.878C292.071 910.878 291.316 911.39 290.771 912.415C290.226 913.427 289.953 914.985 289.953 917.091ZM293.035 923.305C294.013 923.305 294.775 922.8 295.32 921.788C295.865 920.763 296.137 919.197 296.137 917.091C296.137 915.304 295.963 913.919 295.613 912.935L290.96 922.225C291.463 922.945 292.154 923.305 293.035 923.305Z" fill="url(#paint6_linear_175_194)" fill-opacity="0.6"/>
<path d="M294.293 946.89H297.374V947.992H289.387V946.89H292.951V935.21L289.555 937.226L288.968 936.291L293.161 933.714H294.293V946.89Z" fill="url(#paint7_linear_175_194)" fill-opacity="0.6"/>
<path d="M293.035 957.257C294.53 957.257 295.662 957.888 296.431 959.149C297.213 960.396 297.605 962.211 297.605 964.594C297.605 966.977 297.213 968.798 296.431 970.059C295.662 971.32 294.53 971.95 293.035 971.95C291.554 971.95 290.422 971.32 289.639 970.059C288.856 968.798 288.465 966.977 288.465 964.594C288.465 962.224 288.856 960.409 289.639 959.149C290.422 957.888 291.554 957.257 293.035 957.257ZM289.953 964.594C289.953 966.284 290.107 967.607 290.415 968.563L295.068 959.356C294.579 958.705 293.901 958.38 293.035 958.38C292.071 958.38 291.316 958.892 290.771 959.918C290.226 960.929 289.953 962.488 289.953 964.594ZM293.035 970.807C294.013 970.807 294.775 970.302 295.32 969.29C295.865 968.265 296.137 966.699 296.137 964.594C296.137 962.806 295.963 961.421 295.613 960.437L290.96 969.727C291.463 970.447 292.154 970.807 293.035 970.807Z" fill="url(#paint8_linear_175_194)" fill-opacity="0.6"/>
<path d="M293.035 981.008C294.53 981.008 295.662 981.639 296.431 982.9C297.213 984.147 297.605 985.962 297.605 988.345C297.605 990.728 297.213 992.549 296.431 993.81C295.662 995.071 294.53 995.701 293.035 995.701C291.554 995.701 290.422 995.071 289.639 993.81C288.856 992.549 288.465 990.728 288.465 988.345C288.465 985.975 288.856 984.16 289.639 982.9C290.422 981.639 291.554 981.008 293.035 981.008ZM289.953 988.345C289.953 990.035 290.107 991.358 290.415 992.314L295.068 983.107C294.579 982.456 293.901 982.131 293.035 982.131C292.071 982.131 291.316 982.643 290.771 983.669C290.226 984.68 289.953 986.239 289.953 988.345ZM293.035 994.558C294.013 994.558 294.775 994.053 295.32 993.041C295.865 992.016 296.137 990.451 296.137 988.345C296.137 986.557 295.963 985.172 295.613 984.188L290.96 993.478C291.463 994.198 292.154 994.558 293.035 994.558Z" fill="url(#paint9_linear_175_194)" fill-opacity="0.6"/>
<path d="M294.293 1018.14H297.374V1019.24H289.387V1018.14H292.951V1006.46L289.555 1008.48L288.968 1007.54L293.161 1004.97H294.293V1018.14Z" fill="url(#paint10_linear_175_194)" fill-opacity="0.6"/>
<path d="M293.035 1028.51C294.53 1028.51 295.662 1029.14 296.431 1030.4C297.213 1031.65 297.605 1033.46 297.605 1035.85C297.605 1038.23 297.213 1040.05 296.431 1041.31C295.662 1042.57 294.53 1043.2 293.035 1043.2C291.554 1043.2 290.422 1042.57 289.639 1041.31C288.856 1040.05 288.465 1038.23 288.465 1035.85C288.465 1033.48 288.856 1031.66 289.639 1030.4C290.422 1029.14 291.554 1028.51 293.035 1028.51ZM289.953 1035.85C289.953 1037.54 290.107 1038.86 290.415 1039.82L295.068 1030.61C294.579 1029.96 293.901 1029.63 293.035 1029.63C292.071 1029.63 291.316 1030.15 290.771 1031.17C290.226 1032.18 289.953 1033.74 289.953 1035.85ZM293.035 1042.06C294.013 1042.06 294.775 1041.55 295.32 1040.54C295.865 1039.52 296.137 1037.95 296.137 1035.85C296.137 1034.06 295.963 1032.67 295.613 1031.69L290.96 1040.98C291.463 1041.7 292.154 1042.06 293.035 1042.06Z" fill="url(#paint11_linear_175_194)" fill-opacity="0.6"/>
<path d="M294.293 1065.65H297.374V1066.75H289.387V1065.65H292.951V1053.97L289.555 1055.98L288.968 1055.05L293.161 1052.47H294.293V1065.65Z" fill="url(#paint12_linear_175_194)" fill-opacity="0.6"/>
<path d="M294.293 1089.4H297.374V1090.5H289.387V1089.4H292.951V1077.72L289.555 1079.73L288.968 1078.8L293.161 1076.22H294.293V1089.4Z" fill="url(#paint13_linear_175_194)" fill-opacity="0.6"/>
<path d="M331.965 838.502C333.46 838.502 334.592 839.133 335.361 840.393C336.144 841.64 336.535 843.455 336.535 845.838C336.535 848.221 336.144 850.043 335.361 851.304C334.592 852.565 333.46 853.195 331.965 853.195C330.484 853.195 329.352 852.565 328.569 851.304C327.787 850.043 327.395 848.221 327.395 845.838C327.395 843.469 327.787 841.654 328.569 840.393C329.352 839.133 330.484 838.502 331.965 838.502ZM328.884 845.838C328.884 847.529 329.037 848.852 329.345 849.808L333.998 840.601C333.509 839.95 332.832 839.624 331.965 839.624C331.001 839.624 330.246 840.137 329.701 841.162C329.156 842.174 328.884 843.732 328.884 845.838ZM331.965 852.052C332.943 852.052 333.705 851.546 334.25 850.535C334.795 849.51 335.068 847.944 335.068 845.838C335.068 844.051 334.893 842.665 334.543 841.682L329.89 850.971C330.393 851.692 331.085 852.052 331.965 852.052Z" fill="url(#paint14_linear_175_194)" fill-opacity="0.6"/>
<path d="M333.223 875.637H336.304V876.738H328.318V875.637H331.881V863.957L328.485 865.973L327.898 865.038L332.091 862.461H333.223V875.637Z" fill="url(#paint15_linear_175_194)" fill-opacity="0.6"/>
<path d="M331.965 886.004C333.46 886.004 334.592 886.635 335.361 887.895C336.144 889.142 336.535 890.957 336.535 893.34C336.535 895.723 336.144 897.545 335.361 898.806C334.592 900.067 333.46 900.697 331.965 900.697C330.484 900.697 329.352 900.067 328.569 898.806C327.787 897.545 327.395 895.723 327.395 893.34C327.395 890.971 327.787 889.156 328.569 887.895C329.352 886.635 330.484 886.004 331.965 886.004ZM328.884 893.34C328.884 895.031 329.037 896.354 329.345 897.31L333.998 888.103C333.509 887.452 332.832 887.126 331.965 887.126C331.001 887.126 330.246 887.639 329.701 888.664C329.156 889.676 328.884 891.234 328.884 893.34ZM331.965 899.554C332.943 899.554 333.705 899.049 334.25 898.037C334.795 897.012 335.068 895.446 335.068 893.34C335.068 891.553 334.893 890.168 334.543 889.184L329.89 898.474C330.393 899.194 331.085 899.554 331.965 899.554Z" fill="url(#paint16_linear_175_194)" fill-opacity="0.6"/>
<path d="M331.965 909.755C333.46 909.755 334.592 910.386 335.361 911.646C336.144 912.893 336.535 914.708 336.535 917.091C336.535 919.474 336.144 921.296 335.361 922.557C334.592 923.818 333.46 924.448 331.965 924.448C330.484 924.448 329.352 923.818 328.569 922.557C327.787 921.296 327.395 919.474 327.395 917.091C327.395 914.722 327.787 912.907 328.569 911.646C329.352 910.386 330.484 909.755 331.965 909.755ZM328.884 917.091C328.884 918.782 329.037 920.105 329.345 921.061L333.998 911.854C333.509 911.203 332.832 910.878 331.965 910.878C331.001 910.878 330.246 911.39 329.701 912.415C329.156 913.427 328.884 914.985 328.884 917.091ZM331.965 923.305C332.943 923.305 333.705 922.8 334.25 921.788C334.795 920.763 335.068 919.197 335.068 917.091C335.068 915.304 334.893 913.919 334.543 912.935L329.89 922.225C330.393 922.945 331.085 923.305 331.965 923.305Z" fill="url(#paint17_linear_175_194)" fill-opacity="0.6"/>
<path d="M333.223 946.89H336.304V947.992H328.318V946.89H331.881V935.21L328.485 937.226L327.898 936.291L332.091 933.714H333.223V946.89Z" fill="url(#paint18_linear_175_194)" fill-opacity="0.6"/>
<path d="M331.965 957.257C333.46 957.257 334.592 957.888 335.361 959.149C336.144 960.396 336.535 962.211 336.535 964.594C336.535 966.977 336.144 968.798 335.361 970.059C334.592 971.32 333.46 971.95 331.965 971.95C330.484 971.95 329.352 971.32 328.569 970.059C327.787 968.798 327.395 966.977 327.395 964.594C327.395 962.224 327.787 960.409 328.569 959.149C329.352 957.888 330.484 957.257 331.965 957.257ZM328.884 964.594C328.884 966.284 329.037 967.607 329.345 968.563L333.998 959.356C333.509 958.705 332.832 958.38 331.965 958.38C331.001 958.38 330.246 958.892 329.701 959.918C329.156 960.929 328.884 962.488 328.884 964.594ZM331.965 970.807C332.943 970.807 333.705 970.302 334.25 969.29C334.795 968.265 335.068 966.699 335.068 964.594C335.068 962.806 334.893 961.421 334.543 960.437L329.89 969.727C330.393 970.447 331.085 970.807 331.965 970.807Z" fill="url(#paint19_linear_175_194)" fill-opacity="0.6"/>
<path d="M333.223 994.392H336.304V995.494H328.318V994.392H331.881V982.713L328.485 984.728L327.898 983.793L332.091 981.216H333.223V994.392Z" fill="url(#paint20_linear_175_194)" fill-opacity="0.6"/>
<path d="M331.965 1004.76C333.46 1004.76 334.592 1005.39 335.361 1006.65C336.144 1007.9 336.535 1009.71 336.535 1012.1C336.535 1014.48 336.144 1016.3 335.361 1017.56C334.592 1018.82 333.46 1019.45 331.965 1019.45C330.484 1019.45 329.352 1018.82 328.569 1017.56C327.787 1016.3 327.395 1014.48 327.395 1012.1C327.395 1009.73 327.787 1007.91 328.569 1006.65C329.352 1005.39 330.484 1004.76 331.965 1004.76ZM328.884 1012.1C328.884 1013.79 329.037 1015.11 329.345 1016.07L333.998 1006.86C333.509 1006.21 332.832 1005.88 331.965 1005.88C331.001 1005.88 330.246 1006.39 329.701 1007.42C329.156 1008.43 328.884 1009.99 328.884 1012.1ZM331.965 1018.31C332.943 1018.31 333.705 1017.8 334.25 1016.79C334.795 1015.77 335.068 1014.2 335.068 1012.1C335.068 1010.31 334.893 1008.92 334.543 1007.94L329.89 1017.23C330.393 1017.95 331.085 1018.31 331.965 1018.31Z" fill="url(#paint21_linear_175_194)" fill-opacity="0.6"/>
<path d="M331.965 1028.51C333.46 1028.51 334.592 1029.14 335.361 1030.4C336.144 1031.65 336.535 1033.46 336.535 1035.85C336.535 1038.23 336.144 1040.05 335.361 1041.31C334.592 1042.57 333.46 1043.2 331.965 1043.2C330.484 1043.2 329.352 1042.57 328.569 1041.31C327.787 1040.05 327.395 1038.23 327.395 1035.85C327.395 1033.48 327.787 1031.66 328.569 1030.4C329.352 1029.14 330.484 1028.51 331.965 1028.51ZM328.884 1035.85C328.884 1037.54 329.037 1038.86 329.345 1039.82L333.998 1030.61C333.509 1029.96 332.832 1029.63 331.965 1029.63C331.001 1029.63 330.246 1030.15 329.701 1031.17C329.156 1032.18 328.884 1033.74 328.884 1035.85ZM331.965 1042.06C332.943 1042.06 333.705 1041.55 334.25 1040.54C334.795 1039.52 335.068 1037.95 335.068 1035.85C335.068 1034.06 334.893 1032.67 334.543 1031.69L329.89 1040.98C330.393 1041.7 331.085 1042.06 331.965 1042.06Z" fill="url(#paint22_linear_175_194)" fill-opacity="0.6"/>
<path d="M333.223 1065.65H336.304V1066.75H328.318V1065.65H331.881V1053.97L328.485 1055.98L327.898 1055.05L332.091 1052.47H333.223V1065.65Z" fill="url(#paint23_linear_175_194)" fill-opacity="0.6"/>
<path d="M331.965 1076.01C333.46 1076.01 334.592 1076.64 335.361 1077.9C336.144 1079.15 336.535 1080.97 336.535 1083.35C336.535 1085.73 336.144 1087.55 335.361 1088.81C334.592 1090.08 333.46 1090.71 331.965 1090.71C330.484 1090.71 329.352 1090.08 328.569 1088.81C327.787 1087.55 327.395 1085.73 327.395 1083.35C327.395 1080.98 327.787 1079.16 328.569 1077.9C329.352 1076.64 330.484 1076.01 331.965 1076.01ZM328.884 1083.35C328.884 1085.04 329.037 1086.36 329.345 1087.32L333.998 1078.11C333.509 1077.46 332.832 1077.13 331.965 1077.13C331.001 1077.13 330.246 1077.65 329.701 1078.67C329.156 1079.68 328.884 1081.24 328.884 1083.35ZM331.965 1089.56C332.943 1089.56 333.705 1089.06 334.25 1088.05C334.795 1087.02 335.068 1085.45 335.068 1083.35C335.068 1081.56 334.893 1080.18 334.543 1079.19L329.89 1088.48C330.393 1089.2 331.085 1089.56 331.965 1089.56Z" fill="url(#paint24_linear_175_194)" fill-opacity="0.6"/>
<path d="M333.223 1113.15H336.304V1114.25H328.318V1113.15H331.881V1101.47L328.485 1103.48L327.898 1102.55L332.091 1099.97H333.223V1113.15Z" fill="url(#paint25_linear_175_194)" fill-opacity="0.6"/>
<path d="M333.223 1136.9H336.304V1138H328.318V1136.9H331.881V1125.22L328.485 1127.23L327.898 1126.3L332.091 1123.72H333.223V1136.9Z" fill="url(#paint26_linear_175_194)" fill-opacity="0.6"/>
<path d="M273.57 862.253C275.065 862.253 276.197 862.884 276.966 864.144C277.748 865.391 278.14 867.206 278.14 869.589C278.14 871.972 277.748 873.794 276.966 875.055C276.197 876.316 275.065 876.946 273.57 876.946C272.088 876.946 270.956 876.316 270.174 875.055C269.391 873.794 269 871.972 269 869.589C269 867.22 269.391 865.405 270.174 864.144C270.956 862.884 272.088 862.253 273.57 862.253ZM270.488 869.589C270.488 871.28 270.642 872.603 270.95 873.559L275.603 864.352C275.114 863.701 274.436 863.375 273.57 863.375C272.606 863.375 271.851 863.888 271.306 864.913C270.761 865.925 270.488 867.483 270.488 869.589ZM273.57 875.803C274.548 875.803 275.31 875.297 275.855 874.286C276.4 873.261 276.672 871.695 276.672 869.589C276.672 867.802 276.498 866.417 276.148 865.433L271.495 874.722C271.998 875.443 272.689 875.803 273.57 875.803Z" fill="url(#paint27_linear_175_194)" fill-opacity="0.6"/>
<path d="M273.57 886.004C275.065 886.004 276.197 886.635 276.966 887.895C277.748 889.142 278.14 890.957 278.14 893.34C278.14 895.723 277.748 897.545 276.966 898.806C276.197 900.067 275.065 900.697 273.57 900.697C272.088 900.697 270.956 900.067 270.174 898.806C269.391 897.545 269 895.723 269 893.34C269 890.971 269.391 889.156 270.174 887.895C270.956 886.635 272.088 886.004 273.57 886.004ZM270.488 893.34C270.488 895.031 270.642 896.354 270.95 897.31L275.603 888.103C275.114 887.452 274.436 887.126 273.57 887.126C272.606 887.126 271.851 887.639 271.306 888.664C270.761 889.676 270.488 891.234 270.488 893.34ZM273.57 899.554C274.548 899.554 275.31 899.049 275.855 898.037C276.4 897.012 276.672 895.446 276.672 893.34C276.672 891.553 276.498 890.168 276.148 889.184L271.495 898.474C271.998 899.194 272.689 899.554 273.57 899.554Z" fill="url(#paint28_linear_175_194)" fill-opacity="0.6"/>
<path d="M274.828 923.139H277.909V924.24H269.922V923.139H273.486V911.459L270.09 913.475L269.503 912.54L273.696 909.963H274.828V923.139Z" fill="url(#paint29_linear_175_194)" fill-opacity="0.6"/>
<path d="M273.57 933.506C275.065 933.506 276.197 934.137 276.966 935.398C277.748 936.644 278.14 938.459 278.14 940.842C278.14 943.225 277.748 945.047 276.966 946.308C276.197 947.569 275.065 948.199 273.57 948.199C272.088 948.199 270.956 947.569 270.174 946.308C269.391 945.047 269 943.225 269 940.842C269 938.473 269.391 936.658 270.174 935.398C270.956 934.137 272.088 933.506 273.57 933.506ZM270.488 940.842C270.488 942.533 270.642 943.856 270.95 944.812L275.603 935.605C275.114 934.954 274.436 934.629 273.57 934.629C272.606 934.629 271.851 935.141 271.306 936.166C270.761 937.178 270.488 938.737 270.488 940.842ZM273.57 947.056C274.548 947.056 275.31 946.551 275.855 945.539C276.4 944.514 276.672 942.948 276.672 940.842C276.672 939.055 276.498 937.67 276.148 936.686L271.495 945.976C271.998 946.696 272.689 947.056 273.57 947.056Z" fill="url(#paint30_linear_175_194)" fill-opacity="0.6"/>
<path d="M274.828 970.641H277.909V971.743H269.922V970.641H273.486V958.962L270.09 960.977L269.503 960.042L273.696 957.465H274.828V970.641Z" fill="url(#paint31_linear_175_194)" fill-opacity="0.6"/>
<path d="M274.828 994.392H277.909V995.494H269.922V994.392H273.486V982.713L270.09 984.728L269.503 983.793L273.696 981.216H274.828V994.392Z" fill="url(#paint32_linear_175_194)" fill-opacity="0.6"/>
<path d="M313.758 828.135H316.839V829.236H308.853V828.135H312.416V816.455L309.02 818.471L308.433 817.536L312.626 814.959H313.758V828.135Z" fill="url(#paint33_linear_175_194)" fill-opacity="0.6"/>
<path d="M312.5 838.502C313.995 838.502 315.127 839.133 315.896 840.393C316.679 841.64 317.07 843.455 317.07 845.838C317.07 848.221 316.679 850.043 315.896 851.304C315.127 852.565 313.995 853.195 312.5 853.195C311.019 853.195 309.887 852.565 309.104 851.304C308.321 850.043 307.93 848.221 307.93 845.838C307.93 843.469 308.321 841.654 309.104 840.393C309.887 839.133 311.019 838.502 312.5 838.502ZM309.419 845.838C309.419 847.529 309.572 848.852 309.88 849.808L314.533 840.601C314.044 839.95 313.366 839.624 312.5 839.624C311.536 839.624 310.781 840.137 310.236 841.162C309.691 842.174 309.419 843.732 309.419 845.838ZM312.5 852.052C313.478 852.052 314.24 851.546 314.785 850.535C315.33 849.51 315.602 847.944 315.602 845.838C315.602 844.051 315.428 842.665 315.078 841.682L310.425 850.971C310.928 851.692 311.62 852.052 312.5 852.052Z" fill="url(#paint34_linear_175_194)" fill-opacity="0.6"/>
<path d="M313.758 875.637H316.839V876.738H308.853V875.637H312.416V863.957L309.02 865.973L308.433 865.038L312.626 862.461H313.758V875.637Z" fill="url(#paint35_linear_175_194)" fill-opacity="0.6"/>
<path d="M313.758 899.388H316.839V900.489H308.853V899.388H312.416V887.708L309.02 889.724L308.433 888.789L312.626 886.212H313.758V899.388Z" fill="url(#paint36_linear_175_194)" fill-opacity="0.6"/>
<path d="M312.5 909.755C313.995 909.755 315.127 910.386 315.896 911.646C316.679 912.893 317.07 914.708 317.07 917.091C317.07 919.474 316.679 921.296 315.896 922.557C315.127 923.818 313.995 924.448 312.5 924.448C311.019 924.448 309.887 923.818 309.104 922.557C308.321 921.296 307.93 919.474 307.93 917.091C307.93 914.722 308.321 912.907 309.104 911.646C309.887 910.386 311.019 909.755 312.5 909.755ZM309.419 917.091C309.419 918.782 309.572 920.105 309.88 921.061L314.533 911.854C314.044 911.203 313.366 910.878 312.5 910.878C311.536 910.878 310.781 911.39 310.236 912.415C309.691 913.427 309.419 914.985 309.419 917.091ZM312.5 923.305C313.478 923.305 314.24 922.8 314.785 921.788C315.33 920.763 315.602 919.197 315.602 917.091C315.602 915.304 315.428 913.919 315.078 912.935L310.425 922.225C310.928 922.945 311.62 923.305 312.5 923.305Z" fill="url(#paint37_linear_175_194)" fill-opacity="0.6"/>
<path d="M313.758 946.89H316.839V947.992H308.853V946.89H312.416V935.21L309.02 937.226L308.433 936.291L312.626 933.714H313.758V946.89Z" fill="url(#paint38_linear_175_194)" fill-opacity="0.6"/>
<path d="M313.758 970.641H316.839V971.743H308.853V970.641H312.416V958.962L309.02 960.977L308.433 960.042L312.626 957.465H313.758V970.641Z" fill="url(#paint39_linear_175_194)" fill-opacity="0.6"/>
<path d="M312.5 981.008C313.995 981.008 315.127 981.639 315.896 982.9C316.679 984.147 317.07 985.962 317.07 988.345C317.07 990.728 316.679 992.549 315.896 993.81C315.127 995.071 313.995 995.701 312.5 995.701C311.019 995.701 309.887 995.071 309.104 993.81C308.321 992.549 307.93 990.728 307.93 988.345C307.93 985.975 308.321 984.16 309.104 982.9C309.887 981.639 311.019 981.008 312.5 981.008ZM309.419 988.345C309.419 990.035 309.572 991.358 309.88 992.314L314.533 983.107C314.044 982.456 313.366 982.131 312.5 982.131C311.536 982.131 310.781 982.643 310.236 983.669C309.691 984.68 309.419 986.239 309.419 988.345ZM312.5 994.558C313.478 994.558 314.24 994.053 314.785 993.041C315.33 992.016 315.602 990.451 315.602 988.345C315.602 986.557 315.428 985.172 315.078 984.188L310.425 993.478C310.928 994.198 311.62 994.558 312.5 994.558Z" fill="url(#paint40_linear_175_194)" fill-opacity="0.6"/>
<path d="M313.758 1018.14H316.839V1019.24H308.853V1018.14H312.416V1006.46L309.02 1008.48L308.433 1007.54L312.626 1004.97H313.758V1018.14Z" fill="url(#paint41_linear_175_194)" fill-opacity="0.6"/>
<path d="M312.5 1028.51C313.995 1028.51 315.127 1029.14 315.896 1030.4C316.679 1031.65 317.07 1033.46 317.07 1035.85C317.07 1038.23 316.679 1040.05 315.896 1041.31C315.127 1042.57 313.995 1043.2 312.5 1043.2C311.019 1043.2 309.887 1042.57 309.104 1041.31C308.321 1040.05 307.93 1038.23 307.93 1035.85C307.93 1033.48 308.321 1031.66 309.104 1030.4C309.887 1029.14 311.019 1028.51 312.5 1028.51ZM309.419 1035.85C309.419 1037.54 309.572 1038.86 309.88 1039.82L314.533 1030.61C314.044 1029.96 313.366 1029.63 312.5 1029.63C311.536 1029.63 310.781 1030.15 310.236 1031.17C309.691 1032.18 309.419 1033.74 309.419 1035.85ZM312.5 1042.06C313.478 1042.06 314.24 1041.55 314.785 1040.54C315.33 1039.52 315.602 1037.95 315.602 1035.85C315.602 1034.06 315.428 1032.67 315.078 1031.69L310.425 1040.98C310.928 1041.7 311.62 1042.06 312.5 1042.06Z" fill="url(#paint42_linear_175_194)" fill-opacity="0.6"/>
<path d="M351.43 814.751C352.926 814.751 354.057 815.381 354.826 816.642C355.609 817.889 356 819.704 356 822.087C356 824.47 355.609 826.292 354.826 827.553C354.057 828.814 352.926 829.444 351.43 829.444C349.949 829.444 348.817 828.814 348.034 827.553C347.252 826.292 346.86 824.47 346.86 822.087C346.86 819.718 347.252 817.903 348.034 816.642C348.817 815.381 349.949 814.751 351.43 814.751ZM348.349 822.087C348.349 823.777 348.502 825.101 348.81 826.057L353.464 816.85C352.974 816.199 352.297 815.873 351.43 815.873C350.466 815.873 349.711 816.386 349.166 817.411C348.621 818.423 348.349 819.981 348.349 822.087ZM351.43 828.301C352.408 828.301 353.17 827.795 353.715 826.784C354.26 825.759 354.533 824.193 354.533 822.087C354.533 820.3 354.358 818.914 354.009 817.931L349.355 827.22C349.858 827.941 350.55 828.301 351.43 828.301Z" fill="url(#paint43_linear_175_194)" fill-opacity="0.6"/>
<path d="M352.688 851.886H355.769V852.987H347.783V851.886H351.346V840.206L347.95 842.222L347.363 841.287L351.556 838.71H352.688V851.886Z" fill="url(#paint44_linear_175_194)" fill-opacity="0.6"/>
<path d="M352.688 875.637H355.769V876.738H347.783V875.637H351.346V863.957L347.95 865.973L347.363 865.038L351.556 862.461H352.688V875.637Z" fill="url(#paint45_linear_175_194)" fill-opacity="0.6"/>
<path d="M351.43 886.004C352.926 886.004 354.057 886.635 354.826 887.895C355.609 889.142 356 890.957 356 893.34C356 895.723 355.609 897.545 354.826 898.806C354.057 900.067 352.926 900.697 351.43 900.697C349.949 900.697 348.817 900.067 348.034 898.806C347.252 897.545 346.86 895.723 346.86 893.34C346.86 890.971 347.252 889.156 348.034 887.895C348.817 886.635 349.949 886.004 351.43 886.004ZM348.349 893.34C348.349 895.031 348.502 896.354 348.81 897.31L353.464 888.103C352.974 887.452 352.297 887.126 351.43 887.126C350.466 887.126 349.711 887.639 349.166 888.664C348.621 889.676 348.349 891.234 348.349 893.34ZM351.43 899.554C352.408 899.554 353.17 899.049 353.715 898.037C354.26 897.012 354.533 895.446 354.533 893.34C354.533 891.553 354.358 890.168 354.009 889.184L349.355 898.474C349.858 899.194 350.55 899.554 351.43 899.554Z" fill="url(#paint46_linear_175_194)" fill-opacity="0.6"/>
<path d="M351.43 909.755C352.926 909.755 354.057 910.386 354.826 911.646C355.609 912.893 356 914.708 356 917.091C356 919.474 355.609 921.296 354.826 922.557C354.057 923.818 352.926 924.448 351.43 924.448C349.949 924.448 348.817 923.818 348.034 922.557C347.252 921.296 346.86 919.474 346.86 917.091C346.86 914.722 347.252 912.907 348.034 911.646C348.817 910.386 349.949 909.755 351.43 909.755ZM348.349 917.091C348.349 918.782 348.502 920.105 348.81 921.061L353.464 911.854C352.974 911.203 352.297 910.878 351.43 910.878C350.466 910.878 349.711 911.39 349.166 912.415C348.621 913.427 348.349 914.985 348.349 917.091ZM351.43 923.305C352.408 923.305 353.17 922.8 353.715 921.788C354.26 920.763 354.533 919.197 354.533 917.091C354.533 915.304 354.358 913.919 354.009 912.935L349.355 922.225C349.858 922.945 350.55 923.305 351.43 923.305Z" fill="url(#paint47_linear_175_194)" fill-opacity="0.6"/>
<g opacity="0.6">
<path d="M1092.93 559C1094.36 559 1095.44 559.605 1096.17 560.815C1096.92 562.011 1097.29 563.753 1097.29 566.04C1097.29 568.327 1096.92 570.075 1096.17 571.285C1095.44 572.495 1094.36 573.1 1092.93 573.1C1091.52 573.1 1090.44 572.495 1089.69 571.285C1088.94 570.075 1088.57 568.327 1088.57 566.04C1088.57 563.767 1088.94 562.025 1089.69 560.815C1090.44 559.605 1091.52 559 1092.93 559ZM1089.99 566.04C1089.99 567.662 1090.14 568.932 1090.43 569.849L1094.87 561.014C1094.4 560.389 1093.76 560.077 1092.93 560.077C1092.01 560.077 1091.29 560.569 1090.77 561.553C1090.25 562.523 1089.99 564.019 1089.99 566.04ZM1092.93 572.003C1093.86 572.003 1094.59 571.518 1095.11 570.547C1095.63 569.564 1095.89 568.061 1095.89 566.04C1095.89 564.325 1095.72 562.995 1095.39 562.051L1090.95 570.966C1091.43 571.658 1092.09 572.003 1092.93 572.003Z" fill="url(#paint48_linear_175_194)"/>
<path d="M1094.13 594.637H1097.07V595.694H1089.45V594.637H1092.85V583.428L1089.61 585.363L1089.05 584.465L1093.05 581.992H1094.13V594.637Z" fill="url(#paint49_linear_175_194)"/>
<path d="M1092.93 604.586C1094.36 604.586 1095.44 605.191 1096.17 606.4C1096.92 607.597 1097.29 609.339 1097.29 611.626C1097.29 613.913 1096.92 615.661 1096.17 616.871C1095.44 618.081 1094.36 618.686 1092.93 618.686C1091.52 618.686 1090.44 618.081 1089.69 616.871C1088.94 615.661 1088.57 613.913 1088.57 611.626C1088.57 609.352 1088.94 607.61 1089.69 606.4C1090.44 605.191 1091.52 604.586 1092.93 604.586ZM1089.99 611.626C1089.99 613.248 1090.14 614.518 1090.43 615.435L1094.87 606.6C1094.4 605.975 1093.76 605.663 1092.93 605.663C1092.01 605.663 1091.29 606.155 1090.77 607.138C1090.25 608.109 1089.99 609.605 1089.99 611.626ZM1092.93 617.589C1093.86 617.589 1094.59 617.104 1095.11 616.133C1095.63 615.149 1095.89 613.647 1095.89 611.626C1095.89 609.911 1095.72 608.581 1095.39 607.637L1090.95 616.552C1091.43 617.243 1092.09 617.589 1092.93 617.589Z" fill="url(#paint50_linear_175_194)"/>
<path d="M1094.13 640.222H1097.07V641.279H1089.45V640.222H1092.85V629.014L1089.61 630.948L1089.05 630.051L1093.05 627.578H1094.13V640.222Z" fill="url(#paint51_linear_175_194)"/>
<path d="M1094.13 663.015H1097.07V664.072H1089.45V663.015H1092.85V651.807L1089.61 653.741L1089.05 652.844L1093.05 650.371H1094.13V663.015Z" fill="url(#paint52_linear_175_194)"/>
<path d="M1092.93 672.964C1094.36 672.964 1095.44 673.569 1096.17 674.779C1096.92 675.976 1097.29 677.717 1097.29 680.004C1097.29 682.291 1096.92 684.039 1096.17 685.249C1095.44 686.459 1094.36 687.064 1092.93 687.064C1091.52 687.064 1090.44 686.459 1089.69 685.249C1088.94 684.039 1088.57 682.291 1088.57 680.004C1088.57 677.731 1088.94 675.989 1089.69 674.779C1090.44 673.569 1091.52 672.964 1092.93 672.964ZM1089.99 680.004C1089.99 681.626 1090.14 682.896 1090.43 683.813L1094.87 674.978C1094.4 674.353 1093.76 674.041 1092.93 674.041C1092.01 674.041 1091.29 674.533 1090.77 675.517C1090.25 676.487 1089.99 677.983 1089.99 680.004ZM1092.93 685.967C1093.86 685.967 1094.59 685.482 1095.11 684.511C1095.63 683.528 1095.89 682.025 1095.89 680.004C1095.89 678.289 1095.72 676.959 1095.39 676.015L1090.95 684.93C1091.43 685.622 1092.09 685.967 1092.93 685.967Z" fill="url(#paint53_linear_175_194)"/>
<path d="M1094.13 708.601H1097.07V709.658H1089.45V708.601H1092.85V697.392L1089.61 699.327L1089.05 698.429L1093.05 695.956H1094.13V708.601Z" fill="url(#paint54_linear_175_194)"/>
<path d="M1092.93 718.55C1094.36 718.55 1095.44 719.155 1096.17 720.365C1096.92 721.561 1097.29 723.303 1097.29 725.59C1097.29 727.877 1096.92 729.625 1096.17 730.835C1095.44 732.045 1094.36 732.65 1092.93 732.65C1091.52 732.65 1090.44 732.045 1089.69 730.835C1088.94 729.625 1088.57 727.877 1088.57 725.59C1088.57 723.316 1088.94 721.574 1089.69 720.365C1090.44 719.155 1091.52 718.55 1092.93 718.55ZM1089.99 725.59C1089.99 727.212 1090.14 728.482 1090.43 729.399L1094.87 720.564C1094.4 719.939 1093.76 719.627 1092.93 719.627C1092.01 719.627 1091.29 720.119 1090.77 721.102C1090.25 722.073 1089.99 723.569 1089.99 725.59ZM1092.93 731.553C1093.86 731.553 1094.59 731.068 1095.11 730.097C1095.63 729.113 1095.89 727.611 1095.89 725.59C1095.89 723.875 1095.72 722.545 1095.39 721.601L1090.95 730.516C1091.43 731.207 1092.09 731.553 1092.93 731.553Z" fill="url(#paint55_linear_175_194)"/>
<path d="M1092.93 741.342C1094.36 741.342 1095.44 741.947 1096.17 743.157C1096.92 744.354 1097.29 746.096 1097.29 748.383C1097.29 750.669 1096.92 752.418 1096.17 753.628C1095.44 754.838 1094.36 755.443 1092.93 755.443C1091.52 755.443 1090.44 754.838 1089.69 753.628C1088.94 752.418 1088.57 750.669 1088.57 748.383C1088.57 746.109 1088.94 744.367 1089.69 743.157C1090.44 741.947 1091.52 741.342 1092.93 741.342ZM1089.99 748.383C1089.99 750.005 1090.14 751.274 1090.43 752.192L1094.87 743.357C1094.4 742.732 1093.76 742.419 1092.93 742.419C1092.01 742.419 1091.29 742.911 1090.77 743.895C1090.25 744.866 1089.99 746.362 1089.99 748.383ZM1092.93 754.346C1093.86 754.346 1094.59 753.86 1095.11 752.89C1095.63 751.906 1095.89 750.404 1095.89 748.383C1095.89 746.667 1095.72 745.338 1095.39 744.394L1090.95 753.309C1091.43 754 1092.09 754.346 1092.93 754.346Z" fill="url(#paint56_linear_175_194)"/>
<path d="M1094.13 776.979H1097.07V778.036H1089.45V776.979H1092.85V765.771L1089.61 767.705L1089.05 766.808L1093.05 764.335H1094.13V776.979Z" fill="url(#paint57_linear_175_194)"/>
<path d="M1092.93 786.928C1094.36 786.928 1095.44 787.533 1096.17 788.743C1096.92 789.94 1097.29 791.681 1097.29 793.968C1097.29 796.255 1096.92 798.003 1096.17 799.213C1095.44 800.423 1094.36 801.028 1092.93 801.028C1091.52 801.028 1090.44 800.423 1089.69 799.213C1088.94 798.003 1088.57 796.255 1088.57 793.968C1088.57 791.695 1088.94 789.953 1089.69 788.743C1090.44 787.533 1091.52 786.928 1092.93 786.928ZM1089.99 793.968C1089.99 795.59 1090.14 796.86 1090.43 797.777L1094.87 788.942C1094.4 788.317 1093.76 788.005 1092.93 788.005C1092.01 788.005 1091.29 788.497 1090.77 789.481C1090.25 790.451 1089.99 791.947 1089.99 793.968ZM1092.93 799.931C1093.86 799.931 1094.59 799.446 1095.11 798.475C1095.63 797.492 1095.89 795.989 1095.89 793.968C1095.89 792.253 1095.72 790.923 1095.39 789.979L1090.95 798.894C1091.43 799.586 1092.09 799.931 1092.93 799.931Z" fill="url(#paint58_linear_175_194)"/>
<path d="M1094.13 822.565H1097.07V823.622H1089.45V822.565H1092.85V811.356L1089.61 813.291L1089.05 812.393L1093.05 809.92H1094.13V822.565Z" fill="url(#paint59_linear_175_194)"/>
<path d="M1094.13 845.357H1097.07V846.414H1089.45V845.357H1092.85V834.149L1089.61 836.084L1089.05 835.186L1093.05 832.713H1094.13V845.357Z" fill="url(#paint60_linear_175_194)"/>
<path d="M1130.07 604.586C1131.5 604.586 1132.58 605.191 1133.31 606.4C1134.06 607.597 1134.43 609.339 1134.43 611.626C1134.43 613.913 1134.06 615.661 1133.31 616.871C1132.58 618.081 1131.5 618.686 1130.07 618.686C1128.66 618.686 1127.58 618.081 1126.83 616.871C1126.08 615.661 1125.71 613.913 1125.71 611.626C1125.71 609.352 1126.08 607.61 1126.83 606.4C1127.58 605.191 1128.66 604.586 1130.07 604.586ZM1127.13 611.626C1127.13 613.248 1127.28 614.518 1127.57 615.435L1132.01 606.6C1131.54 605.975 1130.9 605.663 1130.07 605.663C1129.15 605.663 1128.43 606.155 1127.91 607.138C1127.39 608.109 1127.13 609.605 1127.13 611.626ZM1130.07 617.589C1131 617.589 1131.73 617.104 1132.25 616.133C1132.77 615.149 1133.03 613.647 1133.03 611.626C1133.03 609.911 1132.86 608.581 1132.53 607.637L1128.09 616.552C1128.57 617.243 1129.23 617.589 1130.07 617.589Z" fill="url(#paint61_linear_175_194)"/>
<path d="M1131.27 640.222H1134.21V641.279H1126.59V640.222H1129.99V629.014L1126.75 630.948L1126.19 630.051L1130.19 627.578H1131.27V640.222Z" fill="url(#paint62_linear_175_194)"/>
<path d="M1130.07 650.171C1131.5 650.171 1132.58 650.776 1133.31 651.986C1134.06 653.183 1134.43 654.924 1134.43 657.211C1134.43 659.498 1134.06 661.247 1133.31 662.457C1132.58 663.666 1131.5 664.271 1130.07 664.271C1128.66 664.271 1127.58 663.666 1126.83 662.457C1126.08 661.247 1125.71 659.498 1125.71 657.211C1125.71 654.938 1126.08 653.196 1126.83 651.986C1127.58 650.776 1128.66 650.171 1130.07 650.171ZM1127.13 657.211C1127.13 658.833 1127.28 660.103 1127.57 661.021L1132.01 652.186C1131.54 651.561 1130.9 651.248 1130.07 651.248C1129.15 651.248 1128.43 651.74 1127.91 652.724C1127.39 653.695 1127.13 655.19 1127.13 657.211ZM1130.07 663.174C1131 663.174 1131.73 662.689 1132.25 661.719C1132.77 660.735 1133.03 659.232 1133.03 657.211C1133.03 655.496 1132.86 654.167 1132.53 653.223L1128.09 662.137C1128.57 662.829 1129.23 663.174 1130.07 663.174Z" fill="url(#paint63_linear_175_194)"/>
<path d="M1130.07 672.964C1131.5 672.964 1132.58 673.569 1133.31 674.779C1134.06 675.976 1134.43 677.717 1134.43 680.004C1134.43 682.291 1134.06 684.039 1133.31 685.249C1132.58 686.459 1131.5 687.064 1130.07 687.064C1128.66 687.064 1127.58 686.459 1126.83 685.249C1126.08 684.039 1125.71 682.291 1125.71 680.004C1125.71 677.731 1126.08 675.989 1126.83 674.779C1127.58 673.569 1128.66 672.964 1130.07 672.964ZM1127.13 680.004C1127.13 681.626 1127.28 682.896 1127.57 683.813L1132.01 674.978C1131.54 674.353 1130.9 674.041 1130.07 674.041C1129.15 674.041 1128.43 674.533 1127.91 675.517C1127.39 676.487 1127.13 677.983 1127.13 680.004ZM1130.07 685.967C1131 685.967 1131.73 685.482 1132.25 684.511C1132.77 683.528 1133.03 682.025 1133.03 680.004C1133.03 678.289 1132.86 676.959 1132.53 676.015L1128.09 684.93C1128.57 685.622 1129.23 685.967 1130.07 685.967Z" fill="url(#paint64_linear_175_194)"/>
<path d="M1131.27 708.601H1134.21V709.658H1126.59V708.601H1129.99V697.392L1126.75 699.327L1126.19 698.429L1130.19 695.956H1131.27V708.601Z" fill="url(#paint65_linear_175_194)"/>
<path d="M1130.07 718.55C1131.5 718.55 1132.58 719.155 1133.31 720.365C1134.06 721.561 1134.43 723.303 1134.43 725.59C1134.43 727.877 1134.06 729.625 1133.31 730.835C1132.58 732.045 1131.5 732.65 1130.07 732.65C1128.66 732.65 1127.58 732.045 1126.83 730.835C1126.08 729.625 1125.71 727.877 1125.71 725.59C1125.71 723.316 1126.08 721.574 1126.83 720.365C1127.58 719.155 1128.66 718.55 1130.07 718.55ZM1127.13 725.59C1127.13 727.212 1127.28 728.482 1127.57 729.399L1132.01 720.564C1131.54 719.939 1130.9 719.627 1130.07 719.627C1129.15 719.627 1128.43 720.119 1127.91 721.102C1127.39 722.073 1127.13 723.569 1127.13 725.59ZM1130.07 731.553C1131 731.553 1131.73 731.068 1132.25 730.097C1132.77 729.113 1133.03 727.611 1133.03 725.59C1133.03 723.875 1132.86 722.545 1132.53 721.601L1128.09 730.516C1128.57 731.207 1129.23 731.553 1130.07 731.553Z" fill="url(#paint66_linear_175_194)"/>
<path d="M1131.27 754.186H1134.21V755.243H1126.59V754.186H1129.99V742.978L1126.75 744.912L1126.19 744.015L1130.19 741.542H1131.27V754.186Z" fill="url(#paint67_linear_175_194)"/>
<path d="M1130.07 764.135C1131.5 764.135 1132.58 764.74 1133.31 765.95C1134.06 767.147 1134.43 768.888 1134.43 771.175C1134.43 773.462 1134.06 775.211 1133.31 776.421C1132.58 777.63 1131.5 778.235 1130.07 778.235C1128.66 778.235 1127.58 777.63 1126.83 776.421C1126.08 775.211 1125.71 773.462 1125.71 771.175C1125.71 768.902 1126.08 767.16 1126.83 765.95C1127.58 764.74 1128.66 764.135 1130.07 764.135ZM1127.13 771.175C1127.13 772.797 1127.28 774.067 1127.57 774.985L1132.01 766.15C1131.54 765.525 1130.9 765.212 1130.07 765.212C1129.15 765.212 1128.43 765.704 1127.91 766.688C1127.39 767.659 1127.13 769.154 1127.13 771.175ZM1130.07 777.139C1131 777.139 1131.73 776.653 1132.25 775.683C1132.77 774.699 1133.03 773.196 1133.03 771.175C1133.03 769.46 1132.86 768.131 1132.53 767.187L1128.09 776.101C1128.57 776.793 1129.23 777.139 1130.07 777.139Z" fill="url(#paint68_linear_175_194)"/>
<path d="M1130.07 786.928C1131.5 786.928 1132.58 787.533 1133.31 788.743C1134.06 789.94 1134.43 791.681 1134.43 793.968C1134.43 796.255 1134.06 798.003 1133.31 799.213C1132.58 800.423 1131.5 801.028 1130.07 801.028C1128.66 801.028 1127.58 800.423 1126.83 799.213C1126.08 798.003 1125.71 796.255 1125.71 793.968C1125.71 791.695 1126.08 789.953 1126.83 788.743C1127.58 787.533 1128.66 786.928 1130.07 786.928ZM1127.13 793.968C1127.13 795.59 1127.28 796.86 1127.57 797.777L1132.01 788.942C1131.54 788.317 1130.9 788.005 1130.07 788.005C1129.15 788.005 1128.43 788.497 1127.91 789.481C1127.39 790.451 1127.13 791.947 1127.13 793.968ZM1130.07 799.931C1131 799.931 1131.73 799.446 1132.25 798.475C1132.77 797.492 1133.03 795.989 1133.03 793.968C1133.03 792.253 1132.86 790.923 1132.53 789.979L1128.09 798.894C1128.57 799.586 1129.23 799.931 1130.07 799.931Z" fill="url(#paint69_linear_175_194)"/>
<path d="M1131.27 822.565H1134.21V823.622H1126.59V822.565H1129.99V811.356L1126.75 813.291L1126.19 812.393L1130.19 809.92H1131.27V822.565Z" fill="url(#paint70_linear_175_194)"/>
<path d="M1130.07 832.514C1131.5 832.514 1132.58 833.119 1133.31 834.329C1134.06 835.525 1134.43 837.267 1134.43 839.554C1134.43 841.841 1134.06 843.589 1133.31 844.799C1132.58 846.009 1131.5 846.614 1130.07 846.614C1128.66 846.614 1127.58 846.009 1126.83 844.799C1126.08 843.589 1125.71 841.841 1125.71 839.554C1125.71 837.28 1126.08 835.538 1126.83 834.329C1127.58 833.119 1128.66 832.514 1130.07 832.514ZM1127.13 839.554C1127.13 841.176 1127.28 842.446 1127.57 843.363L1132.01 834.528C1131.54 833.903 1130.9 833.591 1130.07 833.591C1129.15 833.591 1128.43 834.083 1127.91 835.066C1127.39 836.037 1127.13 837.533 1127.13 839.554ZM1130.07 845.517C1131 845.517 1131.73 845.032 1132.25 844.061C1132.77 843.077 1133.03 841.575 1133.03 839.554C1133.03 837.839 1132.86 836.509 1132.53 835.565L1128.09 844.48C1128.57 845.171 1129.23 845.517 1130.07 845.517Z" fill="url(#paint71_linear_175_194)"/>
<path d="M1131.27 868.15H1134.21V869.207H1126.59V868.15H1129.99V856.942L1126.75 858.876L1126.19 857.979L1130.19 855.506H1131.27V868.15Z" fill="url(#paint72_linear_175_194)"/>
<path d="M1131.27 890.943H1134.21V892H1126.59V890.943H1129.99V879.735L1126.75 881.669L1126.19 880.772L1130.19 878.299H1131.27V890.943Z" fill="url(#paint73_linear_175_194)"/>
<path d="M1074.36 627.378C1075.79 627.378 1076.87 627.983 1077.6 629.193C1078.35 630.39 1078.72 632.132 1078.72 634.419C1078.72 636.705 1078.35 638.454 1077.6 639.664C1076.87 640.874 1075.79 641.479 1074.36 641.479C1072.95 641.479 1071.87 640.874 1071.12 639.664C1070.37 638.454 1070 636.705 1070 634.419C1070 632.145 1070.37 630.403 1071.12 629.193C1071.87 627.983 1072.95 627.378 1074.36 627.378ZM1071.42 634.419C1071.42 636.041 1071.57 637.31 1071.86 638.228L1076.3 629.393C1075.83 628.768 1075.19 628.455 1074.36 628.455C1073.44 628.455 1072.72 628.947 1072.2 629.931C1071.68 630.902 1071.42 632.398 1071.42 634.419ZM1074.36 640.382C1075.29 640.382 1076.02 639.896 1076.54 638.926C1077.06 637.942 1077.32 636.44 1077.32 634.419C1077.32 632.703 1077.15 631.374 1076.82 630.43L1072.38 639.345C1072.86 640.036 1073.52 640.382 1074.36 640.382Z" fill="url(#paint74_linear_175_194)"/>
<path d="M1074.36 650.171C1075.79 650.171 1076.87 650.776 1077.6 651.986C1078.35 653.183 1078.72 654.924 1078.72 657.211C1078.72 659.498 1078.35 661.247 1077.6 662.457C1076.87 663.666 1075.79 664.271 1074.36 664.271C1072.95 664.271 1071.87 663.666 1071.12 662.457C1070.37 661.247 1070 659.498 1070 657.211C1070 654.938 1070.37 653.196 1071.12 651.986C1071.87 650.776 1072.95 650.171 1074.36 650.171ZM1071.42 657.211C1071.42 658.833 1071.57 660.103 1071.86 661.021L1076.3 652.186C1075.83 651.561 1075.19 651.248 1074.36 651.248C1073.44 651.248 1072.72 651.74 1072.2 652.724C1071.68 653.695 1071.42 655.19 1071.42 657.211ZM1074.36 663.174C1075.29 663.174 1076.02 662.689 1076.54 661.719C1077.06 660.735 1077.32 659.232 1077.32 657.211C1077.32 655.496 1077.15 654.167 1076.82 653.223L1072.38 662.137C1072.86 662.829 1073.52 663.174 1074.36 663.174Z" fill="url(#paint75_linear_175_194)"/>
<path d="M1075.56 685.808H1078.5V686.865H1070.88V685.808H1074.28V674.599L1071.04 676.534L1070.48 675.636L1074.48 673.163H1075.56V685.808Z" fill="url(#paint76_linear_175_194)"/>
<path d="M1074.36 695.757C1075.79 695.757 1076.87 696.362 1077.6 697.572C1078.35 698.768 1078.72 700.51 1078.72 702.797C1078.72 705.084 1078.35 706.832 1077.6 708.042C1076.87 709.252 1075.79 709.857 1074.36 709.857C1072.95 709.857 1071.87 709.252 1071.12 708.042C1070.37 706.832 1070 705.084 1070 702.797C1070 700.523 1070.37 698.782 1071.12 697.572C1071.87 696.362 1072.95 695.757 1074.36 695.757ZM1071.42 702.797C1071.42 704.419 1071.57 705.689 1071.86 706.606L1076.3 697.771C1075.83 697.146 1075.19 696.834 1074.36 696.834C1073.44 696.834 1072.72 697.326 1072.2 698.31C1071.68 699.28 1071.42 700.776 1071.42 702.797ZM1074.36 708.76C1075.29 708.76 1076.02 708.275 1076.54 707.304C1077.06 706.32 1077.32 704.818 1077.32 702.797C1077.32 701.082 1077.15 699.752 1076.82 698.808L1072.38 707.723C1072.86 708.414 1073.52 708.76 1074.36 708.76Z" fill="url(#paint77_linear_175_194)"/>
<path d="M1075.56 731.393H1078.5V732.45H1070.88V731.393H1074.28V720.185L1071.04 722.12L1070.48 721.222L1074.48 718.749H1075.56V731.393Z" fill="url(#paint78_linear_175_194)"/>
<path d="M1075.56 754.186H1078.5V755.243H1070.88V754.186H1074.28V742.978L1071.04 744.912L1070.48 744.015L1074.48 741.542H1075.56V754.186Z" fill="url(#paint79_linear_175_194)"/>
<path d="M1112.7 594.637H1115.64V595.694H1108.02V594.637H1111.42V583.428L1108.18 585.363L1107.62 584.465L1111.62 581.992H1112.7V594.637Z" fill="url(#paint80_linear_175_194)"/>
<path d="M1111.5 604.586C1112.93 604.586 1114.01 605.191 1114.74 606.4C1115.49 607.597 1115.86 609.339 1115.86 611.626C1115.86 613.913 1115.49 615.661 1114.74 616.871C1114.01 618.081 1112.93 618.686 1111.5 618.686C1110.09 618.686 1109.01 618.081 1108.26 616.871C1107.51 615.661 1107.14 613.913 1107.14 611.626C1107.14 609.352 1107.51 607.61 1108.26 606.4C1109.01 605.191 1110.09 604.586 1111.5 604.586ZM1108.56 611.626C1108.56 613.248 1108.71 614.518 1109 615.435L1113.44 606.6C1112.97 605.975 1112.33 605.663 1111.5 605.663C1110.58 605.663 1109.86 606.155 1109.34 607.138C1108.82 608.109 1108.56 609.605 1108.56 611.626ZM1111.5 617.589C1112.43 617.589 1113.16 617.104 1113.68 616.133C1114.2 615.149 1114.46 613.647 1114.46 611.626C1114.46 609.911 1114.29 608.581 1113.96 607.637L1109.52 616.552C1110 617.243 1110.66 617.589 1111.5 617.589Z" fill="url(#paint81_linear_175_194)"/>
<path d="M1112.7 640.222H1115.64V641.279H1108.02V640.222H1111.42V629.014L1108.18 630.948L1107.62 630.051L1111.62 627.578H1112.7V640.222Z" fill="url(#paint82_linear_175_194)"/>
<path d="M1112.7 663.015H1115.64V664.072H1108.02V663.015H1111.42V651.807L1108.18 653.741L1107.62 652.844L1111.62 650.371H1112.7V663.015Z" fill="url(#paint83_linear_175_194)"/>
<path d="M1111.5 672.964C1112.93 672.964 1114.01 673.569 1114.74 674.779C1115.49 675.976 1115.86 677.717 1115.86 680.004C1115.86 682.291 1115.49 684.039 1114.74 685.249C1114.01 686.459 1112.93 687.064 1111.5 687.064C1110.09 687.064 1109.01 686.459 1108.26 685.249C1107.51 684.039 1107.14 682.291 1107.14 680.004C1107.14 677.731 1107.51 675.989 1108.26 674.779C1109.01 673.569 1110.09 672.964 1111.5 672.964ZM1108.56 680.004C1108.56 681.626 1108.71 682.896 1109 683.813L1113.44 674.978C1112.97 674.353 1112.33 674.041 1111.5 674.041C1110.58 674.041 1109.86 674.533 1109.34 675.517C1108.82 676.487 1108.56 677.983 1108.56 680.004ZM1111.5 685.967C1112.43 685.967 1113.16 685.482 1113.68 684.511C1114.2 683.528 1114.46 682.025 1114.46 680.004C1114.46 678.289 1114.29 676.959 1113.96 676.015L1109.52 684.93C1110 685.622 1110.66 685.967 1111.5 685.967Z" fill="url(#paint84_linear_175_194)"/>
<path d="M1112.7 708.601H1115.64V709.658H1108.02V708.601H1111.42V697.392L1108.18 699.327L1107.62 698.429L1111.62 695.956H1112.7V708.601Z" fill="url(#paint85_linear_175_194)"/>
<path d="M1112.7 731.393H1115.64V732.45H1108.02V731.393H1111.42V720.185L1108.18 722.12L1107.62 721.222L1111.62 718.749H1112.7V731.393Z" fill="url(#paint86_linear_175_194)"/>
<path d="M1111.5 741.342C1112.93 741.342 1114.01 741.947 1114.74 743.157C1115.49 744.354 1115.86 746.096 1115.86 748.383C1115.86 750.669 1115.49 752.418 1114.74 753.628C1114.01 754.838 1112.93 755.443 1111.5 755.443C1110.09 755.443 1109.01 754.838 1108.26 753.628C1107.51 752.418 1107.14 750.669 1107.14 748.383C1107.14 746.109 1107.51 744.367 1108.26 743.157C1109.01 741.947 1110.09 741.342 1111.5 741.342ZM1108.56 748.383C1108.56 750.005 1108.71 751.274 1109 752.192L1113.44 743.357C1112.97 742.732 1112.33 742.419 1111.5 742.419C1110.58 742.419 1109.86 742.911 1109.34 743.895C1108.82 744.866 1108.56 746.362 1108.56 748.383ZM1111.5 754.346C1112.43 754.346 1113.16 753.86 1113.68 752.89C1114.2 751.906 1114.46 750.404 1114.46 748.383C1114.46 746.667 1114.29 745.338 1113.96 744.394L1109.52 753.309C1110 754 1110.66 754.346 1111.5 754.346Z" fill="url(#paint87_linear_175_194)"/>
<path d="M1112.7 776.979H1115.64V778.036H1108.02V776.979H1111.42V765.771L1108.18 767.705L1107.62 766.808L1111.62 764.335H1112.7V776.979Z" fill="url(#paint88_linear_175_194)"/>
<path d="M1111.5 786.928C1112.93 786.928 1114.01 787.533 1114.74 788.743C1115.49 789.94 1115.86 791.681 1115.86 793.968C1115.86 796.255 1115.49 798.003 1114.74 799.213C1114.01 800.423 1112.93 801.028 1111.5 801.028C1110.09 801.028 1109.01 800.423 1108.26 799.213C1107.51 798.003 1107.14 796.255 1107.14 793.968C1107.14 791.695 1107.51 789.953 1108.26 788.743C1109.01 787.533 1110.09 786.928 1111.5 786.928ZM1108.56 793.968C1108.56 795.59 1108.71 796.86 1109 797.777L1113.44 788.942C1112.97 788.317 1112.33 788.005 1111.5 788.005C1110.58 788.005 1109.86 788.497 1109.34 789.481C1108.82 790.451 1108.56 791.947 1108.56 793.968ZM1111.5 799.931C1112.43 799.931 1113.16 799.446 1113.68 798.475C1114.2 797.492 1114.46 795.989 1114.46 793.968C1114.46 792.253 1114.29 790.923 1113.96 789.979L1109.52 798.894C1110 799.586 1110.66 799.931 1111.5 799.931Z" fill="url(#paint89_linear_175_194)"/>
<path d="M1148.64 581.793C1150.07 581.793 1151.15 582.398 1151.88 583.608C1152.63 584.804 1153 586.546 1153 588.833C1153 591.12 1152.63 592.868 1151.88 594.078C1151.15 595.288 1150.07 595.893 1148.64 595.893C1147.23 595.893 1146.15 595.288 1145.4 594.078C1144.65 592.868 1144.28 591.12 1144.28 588.833C1144.28 586.559 1144.65 584.818 1145.4 583.608C1146.15 582.398 1147.23 581.793 1148.64 581.793ZM1145.7 588.833C1145.7 590.455 1145.85 591.725 1146.14 592.642L1150.58 583.807C1150.11 583.182 1149.47 582.87 1148.64 582.87C1147.72 582.87 1147 583.362 1146.48 584.346C1145.96 585.316 1145.7 586.812 1145.7 588.833ZM1148.64 594.796C1149.57 594.796 1150.3 594.311 1150.82 593.34C1151.34 592.356 1151.6 590.854 1151.6 588.833C1151.6 587.118 1151.43 585.788 1151.1 584.844L1146.66 593.759C1147.14 594.45 1147.8 594.796 1148.64 594.796Z" fill="url(#paint90_linear_175_194)"/>
<path d="M1149.84 617.429H1152.78V618.486H1145.16V617.429H1148.56V606.221L1145.32 608.156L1144.76 607.258L1148.76 604.785H1149.84V617.429Z" fill="url(#paint91_linear_175_194)"/>
<path d="M1149.84 640.222H1152.78V641.279H1145.16V640.222H1148.56V629.014L1145.32 630.948L1144.76 630.051L1148.76 627.578H1149.84V640.222Z" fill="url(#paint92_linear_175_194)"/>
<path d="M1148.64 650.171C1150.07 650.171 1151.15 650.776 1151.88 651.986C1152.63 653.183 1153 654.924 1153 657.211C1153 659.498 1152.63 661.247 1151.88 662.457C1151.15 663.666 1150.07 664.271 1148.64 664.271C1147.23 664.271 1146.15 663.666 1145.4 662.457C1144.65 661.247 1144.28 659.498 1144.28 657.211C1144.28 654.938 1144.65 653.196 1145.4 651.986C1146.15 650.776 1147.23 650.171 1148.64 650.171ZM1145.7 657.211C1145.7 658.833 1145.85 660.103 1146.14 661.021L1150.58 652.186C1150.11 651.561 1149.47 651.248 1148.64 651.248C1147.72 651.248 1147 651.74 1146.48 652.724C1145.96 653.695 1145.7 655.19 1145.7 657.211ZM1148.64 663.174C1149.57 663.174 1150.3 662.689 1150.82 661.719C1151.34 660.735 1151.6 659.232 1151.6 657.211C1151.6 655.496 1151.43 654.167 1151.1 653.223L1146.66 662.137C1147.14 662.829 1147.8 663.174 1148.64 663.174Z" fill="url(#paint93_linear_175_194)"/>
<path d="M1148.64 672.964C1150.07 672.964 1151.15 673.569 1151.88 674.779C1152.63 675.976 1153 677.717 1153 680.004C1153 682.291 1152.63 684.039 1151.88 685.249C1151.15 686.459 1150.07 687.064 1148.64 687.064C1147.23 687.064 1146.15 686.459 1145.4 685.249C1144.65 684.039 1144.28 682.291 1144.28 680.004C1144.28 677.731 1144.65 675.989 1145.4 674.779C1146.15 673.569 1147.23 672.964 1148.64 672.964ZM1145.7 680.004C1145.7 681.626 1145.85 682.896 1146.14 683.813L1150.58 674.978C1150.11 674.353 1149.47 674.041 1148.64 674.041C1147.72 674.041 1147 674.533 1146.48 675.517C1145.96 676.487 1145.7 677.983 1145.7 680.004ZM1148.64 685.967C1149.57 685.967 1150.3 685.482 1150.82 684.511C1151.34 683.528 1151.6 682.025 1151.6 680.004C1151.6 678.289 1151.43 676.959 1151.1 676.015L1146.66 684.93C1147.14 685.622 1147.8 685.967 1148.64 685.967Z" fill="url(#paint94_linear_175_194)"/>
</g>
<defs>
<filter id="filter0_f_175_194" x="-380.19" y="0.809998" width="2141.38" height="1500.38" filterUnits="userSpaceOnUse" color-interpolation-filters="sRGB">
<feFlood flood-opacity="0" result="BackgroundImageFix"/>
<feBlend mode="normal" in="SourceGraphic" in2="BackgroundImageFix" result="shape"/>
<feGaussianBlur stdDeviation="200.095" result="effect1_foregroundBlur_175_194"/>
</filter>
<linearGradient id="paint0_linear_175_194" x1="690.5" y1="401" x2="690.5" y2="1101" gradientUnits="userSpaceOnUse">
<stop stop-color="#D80027"/>
<stop offset="0.828125" stop-color="#8E3AB6"/>
<stop offset="0.901042" stop-color="#353BCB" stop-opacity="0.296875"/>
<stop offset="1" stop-color="#8FE91D" stop-opacity="0"/>
</linearGradient>
<linearGradient id="paint1_linear_175_194" x1="312.5" y1="791" x2="312.5" y2="1102.38" gradientUnits="userSpaceOnUse">
<stop stop-color="#4552C9"/>
<stop offset="1" stop-color="#E94D4D" stop-opacity="0.48"/>
</linearGradient>
<linearGradient id="paint2_linear_175_194" x1="312.5" y1="791" x2="312.5" y2="1102.38" gradientUnits="userSpaceOnUse">
<stop stop-color="#4552C9"/>
<stop offset="1" stop-color="#E94D4D" stop-opacity="0.48"/>
</linearGradient>
<linearGradient id="paint3_linear_175_194" x1="312.5" y1="791" x2="312.5" y2="1102.38" gradientUnits="userSpaceOnUse">
<stop stop-color="#4552C9"/>
<stop offset="1" stop-color="#E94D4D" stop-opacity="0.48"/>
</linearGradient>
<linearGradient id="paint4_linear_175_194" x1="312.5" y1="791" x2="312.5" y2="1102.38" gradientUnits="userSpaceOnUse">
<stop stop-color="#4552C9"/>
<stop offset="1" stop-color="#E94D4D" stop-opacity="0.48"/>
</linearGradient>
<linearGradient id="paint5_linear_175_194" x1="312.5" y1="791" x2="312.5" y2="1102.38" gradientUnits="userSpaceOnUse">
<stop stop-color="#4552C9"/>
<stop offset="1" stop-color="#E94D4D" stop-opacity="0.48"/>
</linearGradient>
<linearGradient id="paint6_linear_175_194" x1="312.5" y1="791" x2="312.5" y2="1102.38" gradientUnits="userSpaceOnUse">
<stop stop-color="#4552C9"/>
<stop offset="1" stop-color="#E94D4D" stop-opacity="0.48"/>
</linearGradient>
<linearGradient id="paint7_linear_175_194" x1="312.5" y1="791" x2="312.5" y2="1102.38" gradientUnits="userSpaceOnUse">
<stop stop-color="#4552C9"/>
<stop offset="1" stop-color="#E94D4D" stop-opacity="0.48"/>
</linearGradient>
<linearGradient id="paint8_linear_175_194" x1="312.5" y1="791" x2="312.5" y2="1102.38" gradientUnits="userSpaceOnUse">
<stop stop-color="#4552C9"/>
<stop offset="1" stop-color="#E94D4D" stop-opacity="0.48"/>
</linearGradient>
<linearGradient id="paint9_linear_175_194" x1="312.5" y1="791" x2="312.5" y2="1102.38" gradientUnits="userSpaceOnUse">
<stop stop-color="#4552C9"/>
<stop offset="1" stop-color="#E94D4D" stop-opacity="0.48"/>
</linearGradient>
<linearGradient id="paint10_linear_175_194" x1="312.5" y1="791" x2="312.5" y2="1102.38" gradientUnits="userSpaceOnUse">
<stop stop-color="#4552C9"/>
<stop offset="1" stop-color="#E94D4D" stop-opacity="0.48"/>
</linearGradient>
<linearGradient id="paint11_linear_175_194" x1="312.5" y1="791" x2="312.5" y2="1102.38" gradientUnits="userSpaceOnUse">
<stop stop-color="#4552C9"/>
<stop offset="1" stop-color="#E94D4D" stop-opacity="0.48"/>
</linearGradient>
<linearGradient id="paint12_linear_175_194" x1="312.5" y1="791" x2="312.5" y2="1102.38" gradientUnits="userSpaceOnUse">
<stop stop-color="#4552C9"/>
<stop offset="1" stop-color="#E94D4D" stop-opacity="0.48"/>
</linearGradient>
<linearGradient id="paint13_linear_175_194" x1="312.5" y1="791" x2="312.5" y2="1102.38" gradientUnits="userSpaceOnUse">
<stop stop-color="#4552C9"/>
<stop offset="1" stop-color="#E94D4D" stop-opacity="0.48"/>
</linearGradient>
<linearGradient id="paint14_linear_175_194" x1="312.5" y1="791" x2="312.5" y2="1102.38" gradientUnits="userSpaceOnUse">
<stop stop-color="#4552C9"/>
<stop offset="1" stop-color="#E94D4D" stop-opacity="0.48"/>
</linearGradient>
<linearGradient id="paint15_linear_175_194" x1="312.5" y1="791" x2="312.5" y2="1102.38" gradientUnits="userSpaceOnUse">
<stop stop-color="#4552C9"/>
<stop offset="1" stop-color="#E94D4D" stop-opacity="0.48"/>
</linearGradient>
<linearGradient id="paint16_linear_175_194" x1="312.5" y1="791" x2="312.5" y2="1102.38" gradientUnits="userSpaceOnUse">
<stop stop-color="#4552C9"/>
<stop offset="1" stop-color="#E94D4D" stop-opacity="0.48"/>
</linearGradient>
<linearGradient id="paint17_linear_175_194" x1="312.5" y1="791" x2="312.5" y2="1102.38" gradientUnits="userSpaceOnUse">
<stop stop-color="#4552C9"/>
<stop offset="1" stop-color="#E94D4D" stop-opacity="0.48"/>
</linearGradient>
<linearGradient id="paint18_linear_175_194" x1="312.5" y1="791" x2="312.5" y2="1102.38" gradientUnits="userSpaceOnUse">
<stop stop-color="#4552C9"/>
<stop offset="1" stop-color="#E94D4D" stop-opacity="0.48"/>
</linearGradient>
<linearGradient id="paint19_linear_175_194" x1="312.5" y1="791" x2="312.5" y2="1102.38" gradientUnits="userSpaceOnUse">
<stop stop-color="#4552C9"/>
<stop offset="1" stop-color="#E94D4D" stop-opacity="0.48"/>
</linearGradient>
<linearGradient id="paint20_linear_175_194" x1="312.5" y1="791" x2="312.5" y2="1102.38" gradientUnits="userSpaceOnUse">
<stop stop-color="#4552C9"/>
<stop offset="1" stop-color="#E94D4D" stop-opacity="0.48"/>
</linearGradient>
<linearGradient id="paint21_linear_175_194" x1="312.5" y1="791" x2="312.5" y2="1102.38" gradientUnits="userSpaceOnUse">
<stop stop-color="#4552C9"/>
<stop offset="1" stop-color="#E94D4D" stop-opacity="0.48"/>
</linearGradient>
<linearGradient id="paint22_linear_175_194" x1="312.5" y1="791" x2="312.5" y2="1102.38" gradientUnits="userSpaceOnUse">
<stop stop-color="#4552C9"/>
<stop offset="1" stop-color="#E94D4D" stop-opacity="0.48"/>
</linearGradient>
<linearGradient id="paint23_linear_175_194" x1="312.5" y1="791" x2="312.5" y2="1102.38" gradientUnits="userSpaceOnUse">
<stop stop-color="#4552C9"/>
<stop offset="1" stop-color="#E94D4D" stop-opacity="0.48"/>
</linearGradient>
<linearGradient id="paint24_linear_175_194" x1="312.5" y1="791" x2="312.5" y2="1102.38" gradientUnits="userSpaceOnUse">
<stop stop-color="#4552C9"/>
<stop offset="1" stop-color="#E94D4D" stop-opacity="0.48"/>
</linearGradient>
<linearGradient id="paint25_linear_175_194" x1="312.5" y1="791" x2="312.5" y2="1102.38" gradientUnits="userSpaceOnUse">
<stop stop-color="#4552C9"/>
<stop offset="1" stop-color="#E94D4D" stop-opacity="0.48"/>
</linearGradient>
<linearGradient id="paint26_linear_175_194" x1="312.5" y1="791" x2="312.5" y2="1102.38" gradientUnits="userSpaceOnUse">
<stop stop-color="#4552C9"/>
<stop offset="1" stop-color="#E94D4D" stop-opacity="0.48"/>
</linearGradient>
<linearGradient id="paint27_linear_175_194" x1="312.5" y1="791" x2="312.5" y2="1102.38" gradientUnits="userSpaceOnUse">
<stop stop-color="#4552C9"/>
<stop offset="1" stop-color="#E94D4D" stop-opacity="0.48"/>
</linearGradient>
<linearGradient id="paint28_linear_175_194" x1="312.5" y1="791" x2="312.5" y2="1102.38" gradientUnits="userSpaceOnUse">
<stop stop-color="#4552C9"/>
<stop offset="1" stop-color="#E94D4D" stop-opacity="0.48"/>
</linearGradient>
<linearGradient id="paint29_linear_175_194" x1="312.5" y1="791" x2="312.5" y2="1102.38" gradientUnits="userSpaceOnUse">
<stop stop-color="#4552C9"/>
<stop offset="1" stop-color="#E94D4D" stop-opacity="0.48"/>
</linearGradient>
<linearGradient id="paint30_linear_175_194" x1="312.5" y1="791" x2="312.5" y2="1102.38" gradientUnits="userSpaceOnUse">
<stop stop-color="#4552C9"/>
<stop offset="1" stop-color="#E94D4D" stop-opacity="0.48"/>
</linearGradient>
<linearGradient id="paint31_linear_175_194" x1="312.5" y1="791" x2="312.5" y2="1102.38" gradientUnits="userSpaceOnUse">
<stop stop-color="#4552C9"/>
<stop offset="1" stop-color="#E94D4D" stop-opacity="0.48"/>
</linearGradient>
<linearGradient id="paint32_linear_175_194" x1="312.5" y1="791" x2="312.5" y2="1102.38" gradientUnits="userSpaceOnUse">
<stop stop-color="#4552C9"/>
<stop offset="1" stop-color="#E94D4D" stop-opacity="0.48"/>
</linearGradient>
<linearGradient id="paint33_linear_175_194" x1="312.5" y1="791" x2="312.5" y2="1102.38" gradientUnits="userSpaceOnUse">
<stop stop-color="#4552C9"/>
<stop offset="1" stop-color="#E94D4D" stop-opacity="0.48"/>
</linearGradient>
<linearGradient id="paint34_linear_175_194" x1="312.5" y1="791" x2="312.5" y2="1102.38" gradientUnits="userSpaceOnUse">
<stop stop-color="#4552C9"/>
<stop offset="1" stop-color="#E94D4D" stop-opacity="0.48"/>
</linearGradient>
<linearGradient id="paint35_linear_175_194" x1="312.5" y1="791" x2="312.5" y2="1102.38" gradientUnits="userSpaceOnUse">
<stop stop-color="#4552C9"/>
<stop offset="1" stop-color="#E94D4D" stop-opacity="0.48"/>
</linearGradient>
<linearGradient id="paint36_linear_175_194" x1="312.5" y1="791" x2="312.5" y2="1102.38" gradientUnits="userSpaceOnUse">
<stop stop-color="#4552C9"/>
<stop offset="1" stop-color="#E94D4D" stop-opacity="0.48"/>
</linearGradient>
<linearGradient id="paint37_linear_175_194" x1="312.5" y1="791" x2="312.5" y2="1102.38" gradientUnits="userSpaceOnUse">
<stop stop-color="#4552C9"/>
<stop offset="1" stop-color="#E94D4D" stop-opacity="0.48"/>
</linearGradient>
<linearGradient id="paint38_linear_175_194" x1="312.5" y1="791" x2="312.5" y2="1102.38" gradientUnits="userSpaceOnUse">
<stop stop-color="#4552C9"/>
<stop offset="1" stop-color="#E94D4D" stop-opacity="0.48"/>
</linearGradient>
<linearGradient id="paint39_linear_175_194" x1="312.5" y1="791" x2="312.5" y2="1102.38" gradientUnits="userSpaceOnUse">
<stop stop-color="#4552C9"/>
<stop offset="1" stop-color="#E94D4D" stop-opacity="0.48"/>
</linearGradient>
<linearGradient id="paint40_linear_175_194" x1="312.5" y1="791" x2="312.5" y2="1102.38" gradientUnits="userSpaceOnUse">
<stop stop-color="#4552C9"/>
<stop offset="1" stop-color="#E94D4D" stop-opacity="0.48"/>
</linearGradient>
<linearGradient id="paint41_linear_175_194" x1="312.5" y1="791" x2="312.5" y2="1102.38" gradientUnits="userSpaceOnUse">
<stop stop-color="#4552C9"/>
<stop offset="1" stop-color="#E94D4D" stop-opacity="0.48"/>
</linearGradient>
<linearGradient id="paint42_linear_175_194" x1="312.5" y1="791" x2="312.5" y2="1102.38" gradientUnits="userSpaceOnUse">
<stop stop-color="#4552C9"/>
<stop offset="1" stop-color="#E94D4D" stop-opacity="0.48"/>
</linearGradient>
<linearGradient id="paint43_linear_175_194" x1="312.5" y1="791" x2="312.5" y2="1102.38" gradientUnits="userSpaceOnUse">
<stop stop-color="#4552C9"/>
<stop offset="1" stop-color="#E94D4D" stop-opacity="0.48"/>
</linearGradient>
<linearGradient id="paint44_linear_175_194" x1="312.5" y1="791" x2="312.5" y2="1102.38" gradientUnits="userSpaceOnUse">
<stop stop-color="#4552C9"/>
<stop offset="1" stop-color="#E94D4D" stop-opacity="0.48"/>
</linearGradient>
<linearGradient id="paint45_linear_175_194" x1="312.5" y1="791" x2="312.5" y2="1102.38" gradientUnits="userSpaceOnUse">
<stop stop-color="#4552C9"/>
<stop offset="1" stop-color="#E94D4D" stop-opacity="0.48"/>
</linearGradient>
<linearGradient id="paint46_linear_175_194" x1="312.5" y1="791" x2="312.5" y2="1102.38" gradientUnits="userSpaceOnUse">
<stop stop-color="#4552C9"/>
<stop offset="1" stop-color="#E94D4D" stop-opacity="0.48"/>
</linearGradient>
<linearGradient id="paint47_linear_175_194" x1="312.5" y1="791" x2="312.5" y2="1102.38" gradientUnits="userSpaceOnUse">
<stop stop-color="#4552C9"/>
<stop offset="1" stop-color="#E94D4D" stop-opacity="0.48"/>
</linearGradient>
<linearGradient id="paint48_linear_175_194" x1="1111.5" y1="559" x2="1111.5" y2="857.818" gradientUnits="userSpaceOnUse">
<stop stop-color="#8C98FF"/>
<stop offset="1" stop-color="#D94A64"/>
</linearGradient>
<linearGradient id="paint49_linear_175_194" x1="1111.5" y1="559" x2="1111.5" y2="857.818" gradientUnits="userSpaceOnUse">
<stop stop-color="#8C98FF"/>
<stop offset="1" stop-color="#D94A64"/>
</linearGradient>
<linearGradient id="paint50_linear_175_194" x1="1111.5" y1="559" x2="1111.5" y2="857.818" gradientUnits="userSpaceOnUse">
<stop stop-color="#8C98FF"/>
<stop offset="1" stop-color="#D94A64"/>
</linearGradient>
<linearGradient id="paint51_linear_175_194" x1="1111.5" y1="559" x2="1111.5" y2="857.818" gradientUnits="userSpaceOnUse">
<stop stop-color="#8C98FF"/>
<stop offset="1" stop-color="#D94A64"/>
</linearGradient>
<linearGradient id="paint52_linear_175_194" x1="1111.5" y1="559" x2="1111.5" y2="857.818" gradientUnits="userSpaceOnUse">
<stop stop-color="#8C98FF"/>
<stop offset="1" stop-color="#D94A64"/>
</linearGradient>
<linearGradient id="paint53_linear_175_194" x1="1111.5" y1="559" x2="1111.5" y2="857.818" gradientUnits="userSpaceOnUse">
<stop stop-color="#8C98FF"/>
<stop offset="1" stop-color="#D94A64"/>
</linearGradient>
<linearGradient id="paint54_linear_175_194" x1="1111.5" y1="559" x2="1111.5" y2="857.818" gradientUnits="userSpaceOnUse">
<stop stop-color="#8C98FF"/>
<stop offset="1" stop-color="#D94A64"/>
</linearGradient>
<linearGradient id="paint55_linear_175_194" x1="1111.5" y1="559" x2="1111.5" y2="857.818" gradientUnits="userSpaceOnUse">
<stop stop-color="#8C98FF"/>
<stop offset="1" stop-color="#D94A64"/>
</linearGradient>
<linearGradient id="paint56_linear_175_194" x1="1111.5" y1="559" x2="1111.5" y2="857.818" gradientUnits="userSpaceOnUse">
<stop stop-color="#8C98FF"/>
<stop offset="1" stop-color="#D94A64"/>
</linearGradient>
<linearGradient id="paint57_linear_175_194" x1="1111.5" y1="559" x2="1111.5" y2="857.818" gradientUnits="userSpaceOnUse">
<stop stop-color="#8C98FF"/>
<stop offset="1" stop-color="#D94A64"/>
</linearGradient>
<linearGradient id="paint58_linear_175_194" x1="1111.5" y1="559" x2="1111.5" y2="857.818" gradientUnits="userSpaceOnUse">
<stop stop-color="#8C98FF"/>
<stop offset="1" stop-color="#D94A64"/>
</linearGradient>
<linearGradient id="paint59_linear_175_194" x1="1111.5" y1="559" x2="1111.5" y2="857.818" gradientUnits="userSpaceOnUse">
<stop stop-color="#8C98FF"/>
<stop offset="1" stop-color="#D94A64"/>
</linearGradient>
<linearGradient id="paint60_linear_175_194" x1="1111.5" y1="559" x2="1111.5" y2="857.818" gradientUnits="userSpaceOnUse">
<stop stop-color="#8C98FF"/>
<stop offset="1" stop-color="#D94A64"/>
</linearGradient>
<linearGradient id="paint61_linear_175_194" x1="1111.5" y1="559" x2="1111.5" y2="857.818" gradientUnits="userSpaceOnUse">
<stop stop-color="#8C98FF"/>
<stop offset="1" stop-color="#D94A64"/>
</linearGradient>
<linearGradient id="paint62_linear_175_194" x1="1111.5" y1="559" x2="1111.5" y2="857.818" gradientUnits="userSpaceOnUse">
<stop stop-color="#8C98FF"/>
<stop offset="1" stop-color="#D94A64"/>
</linearGradient>
<linearGradient id="paint63_linear_175_194" x1="1111.5" y1="559" x2="1111.5" y2="857.818" gradientUnits="userSpaceOnUse">
<stop stop-color="#8C98FF"/>
<stop offset="1" stop-color="#D94A64"/>
</linearGradient>
<linearGradient id="paint64_linear_175_194" x1="1111.5" y1="559" x2="1111.5" y2="857.818" gradientUnits="userSpaceOnUse">
<stop stop-color="#8C98FF"/>
<stop offset="1" stop-color="#D94A64"/>
</linearGradient>
<linearGradient id="paint65_linear_175_194" x1="1111.5" y1="559" x2="1111.5" y2="857.818" gradientUnits="userSpaceOnUse">
<stop stop-color="#8C98FF"/>
<stop offset="1" stop-color="#D94A64"/>
</linearGradient>
<linearGradient id="paint66_linear_175_194" x1="1111.5" y1="559" x2="1111.5" y2="857.818" gradientUnits="userSpaceOnUse">
<stop stop-color="#8C98FF"/>
<stop offset="1" stop-color="#D94A64"/>
</linearGradient>
<linearGradient id="paint67_linear_175_194" x1="1111.5" y1="559" x2="1111.5" y2="857.818" gradientUnits="userSpaceOnUse">
<stop stop-color="#8C98FF"/>
<stop offset="1" stop-color="#D94A64"/>
</linearGradient>
<linearGradient id="paint68_linear_175_194" x1="1111.5" y1="559" x2="1111.5" y2="857.818" gradientUnits="userSpaceOnUse">
<stop stop-color="#8C98FF"/>
<stop offset="1" stop-color="#D94A64"/>
</linearGradient>
<linearGradient id="paint69_linear_175_194" x1="1111.5" y1="559" x2="1111.5" y2="857.818" gradientUnits="userSpaceOnUse">
<stop stop-color="#8C98FF"/>
<stop offset="1" stop-color="#D94A64"/>
</linearGradient>
<linearGradient id="paint70_linear_175_194" x1="1111.5" y1="559" x2="1111.5" y2="857.818" gradientUnits="userSpaceOnUse">
<stop stop-color="#8C98FF"/>
<stop offset="1" stop-color="#D94A64"/>
</linearGradient>
<linearGradient id="paint71_linear_175_194" x1="1111.5" y1="559" x2="1111.5" y2="857.818" gradientUnits="userSpaceOnUse">
<stop stop-color="#8C98FF"/>
<stop offset="1" stop-color="#D94A64"/>
</linearGradient>
<linearGradient id="paint72_linear_175_194" x1="1111.5" y1="559" x2="1111.5" y2="857.818" gradientUnits="userSpaceOnUse">
<stop stop-color="#8C98FF"/>
<stop offset="1" stop-color="#D94A64"/>
</linearGradient>
<linearGradient id="paint73_linear_175_194" x1="1111.5" y1="559" x2="1111.5" y2="857.818" gradientUnits="userSpaceOnUse">
<stop stop-color="#8C98FF"/>
<stop offset="1" stop-color="#D94A64"/>
</linearGradient>
<linearGradient id="paint74_linear_175_194" x1="1111.5" y1="559" x2="1111.5" y2="857.818" gradientUnits="userSpaceOnUse">
<stop stop-color="#8C98FF"/>
<stop offset="1" stop-color="#D94A64"/>
</linearGradient>
<linearGradient id="paint75_linear_175_194" x1="1111.5" y1="559" x2="1111.5" y2="857.818" gradientUnits="userSpaceOnUse">
<stop stop-color="#8C98FF"/>
<stop offset="1" stop-color="#D94A64"/>
</linearGradient>
<linearGradient id="paint76_linear_175_194" x1="1111.5" y1="559" x2="1111.5" y2="857.818" gradientUnits="userSpaceOnUse">
<stop stop-color="#8C98FF"/>
<stop offset="1" stop-color="#D94A64"/>
</linearGradient>
<linearGradient id="paint77_linear_175_194" x1="1111.5" y1="559" x2="1111.5" y2="857.818" gradientUnits="userSpaceOnUse">
<stop stop-color="#8C98FF"/>
<stop offset="1" stop-color="#D94A64"/>
</linearGradient>
<linearGradient id="paint78_linear_175_194" x1="1111.5" y1="559" x2="1111.5" y2="857.818" gradientUnits="userSpaceOnUse">
<stop stop-color="#8C98FF"/>
<stop offset="1" stop-color="#D94A64"/>
</linearGradient>
<linearGradient id="paint79_linear_175_194" x1="1111.5" y1="559" x2="1111.5" y2="857.818" gradientUnits="userSpaceOnUse">
<stop stop-color="#8C98FF"/>
<stop offset="1" stop-color="#D94A64"/>
</linearGradient>
<linearGradient id="paint80_linear_175_194" x1="1111.5" y1="559" x2="1111.5" y2="857.818" gradientUnits="userSpaceOnUse">
<stop stop-color="#8C98FF"/>
<stop offset="1" stop-color="#D94A64"/>
</linearGradient>
<linearGradient id="paint81_linear_175_194" x1="1111.5" y1="559" x2="1111.5" y2="857.818" gradientUnits="userSpaceOnUse">
<stop stop-color="#8C98FF"/>
<stop offset="1" stop-color="#D94A64"/>
</linearGradient>
<linearGradient id="paint82_linear_175_194" x1="1111.5" y1="559" x2="1111.5" y2="857.818" gradientUnits="userSpaceOnUse">
<stop stop-color="#8C98FF"/>
<stop offset="1" stop-color="#D94A64"/>
</linearGradient>
<linearGradient id="paint83_linear_175_194" x1="1111.5" y1="559" x2="1111.5" y2="857.818" gradientUnits="userSpaceOnUse">
<stop stop-color="#8C98FF"/>
<stop offset="1" stop-color="#D94A64"/>
</linearGradient>
<linearGradient id="paint84_linear_175_194" x1="1111.5" y1="559" x2="1111.5" y2="857.818" gradientUnits="userSpaceOnUse">
<stop stop-color="#8C98FF"/>
<stop offset="1" stop-color="#D94A64"/>
</linearGradient>
<linearGradient id="paint85_linear_175_194" x1="1111.5" y1="559" x2="1111.5" y2="857.818" gradientUnits="userSpaceOnUse">
<stop stop-color="#8C98FF"/>
<stop offset="1" stop-color="#D94A64"/>
</linearGradient>
<linearGradient id="paint86_linear_175_194" x1="1111.5" y1="559" x2="1111.5" y2="857.818" gradientUnits="userSpaceOnUse">
<stop stop-color="#8C98FF"/>
<stop offset="1" stop-color="#D94A64"/>
</linearGradient>
<linearGradient id="paint87_linear_175_194" x1="1111.5" y1="559" x2="1111.5" y2="857.818" gradientUnits="userSpaceOnUse">
<stop stop-color="#8C98FF"/>
<stop offset="1" stop-color="#D94A64"/>
</linearGradient>
<linearGradient id="paint88_linear_175_194" x1="1111.5" y1="559" x2="1111.5" y2="857.818" gradientUnits="userSpaceOnUse">
<stop stop-color="#8C98FF"/>
<stop offset="1" stop-color="#D94A64"/>
</linearGradient>
<linearGradient id="paint89_linear_175_194" x1="1111.5" y1="559" x2="1111.5" y2="857.818" gradientUnits="userSpaceOnUse">
<stop stop-color="#8C98FF"/>
<stop offset="1" stop-color="#D94A64"/>
</linearGradient>
<linearGradient id="paint90_linear_175_194" x1="1111.5" y1="559" x2="1111.5" y2="857.818" gradientUnits="userSpaceOnUse">
<stop stop-color="#8C98FF"/>
<stop offset="1" stop-color="#D94A64"/>
</linearGradient>
<linearGradient id="paint91_linear_175_194" x1="1111.5" y1="559" x2="1111.5" y2="857.818" gradientUnits="userSpaceOnUse">
<stop stop-color="#8C98FF"/>
<stop offset="1" stop-color="#D94A64"/>
</linearGradient>
<linearGradient id="paint92_linear_175_194" x1="1111.5" y1="559" x2="1111.5" y2="857.818" gradientUnits="userSpaceOnUse">
<stop stop-color="#8C98FF"/>
<stop offset="1" stop-color="#D94A64"/>
</linearGradient>
<linearGradient id="paint93_linear_175_194" x1="1111.5" y1="559" x2="1111.5" y2="857.818" gradientUnits="userSpaceOnUse">
<stop stop-color="#8C98FF"/>
<stop offset="1" stop-color="#D94A64"/>
</linearGradient>
<linearGradient id="paint94_linear_175_194" x1="1111.5" y1="559" x2="1111.5" y2="857.818" gradientUnits="userSpaceOnUse">
<stop stop-color="#8C98FF"/>
<stop offset="1" stop-color="#D94A64"/>
</linearGradient>
</defs>
</svg>
