<svg width="2722" height="1612" viewBox="0 0 2722 1612" fill="none" xmlns="http://www.w3.org/2000/svg">
<g opacity="0.2" filter="url(#filter0_f_420_2041)">
<ellipse cx="1361" cy="806.145" rx="960" ry="405.145" fill="url(#paint0_linear_420_2041)"/>
</g>
<path d="M684.412 712C686.553 712 688.174 712.73 689.275 714.189C690.395 715.633 690.955 717.733 690.955 720.492C690.955 723.25 690.395 725.359 689.275 726.819C688.174 728.278 686.553 729.008 684.412 729.008C682.291 729.008 680.671 728.278 679.55 726.819C678.43 725.359 677.869 723.25 677.869 720.492C677.869 717.75 678.43 715.649 679.55 714.189C680.671 712.73 682.291 712 684.412 712ZM680 720.492C680 722.449 680.221 723.98 680.661 725.087L687.324 714.43C686.623 713.676 685.653 713.299 684.412 713.299C683.032 713.299 681.951 713.892 681.171 715.079C680.391 716.25 680 718.054 680 720.492ZM684.412 727.685C685.813 727.685 686.903 727.099 687.684 725.929C688.464 724.742 688.854 722.93 688.854 720.492C688.854 718.423 688.604 716.819 688.104 715.681L681.441 726.434C682.161 727.268 683.152 727.685 684.412 727.685Z" fill="url(#paint1_linear_420_2041)" fill-opacity="0.6"/>
<path d="M686.213 754.986H690.625V756.261H679.19V754.986H684.292V741.466L679.43 743.799L678.59 742.717L684.592 739.734H686.213V754.986Z" fill="url(#paint2_linear_420_2041)" fill-opacity="0.6"/>
<path d="M684.412 766.986C686.553 766.986 688.174 767.716 689.275 769.176C690.395 770.619 690.955 772.72 690.955 775.478C690.955 778.237 690.395 780.346 689.275 781.805C688.174 783.265 686.553 783.994 684.412 783.994C682.291 783.994 680.671 783.265 679.55 781.805C678.43 780.346 677.869 778.237 677.869 775.478C677.869 772.736 678.43 770.635 679.55 769.176C680.671 767.716 682.291 766.986 684.412 766.986ZM680 775.478C680 777.435 680.221 778.967 680.661 780.073L687.324 769.416C686.623 768.662 685.653 768.285 684.412 768.285C683.032 768.285 681.951 768.879 681.171 770.066C680.391 771.236 680 773.041 680 775.478ZM684.412 782.671C685.813 782.671 686.903 782.086 687.684 780.915C688.464 779.728 688.854 777.916 688.854 775.478C688.854 773.409 688.604 771.806 688.104 770.667L681.441 781.42C682.161 782.254 683.152 782.671 684.412 782.671Z" fill="url(#paint3_linear_420_2041)" fill-opacity="0.6"/>
<path d="M686.213 809.972H690.625V811.247H679.19V809.972H684.292V796.452L679.43 798.786L678.59 797.703L684.592 794.72H686.213V809.972Z" fill="url(#paint4_linear_420_2041)" fill-opacity="0.6"/>
<path d="M686.213 837.465H690.625V838.74H679.19V837.465H684.292V823.945L679.43 826.279L678.59 825.196L684.592 822.213H686.213V837.465Z" fill="url(#paint5_linear_420_2041)" fill-opacity="0.6"/>
<path d="M684.412 849.466C686.553 849.466 688.174 850.196 689.275 851.655C690.395 853.098 690.955 855.199 690.955 857.958C690.955 860.716 690.395 862.825 689.275 864.285C688.174 865.744 686.553 866.474 684.412 866.474C682.291 866.474 680.671 865.744 679.55 864.285C678.43 862.825 677.869 860.716 677.869 857.958C677.869 855.215 678.43 853.115 679.55 851.655C680.671 850.196 682.291 849.466 684.412 849.466ZM680 857.958C680 859.914 680.221 861.446 680.661 862.553L687.324 851.896C686.623 851.142 685.653 850.765 684.412 850.765C683.032 850.765 681.951 851.358 681.171 852.545C680.391 853.716 680 855.52 680 857.958ZM684.412 865.151C685.813 865.151 686.903 864.565 687.684 863.395C688.464 862.208 688.854 860.396 688.854 857.958C688.854 855.889 688.604 854.285 688.104 853.147L681.441 863.9C682.161 864.734 683.152 865.151 684.412 865.151Z" fill="url(#paint6_linear_420_2041)" fill-opacity="0.6"/>
<path d="M686.213 892.452H690.625V893.727H679.19V892.452H684.292V878.932L679.43 881.265L678.59 880.183L684.592 877.2H686.213V892.452Z" fill="url(#paint7_linear_420_2041)" fill-opacity="0.6"/>
<path d="M684.412 904.452C686.553 904.452 688.174 905.182 689.275 906.641C690.395 908.085 690.955 910.186 690.955 912.944C690.955 915.703 690.395 917.812 689.275 919.271C688.174 920.731 686.553 921.46 684.412 921.46C682.291 921.46 680.671 920.731 679.55 919.271C678.43 917.812 677.869 915.703 677.869 912.944C677.869 910.202 678.43 908.101 679.55 906.641C680.671 905.182 682.291 904.452 684.412 904.452ZM680 912.944C680 914.901 680.221 916.432 680.661 917.539L687.324 906.882C686.623 906.128 685.653 905.751 684.412 905.751C683.032 905.751 681.951 906.345 681.171 907.532C680.391 908.702 680 910.507 680 912.944ZM684.412 920.137C685.813 920.137 686.903 919.552 687.684 918.381C688.464 917.194 688.854 915.382 688.854 912.944C688.854 910.875 688.604 909.272 688.104 908.133L681.441 918.886C682.161 919.72 683.152 920.137 684.412 920.137Z" fill="url(#paint8_linear_420_2041)" fill-opacity="0.6"/>
<path d="M684.412 931.946C686.553 931.946 688.174 932.675 689.275 934.135C690.395 935.578 690.955 937.679 690.955 940.437C690.955 943.196 690.395 945.305 689.275 946.764C688.174 948.224 686.553 948.953 684.412 948.953C682.291 948.953 680.671 948.224 679.55 946.764C678.43 945.305 677.869 943.196 677.869 940.437C677.869 937.695 678.43 935.594 679.55 934.135C680.671 932.675 682.291 931.946 684.412 931.946ZM680 940.437C680 942.394 680.221 943.926 680.661 945.032L687.324 934.375C686.623 933.621 685.653 933.245 684.412 933.245C683.032 933.245 681.951 933.838 681.171 935.025C680.391 936.196 680 938 680 940.437ZM684.412 947.63C685.813 947.63 686.903 947.045 687.684 945.874C688.464 944.687 688.854 942.875 688.854 940.437C688.854 938.369 688.604 936.765 688.104 935.626L681.441 946.379C682.161 947.213 683.152 947.63 684.412 947.63Z" fill="url(#paint9_linear_420_2041)" fill-opacity="0.6"/>
<path d="M686.213 974.931H690.625V976.206H679.19V974.931H684.292V961.411L679.43 963.745L678.59 962.662L684.592 959.679H686.213V974.931Z" fill="url(#paint10_linear_420_2041)" fill-opacity="0.6"/>
<path d="M684.412 986.932C686.553 986.932 688.174 987.662 689.275 989.121C690.395 990.564 690.955 992.665 690.955 995.424C690.955 998.182 690.395 1000.29 689.275 1001.75C688.174 1003.21 686.553 1003.94 684.412 1003.94C682.291 1003.94 680.671 1003.21 679.55 1001.75C678.43 1000.29 677.869 998.182 677.869 995.424C677.869 992.681 678.43 990.58 679.55 989.121C680.671 987.662 682.291 986.932 684.412 986.932ZM680 995.424C680 997.38 680.221 998.912 680.661 1000.02L687.324 989.362C686.623 988.608 685.653 988.231 684.412 988.231C683.032 988.231 681.951 988.824 681.171 990.011C680.391 991.182 680 992.986 680 995.424ZM684.412 1002.62C685.813 1002.62 686.903 1002.03 687.684 1000.86C688.464 999.674 688.854 997.862 688.854 995.424C688.854 993.355 688.604 991.751 688.104 990.613L681.441 1001.37C682.161 1002.2 683.152 1002.62 684.412 1002.62Z" fill="url(#paint11_linear_420_2041)" fill-opacity="0.6"/>
<path d="M686.213 1029.92H690.625V1031.19H679.19V1029.92H684.292V1016.4L679.43 1018.73L678.59 1017.65L684.592 1014.67H686.213V1029.92Z" fill="url(#paint12_linear_420_2041)" fill-opacity="0.6"/>
<path d="M686.213 1057.41H690.625V1058.69H679.19V1057.41H684.292V1043.89L679.43 1046.22L678.59 1045.14L684.592 1042.16H686.213V1057.41Z" fill="url(#paint13_linear_420_2041)" fill-opacity="0.6"/>
<path d="M740.151 766.986C742.292 766.986 743.913 767.716 745.014 769.176C746.134 770.619 746.694 772.72 746.694 775.478C746.694 778.237 746.134 780.346 745.014 781.805C743.913 783.265 742.292 783.994 740.151 783.994C738.03 783.994 736.41 783.265 735.289 781.805C734.169 780.346 733.608 778.237 733.608 775.478C733.608 772.736 734.169 770.635 735.289 769.176C736.41 767.716 738.03 766.986 740.151 766.986ZM735.739 775.478C735.739 777.435 735.96 778.967 736.4 780.073L743.063 769.416C742.362 768.662 741.392 768.285 740.151 768.285C738.771 768.285 737.69 768.879 736.91 770.066C736.13 771.236 735.739 773.041 735.739 775.478ZM740.151 782.671C741.552 782.671 742.642 782.086 743.423 780.915C744.203 779.728 744.593 777.916 744.593 775.478C744.593 773.409 744.343 771.806 743.843 770.667L737.18 781.42C737.9 782.254 738.891 782.671 740.151 782.671Z" fill="url(#paint14_linear_420_2041)" fill-opacity="0.6"/>
<path d="M741.952 809.972H746.364V811.247H734.929V809.972H740.031V796.452L735.169 798.786L734.329 797.703L740.331 794.72H741.952V809.972Z" fill="url(#paint15_linear_420_2041)" fill-opacity="0.6"/>
<path d="M740.151 821.973C742.292 821.973 743.913 822.702 745.014 824.162C746.134 825.605 746.694 827.706 746.694 830.465C746.694 833.223 746.134 835.332 745.014 836.792C743.913 838.251 742.292 838.981 740.151 838.981C738.03 838.981 736.41 838.251 735.289 836.792C734.169 835.332 733.608 833.223 733.608 830.465C733.608 827.722 734.169 825.621 735.289 824.162C736.41 822.702 738.03 821.973 740.151 821.973ZM735.739 830.465C735.739 832.421 735.96 833.953 736.4 835.06L743.063 824.402C742.362 823.649 741.392 823.272 740.151 823.272C738.771 823.272 737.69 823.865 736.91 825.052C736.13 826.223 735.739 828.027 735.739 830.465ZM740.151 837.658C741.552 837.658 742.642 837.072 743.423 835.901C744.203 834.715 744.593 832.902 744.593 830.465C744.593 828.396 744.343 826.792 743.843 825.653L737.18 836.407C737.9 837.241 738.891 837.658 740.151 837.658Z" fill="url(#paint16_linear_420_2041)" fill-opacity="0.6"/>
<path d="M740.151 849.466C742.292 849.466 743.913 850.196 745.014 851.655C746.134 853.098 746.694 855.199 746.694 857.958C746.694 860.716 746.134 862.825 745.014 864.285C743.913 865.744 742.292 866.474 740.151 866.474C738.03 866.474 736.41 865.744 735.289 864.285C734.169 862.825 733.608 860.716 733.608 857.958C733.608 855.215 734.169 853.115 735.289 851.655C736.41 850.196 738.03 849.466 740.151 849.466ZM735.739 857.958C735.739 859.914 735.96 861.446 736.4 862.553L743.063 851.896C742.362 851.142 741.392 850.765 740.151 850.765C738.771 850.765 737.69 851.358 736.91 852.545C736.13 853.716 735.739 855.52 735.739 857.958ZM740.151 865.151C741.552 865.151 742.642 864.565 743.423 863.395C744.203 862.208 744.593 860.396 744.593 857.958C744.593 855.889 744.343 854.285 743.843 853.147L737.18 863.9C737.9 864.734 738.891 865.151 740.151 865.151Z" fill="url(#paint17_linear_420_2041)" fill-opacity="0.6"/>
<path d="M741.952 892.452H746.364V893.727H734.929V892.452H740.031V878.932L735.169 881.265L734.329 880.183L740.331 877.2H741.952V892.452Z" fill="url(#paint18_linear_420_2041)" fill-opacity="0.6"/>
<path d="M740.151 904.452C742.292 904.452 743.913 905.182 745.014 906.641C746.134 908.085 746.694 910.186 746.694 912.944C746.694 915.703 746.134 917.812 745.014 919.271C743.913 920.731 742.292 921.46 740.151 921.46C738.03 921.46 736.41 920.731 735.289 919.271C734.169 917.812 733.608 915.703 733.608 912.944C733.608 910.202 734.169 908.101 735.289 906.641C736.41 905.182 738.03 904.452 740.151 904.452ZM735.739 912.944C735.739 914.901 735.96 916.432 736.4 917.539L743.063 906.882C742.362 906.128 741.392 905.751 740.151 905.751C738.771 905.751 737.69 906.345 736.91 907.532C736.13 908.702 735.739 910.507 735.739 912.944ZM740.151 920.137C741.552 920.137 742.642 919.552 743.423 918.381C744.203 917.194 744.593 915.382 744.593 912.944C744.593 910.875 744.343 909.272 743.843 908.133L737.18 918.886C737.9 919.72 738.891 920.137 740.151 920.137Z" fill="url(#paint19_linear_420_2041)" fill-opacity="0.6"/>
<path d="M741.952 947.438H746.364V948.713H734.929V947.438H740.031V933.918L735.169 936.252L734.329 935.169L740.331 932.186H741.952V947.438Z" fill="url(#paint20_linear_420_2041)" fill-opacity="0.6"/>
<path d="M740.151 959.439C742.292 959.439 743.913 960.168 745.014 961.628C746.134 963.071 746.694 965.172 746.694 967.931C746.694 970.689 746.134 972.798 745.014 974.257C743.913 975.717 742.292 976.447 740.151 976.447C738.03 976.447 736.41 975.717 735.289 974.257C734.169 972.798 733.608 970.689 733.608 967.931C733.608 965.188 734.169 963.087 735.289 961.628C736.41 960.168 738.03 959.439 740.151 959.439ZM735.739 967.931C735.739 969.887 735.96 971.419 736.4 972.525L743.063 961.868C742.362 961.115 741.392 960.738 740.151 960.738C738.771 960.738 737.69 961.331 736.91 962.518C736.13 963.689 735.739 965.493 735.739 967.931ZM740.151 975.124C741.552 975.124 742.642 974.538 743.423 973.367C744.203 972.181 744.593 970.368 744.593 967.931C744.593 965.862 744.343 964.258 743.843 963.119L737.18 973.873C737.9 974.707 738.891 975.124 740.151 975.124Z" fill="url(#paint21_linear_420_2041)" fill-opacity="0.6"/>
<path d="M740.151 986.932C742.292 986.932 743.913 987.662 745.014 989.121C746.134 990.564 746.694 992.665 746.694 995.424C746.694 998.182 746.134 1000.29 745.014 1001.75C743.913 1003.21 742.292 1003.94 740.151 1003.94C738.03 1003.94 736.41 1003.21 735.289 1001.75C734.169 1000.29 733.608 998.182 733.608 995.424C733.608 992.681 734.169 990.58 735.289 989.121C736.41 987.662 738.03 986.932 740.151 986.932ZM735.739 995.424C735.739 997.38 735.96 998.912 736.4 1000.02L743.063 989.362C742.362 988.608 741.392 988.231 740.151 988.231C738.771 988.231 737.69 988.824 736.91 990.011C736.13 991.182 735.739 992.986 735.739 995.424ZM740.151 1002.62C741.552 1002.62 742.642 1002.03 743.423 1000.86C744.203 999.674 744.593 997.862 744.593 995.424C744.593 993.355 744.343 991.751 743.843 990.613L737.18 1001.37C737.9 1002.2 738.891 1002.62 740.151 1002.62Z" fill="url(#paint22_linear_420_2041)" fill-opacity="0.6"/>
<path d="M741.952 1029.92H746.364V1031.19H734.929V1029.92H740.031V1016.4L735.169 1018.73L734.329 1017.65L740.331 1014.67H741.952V1029.92Z" fill="url(#paint23_linear_420_2041)" fill-opacity="0.6"/>
<path d="M740.151 1041.92C742.292 1041.92 743.913 1042.65 745.014 1044.11C746.134 1045.55 746.694 1047.65 746.694 1050.41C746.694 1053.17 746.134 1055.28 745.014 1056.74C743.913 1058.2 742.292 1058.93 740.151 1058.93C738.03 1058.93 736.41 1058.2 735.289 1056.74C734.169 1055.28 733.608 1053.17 733.608 1050.41C733.608 1047.67 734.169 1045.57 735.289 1044.11C736.41 1042.65 738.03 1041.92 740.151 1041.92ZM735.739 1050.41C735.739 1052.37 735.96 1053.9 736.4 1055.01L743.063 1044.35C742.362 1043.59 741.392 1043.22 740.151 1043.22C738.771 1043.22 737.69 1043.81 736.91 1045C736.13 1046.17 735.739 1047.97 735.739 1050.41ZM740.151 1057.6C741.552 1057.6 742.642 1057.02 743.423 1055.85C744.203 1054.66 744.593 1052.85 744.593 1050.41C744.593 1048.34 744.343 1046.74 743.843 1045.6L737.18 1056.35C737.9 1057.19 738.891 1057.6 740.151 1057.6Z" fill="url(#paint24_linear_420_2041)" fill-opacity="0.6"/>
<path d="M741.952 1084.9H746.364V1086.18H734.929V1084.9H740.031V1071.38L735.169 1073.72L734.329 1072.64L740.331 1069.65H741.952V1084.9Z" fill="url(#paint25_linear_420_2041)" fill-opacity="0.6"/>
<path d="M741.952 1112.4H746.364V1113.67H734.929V1112.4H740.031V1098.88L735.169 1101.21L734.329 1100.13L740.331 1097.15H741.952V1112.4Z" fill="url(#paint26_linear_420_2041)" fill-opacity="0.6"/>
<path d="M656.543 794.48C658.684 794.48 660.305 795.209 661.405 796.669C662.526 798.112 663.086 800.213 663.086 802.972C663.086 805.73 662.526 807.839 661.405 809.298C660.305 810.758 658.684 811.488 656.543 811.488C654.422 811.488 652.801 810.758 651.681 809.298C650.56 807.839 650 805.73 650 802.972C650 800.229 650.56 798.128 651.681 796.669C652.801 795.209 654.422 794.48 656.543 794.48ZM652.131 802.972C652.131 804.928 652.351 806.46 652.791 807.566L659.454 796.909C658.754 796.156 657.783 795.779 656.543 795.779C655.162 795.779 654.082 796.372 653.301 797.559C652.521 798.73 652.131 800.534 652.131 802.972ZM656.543 810.164C657.944 810.164 659.034 809.579 659.814 808.408C660.595 807.222 660.985 805.409 660.985 802.972C660.985 800.903 660.735 799.299 660.235 798.16L653.572 808.913C654.292 809.747 655.282 810.164 656.543 810.164Z" fill="url(#paint27_linear_420_2041)" fill-opacity="0.6"/>
<path d="M656.543 821.973C658.684 821.973 660.305 822.702 661.405 824.162C662.526 825.605 663.086 827.706 663.086 830.465C663.086 833.223 662.526 835.332 661.405 836.792C660.305 838.251 658.684 838.981 656.543 838.981C654.422 838.981 652.801 838.251 651.681 836.792C650.56 835.332 650 833.223 650 830.465C650 827.722 650.56 825.621 651.681 824.162C652.801 822.702 654.422 821.973 656.543 821.973ZM652.131 830.465C652.131 832.421 652.351 833.953 652.791 835.06L659.454 824.402C658.754 823.649 657.783 823.272 656.543 823.272C655.162 823.272 654.082 823.865 653.301 825.052C652.521 826.223 652.131 828.027 652.131 830.465ZM656.543 837.658C657.944 837.658 659.034 837.072 659.814 835.901C660.595 834.715 660.985 832.902 660.985 830.465C660.985 828.396 660.735 826.792 660.235 825.653L653.572 836.407C654.292 837.241 655.282 837.658 656.543 837.658Z" fill="url(#paint28_linear_420_2041)" fill-opacity="0.6"/>
<path d="M658.344 864.958H662.756V866.233H651.321V864.958H656.423V851.439L651.561 853.772L650.72 852.69L656.723 849.707H658.344V864.958Z" fill="url(#paint29_linear_420_2041)" fill-opacity="0.6"/>
<path d="M656.543 876.959C658.684 876.959 660.305 877.689 661.405 879.148C662.526 880.592 663.086 882.693 663.086 885.451C663.086 888.21 662.526 890.319 661.405 891.778C660.305 893.237 658.684 893.967 656.543 893.967C654.422 893.967 652.801 893.237 651.681 891.778C650.56 890.319 650 888.21 650 885.451C650 882.709 650.56 880.608 651.681 879.148C652.801 877.689 654.422 876.959 656.543 876.959ZM652.131 885.451C652.131 887.408 652.351 888.939 652.791 890.046L659.454 879.389C658.754 878.635 657.783 878.258 656.543 878.258C655.162 878.258 654.082 878.852 653.301 880.038C652.521 881.209 652.131 883.013 652.131 885.451ZM656.543 892.644C657.944 892.644 659.034 892.059 659.814 890.888C660.595 889.701 660.985 887.889 660.985 885.451C660.985 883.382 660.735 881.778 660.235 880.64L653.572 891.393C654.292 892.227 655.282 892.644 656.543 892.644Z" fill="url(#paint30_linear_420_2041)" fill-opacity="0.6"/>
<path d="M658.344 919.945H662.756V921.22H651.321V919.945H656.423V906.425L651.561 908.758L650.72 907.676L656.723 904.693H658.344V919.945Z" fill="url(#paint31_linear_420_2041)" fill-opacity="0.6"/>
<path d="M658.344 947.438H662.756V948.713H651.321V947.438H656.423V933.918L651.561 936.252L650.72 935.169L656.723 932.186H658.344V947.438Z" fill="url(#paint32_linear_420_2041)" fill-opacity="0.6"/>
<path d="M714.083 754.986H718.495V756.261H707.06V754.986H712.162V741.466L707.3 743.799L706.459 742.717L712.462 739.734H714.083V754.986Z" fill="url(#paint33_linear_420_2041)" fill-opacity="0.6"/>
<path d="M712.282 766.986C714.423 766.986 716.044 767.716 717.144 769.176C718.265 770.619 718.825 772.72 718.825 775.478C718.825 778.237 718.265 780.346 717.144 781.805C716.044 783.265 714.423 783.994 712.282 783.994C710.161 783.994 708.54 783.265 707.42 781.805C706.299 780.346 705.739 778.237 705.739 775.478C705.739 772.736 706.299 770.635 707.42 769.176C708.54 767.716 710.161 766.986 712.282 766.986ZM707.87 775.478C707.87 777.435 708.09 778.967 708.53 780.073L715.193 769.416C714.493 768.662 713.522 768.285 712.282 768.285C710.901 768.285 709.821 768.879 709.04 770.066C708.26 771.236 707.87 773.041 707.87 775.478ZM712.282 782.671C713.683 782.671 714.773 782.086 715.553 780.915C716.334 779.728 716.724 777.916 716.724 775.478C716.724 773.409 716.474 771.806 715.974 770.667L709.311 781.42C710.031 782.254 711.021 782.671 712.282 782.671Z" fill="url(#paint34_linear_420_2041)" fill-opacity="0.6"/>
<path d="M714.083 809.972H718.495V811.247H707.06V809.972H712.162V796.452L707.3 798.786L706.459 797.703L712.462 794.72H714.083V809.972Z" fill="url(#paint35_linear_420_2041)" fill-opacity="0.6"/>
<path d="M714.083 837.465H718.495V838.74H707.06V837.465H712.162V823.945L707.3 826.279L706.459 825.196L712.462 822.213H714.083V837.465Z" fill="url(#paint36_linear_420_2041)" fill-opacity="0.6"/>
<path d="M712.282 849.466C714.423 849.466 716.044 850.196 717.144 851.655C718.265 853.098 718.825 855.199 718.825 857.958C718.825 860.716 718.265 862.825 717.144 864.285C716.044 865.744 714.423 866.474 712.282 866.474C710.161 866.474 708.54 865.744 707.42 864.285C706.299 862.825 705.739 860.716 705.739 857.958C705.739 855.215 706.299 853.115 707.42 851.655C708.54 850.196 710.161 849.466 712.282 849.466ZM707.87 857.958C707.87 859.914 708.09 861.446 708.53 862.553L715.193 851.896C714.493 851.142 713.522 850.765 712.282 850.765C710.901 850.765 709.821 851.358 709.04 852.545C708.26 853.716 707.87 855.52 707.87 857.958ZM712.282 865.151C713.683 865.151 714.773 864.565 715.553 863.395C716.334 862.208 716.724 860.396 716.724 857.958C716.724 855.889 716.474 854.285 715.974 853.147L709.311 863.9C710.031 864.734 711.021 865.151 712.282 865.151Z" fill="url(#paint37_linear_420_2041)" fill-opacity="0.6"/>
<path d="M714.083 892.452H718.495V893.727H707.06V892.452H712.162V878.932L707.3 881.265L706.459 880.183L712.462 877.2H714.083V892.452Z" fill="url(#paint38_linear_420_2041)" fill-opacity="0.6"/>
<path d="M714.083 919.945H718.495V921.22H707.06V919.945H712.162V906.425L707.3 908.758L706.459 907.676L712.462 904.693H714.083V919.945Z" fill="url(#paint39_linear_420_2041)" fill-opacity="0.6"/>
<path d="M712.282 931.946C714.423 931.946 716.044 932.675 717.144 934.135C718.265 935.578 718.825 937.679 718.825 940.437C718.825 943.196 718.265 945.305 717.144 946.764C716.044 948.224 714.423 948.953 712.282 948.953C710.161 948.953 708.54 948.224 707.42 946.764C706.299 945.305 705.739 943.196 705.739 940.437C705.739 937.695 706.299 935.594 707.42 934.135C708.54 932.675 710.161 931.946 712.282 931.946ZM707.87 940.437C707.87 942.394 708.09 943.926 708.53 945.032L715.193 934.375C714.493 933.621 713.522 933.245 712.282 933.245C710.901 933.245 709.821 933.838 709.04 935.025C708.26 936.196 707.87 938 707.87 940.437ZM712.282 947.63C713.683 947.63 714.773 947.045 715.553 945.874C716.334 944.687 716.724 942.875 716.724 940.437C716.724 938.369 716.474 936.765 715.974 935.626L709.311 946.379C710.031 947.213 711.021 947.63 712.282 947.63Z" fill="url(#paint40_linear_420_2041)" fill-opacity="0.6"/>
<path d="M714.083 974.931H718.495V976.206H707.06V974.931H712.162V961.411L707.3 963.745L706.459 962.662L712.462 959.679H714.083V974.931Z" fill="url(#paint41_linear_420_2041)" fill-opacity="0.6"/>
<path d="M712.282 986.932C714.423 986.932 716.044 987.662 717.144 989.121C718.265 990.564 718.825 992.665 718.825 995.424C718.825 998.182 718.265 1000.29 717.144 1001.75C716.044 1003.21 714.423 1003.94 712.282 1003.94C710.161 1003.94 708.54 1003.21 707.42 1001.75C706.299 1000.29 705.739 998.182 705.739 995.424C705.739 992.681 706.299 990.58 707.42 989.121C708.54 987.662 710.161 986.932 712.282 986.932ZM707.87 995.424C707.87 997.38 708.09 998.912 708.53 1000.02L715.193 989.362C714.493 988.608 713.522 988.231 712.282 988.231C710.901 988.231 709.821 988.824 709.04 990.011C708.26 991.182 707.87 992.986 707.87 995.424ZM712.282 1002.62C713.683 1002.62 714.773 1002.03 715.553 1000.86C716.334 999.674 716.724 997.862 716.724 995.424C716.724 993.355 716.474 991.751 715.974 990.613L709.311 1001.37C710.031 1002.2 711.021 1002.62 712.282 1002.62Z" fill="url(#paint42_linear_420_2041)" fill-opacity="0.6"/>
<path d="M768.021 739.493C770.162 739.493 771.783 740.223 772.883 741.682C774.004 743.126 774.564 745.227 774.564 747.985C774.564 750.744 774.004 752.853 772.883 754.312C771.783 755.771 770.162 756.501 768.021 756.501C765.9 756.501 764.279 755.771 763.159 754.312C762.038 752.853 761.478 750.744 761.478 747.985C761.478 745.243 762.038 743.142 763.159 741.682C764.279 740.223 765.9 739.493 768.021 739.493ZM763.609 747.985C763.609 749.942 763.829 751.473 764.269 752.58L770.932 741.923C770.232 741.169 769.261 740.792 768.021 740.792C766.64 740.792 765.56 741.386 764.779 742.572C763.999 743.743 763.609 745.547 763.609 747.985ZM768.021 755.178C769.421 755.178 770.512 754.593 771.292 753.422C772.073 752.235 772.463 750.423 772.463 747.985C772.463 745.916 772.213 744.313 771.712 743.174L765.05 753.927C765.77 754.761 766.76 755.178 768.021 755.178Z" fill="url(#paint43_linear_420_2041)" fill-opacity="0.6"/>
<path d="M769.822 782.479H774.234V783.754H762.799V782.479H767.901V768.959L763.039 771.292L762.198 770.21L768.201 767.227H769.822V782.479Z" fill="url(#paint44_linear_420_2041)" fill-opacity="0.6"/>
<path d="M769.822 809.972H774.234V811.247H762.799V809.972H767.901V796.452L763.039 798.786L762.198 797.703L768.201 794.72H769.822V809.972Z" fill="url(#paint45_linear_420_2041)" fill-opacity="0.6"/>
<path d="M768.021 821.973C770.162 821.973 771.783 822.702 772.883 824.162C774.004 825.605 774.564 827.706 774.564 830.465C774.564 833.223 774.004 835.332 772.883 836.792C771.783 838.251 770.162 838.981 768.021 838.981C765.9 838.981 764.279 838.251 763.159 836.792C762.038 835.332 761.478 833.223 761.478 830.465C761.478 827.722 762.038 825.621 763.159 824.162C764.279 822.702 765.9 821.973 768.021 821.973ZM763.609 830.465C763.609 832.421 763.829 833.953 764.269 835.06L770.932 824.402C770.232 823.649 769.261 823.272 768.021 823.272C766.64 823.272 765.56 823.865 764.779 825.052C763.999 826.223 763.609 828.027 763.609 830.465ZM768.021 837.658C769.421 837.658 770.512 837.072 771.292 835.901C772.073 834.715 772.463 832.902 772.463 830.465C772.463 828.396 772.213 826.792 771.712 825.653L765.05 836.407C765.77 837.241 766.76 837.658 768.021 837.658Z" fill="url(#paint46_linear_420_2041)" fill-opacity="0.6"/>
<path d="M768.021 849.466C770.162 849.466 771.783 850.196 772.883 851.655C774.004 853.098 774.564 855.199 774.564 857.958C774.564 860.716 774.004 862.825 772.883 864.285C771.783 865.744 770.162 866.474 768.021 866.474C765.9 866.474 764.279 865.744 763.159 864.285C762.038 862.825 761.478 860.716 761.478 857.958C761.478 855.215 762.038 853.115 763.159 851.655C764.279 850.196 765.9 849.466 768.021 849.466ZM763.609 857.958C763.609 859.914 763.829 861.446 764.269 862.553L770.932 851.896C770.232 851.142 769.261 850.765 768.021 850.765C766.64 850.765 765.56 851.358 764.779 852.545C763.999 853.716 763.609 855.52 763.609 857.958ZM768.021 865.151C769.421 865.151 770.512 864.565 771.292 863.395C772.073 862.208 772.463 860.396 772.463 857.958C772.463 855.889 772.213 854.285 771.712 853.147L765.05 863.9C765.77 864.734 766.76 865.151 768.021 865.151Z" fill="url(#paint47_linear_420_2041)" fill-opacity="0.6"/>
<g opacity="0.6">
<path d="M1928.83 308C1930.87 308 1932.42 308.7 1933.47 310.101C1934.54 311.486 1935.07 313.502 1935.07 316.149C1935.07 318.797 1934.54 320.82 1933.47 322.221C1932.42 323.621 1930.87 324.322 1928.83 324.322C1926.81 324.322 1925.26 323.621 1924.19 322.221C1923.12 320.82 1922.59 318.797 1922.59 316.149C1922.59 313.518 1923.12 311.501 1924.19 310.101C1925.26 308.7 1926.81 308 1928.83 308ZM1924.62 316.149C1924.62 318.027 1924.83 319.497 1925.25 320.559L1931.61 310.332C1930.94 309.608 1930.01 309.247 1928.83 309.247C1927.51 309.247 1926.48 309.816 1925.74 310.955C1924.99 312.079 1924.62 313.81 1924.62 316.149ZM1928.83 323.052C1930.17 323.052 1931.21 322.49 1931.95 321.367C1932.7 320.228 1933.07 318.489 1933.07 316.149C1933.07 314.164 1932.83 312.625 1932.35 311.532L1926 321.852C1926.68 322.652 1927.63 323.052 1928.83 323.052Z" fill="url(#paint48_linear_420_2041)"/>
<path d="M1930.55 349.251H1934.76V350.475H1923.85V349.251H1928.72V336.277L1924.08 338.516L1923.28 337.477L1929 334.615H1930.55V349.251Z" fill="url(#paint49_linear_420_2041)"/>
<path d="M1928.83 360.768C1930.87 360.768 1932.42 361.468 1933.47 362.869C1934.54 364.254 1935.07 366.27 1935.07 368.917C1935.07 371.564 1934.54 373.588 1933.47 374.989C1932.42 376.389 1930.87 377.09 1928.83 377.09C1926.81 377.09 1925.26 376.389 1924.19 374.989C1923.12 373.588 1922.59 371.564 1922.59 368.917C1922.59 366.285 1923.12 364.269 1924.19 362.869C1925.26 361.468 1926.81 360.768 1928.83 360.768ZM1924.62 368.917C1924.62 370.795 1924.83 372.265 1925.25 373.327L1931.61 363.1C1930.94 362.376 1930.01 362.015 1928.83 362.015C1927.51 362.015 1926.48 362.584 1925.74 363.723C1924.99 364.846 1924.62 366.578 1924.62 368.917ZM1928.83 375.82C1930.17 375.82 1931.21 375.258 1931.95 374.135C1932.7 372.996 1933.07 371.257 1933.07 368.917C1933.07 366.932 1932.83 365.393 1932.35 364.3L1926 374.619C1926.68 375.42 1927.63 375.82 1928.83 375.82Z" fill="url(#paint50_linear_420_2041)"/>
<path d="M1930.55 402.019H1934.76V403.243H1923.85V402.019H1928.72V389.045L1924.08 391.284L1923.28 390.245L1929 387.383H1930.55V402.019Z" fill="url(#paint51_linear_420_2041)"/>
<path d="M1930.55 428.403H1934.76V429.627H1923.85V428.403H1928.72V415.429L1924.08 417.668L1923.28 416.629L1929 413.767H1930.55V428.403Z" fill="url(#paint52_linear_420_2041)"/>
<path d="M1928.83 439.92C1930.87 439.92 1932.42 440.62 1933.47 442.021C1934.54 443.406 1935.07 445.422 1935.07 448.069C1935.07 450.716 1934.54 452.74 1933.47 454.141C1932.42 455.541 1930.87 456.242 1928.83 456.242C1926.81 456.242 1925.26 455.541 1924.19 454.141C1923.12 452.74 1922.59 450.716 1922.59 448.069C1922.59 445.437 1923.12 443.421 1924.19 442.021C1925.26 440.62 1926.81 439.92 1928.83 439.92ZM1924.62 448.069C1924.62 449.947 1924.83 451.417 1925.25 452.479L1931.61 442.251C1930.94 441.528 1930.01 441.166 1928.83 441.166C1927.51 441.166 1926.48 441.736 1925.74 442.875C1924.99 443.998 1924.62 445.73 1924.62 448.069ZM1928.83 454.972C1930.17 454.972 1931.21 454.41 1931.95 453.287C1932.7 452.148 1933.07 450.408 1933.07 448.069C1933.07 446.084 1932.83 444.545 1932.35 443.452L1926 453.771C1926.68 454.572 1927.63 454.972 1928.83 454.972Z" fill="url(#paint53_linear_420_2041)"/>
<path d="M1930.55 481.171H1934.76V482.395H1923.85V481.171H1928.72V468.197L1924.08 470.436L1923.28 469.397L1929 466.535H1930.55V481.171Z" fill="url(#paint54_linear_420_2041)"/>
<path d="M1928.83 492.688C1930.87 492.688 1932.42 493.388 1933.47 494.789C1934.54 496.174 1935.07 498.19 1935.07 500.837C1935.07 503.484 1934.54 505.508 1933.47 506.909C1932.42 508.309 1930.87 509.009 1928.83 509.009C1926.81 509.009 1925.26 508.309 1924.19 506.909C1923.12 505.508 1922.59 503.484 1922.59 500.837C1922.59 498.205 1923.12 496.189 1924.19 494.789C1925.26 493.388 1926.81 492.688 1928.83 492.688ZM1924.62 500.837C1924.62 502.715 1924.83 504.184 1925.25 505.246L1931.61 495.019C1930.94 494.296 1930.01 493.934 1928.83 493.934C1927.51 493.934 1926.48 494.504 1925.74 495.643C1924.99 496.766 1924.62 498.498 1924.62 500.837ZM1928.83 507.74C1930.17 507.74 1931.21 507.178 1931.95 506.054C1932.7 504.916 1933.07 503.176 1933.07 500.837C1933.07 498.852 1932.83 497.313 1932.35 496.22L1926 506.539C1926.68 507.34 1927.63 507.74 1928.83 507.74Z" fill="url(#paint55_linear_420_2041)"/>
<path d="M1928.83 519.072C1930.87 519.072 1932.42 519.772 1933.47 521.172C1934.54 522.558 1935.07 524.574 1935.07 527.221C1935.07 529.868 1934.54 531.892 1933.47 533.293C1932.42 534.693 1930.87 535.393 1928.83 535.393C1926.81 535.393 1925.26 534.693 1924.19 533.293C1923.12 531.892 1922.59 529.868 1922.59 527.221C1922.59 524.589 1923.12 522.573 1924.19 521.172C1925.26 519.772 1926.81 519.072 1928.83 519.072ZM1924.62 527.221C1924.62 529.099 1924.83 530.568 1925.25 531.63L1931.61 521.403C1930.94 520.68 1930.01 520.318 1928.83 520.318C1927.51 520.318 1926.48 520.888 1925.74 522.027C1924.99 523.15 1924.62 524.882 1924.62 527.221ZM1928.83 534.124C1930.17 534.124 1931.21 533.562 1931.95 532.438C1932.7 531.299 1933.07 529.56 1933.07 527.221C1933.07 525.236 1932.83 523.696 1932.35 522.604L1926 532.923C1926.68 533.723 1927.63 534.124 1928.83 534.124Z" fill="url(#paint56_linear_420_2041)"/>
<path d="M1930.55 560.323H1934.76V561.546H1923.85V560.323H1928.72V547.349L1924.08 549.588L1923.28 548.549L1929 545.686H1930.55V560.323Z" fill="url(#paint57_linear_420_2041)"/>
<path d="M1928.83 571.84C1930.87 571.84 1932.42 572.54 1933.47 573.94C1934.54 575.326 1935.07 577.342 1935.07 579.989C1935.07 582.636 1934.54 584.66 1933.47 586.06C1932.42 587.461 1930.87 588.161 1928.83 588.161C1926.81 588.161 1925.26 587.461 1924.19 586.06C1923.12 584.66 1922.59 582.636 1922.59 579.989C1922.59 577.357 1923.12 575.341 1924.19 573.94C1925.26 572.54 1926.81 571.84 1928.83 571.84ZM1924.62 579.989C1924.62 581.867 1924.83 583.336 1925.25 584.398L1931.61 574.171C1930.94 573.448 1930.01 573.086 1928.83 573.086C1927.51 573.086 1926.48 573.656 1925.74 574.795C1924.99 575.918 1924.62 577.649 1924.62 579.989ZM1928.83 586.892C1930.17 586.892 1931.21 586.33 1931.95 585.206C1932.7 584.067 1933.07 582.328 1933.07 579.989C1933.07 578.003 1932.83 576.464 1932.35 575.372L1926 585.691C1926.68 586.491 1927.63 586.892 1928.83 586.892Z" fill="url(#paint58_linear_420_2041)"/>
<path d="M1930.55 613.091H1934.76V614.314H1923.85V613.091H1928.72V600.117L1924.08 602.356L1923.28 601.317L1929 598.454H1930.55V613.091Z" fill="url(#paint59_linear_420_2041)"/>
<path d="M1930.55 639.475H1934.76V640.698H1923.85V639.475H1928.72V626.5L1924.08 628.74L1923.28 627.701L1929 624.838H1930.55V639.475Z" fill="url(#paint60_linear_420_2041)"/>
<path d="M1982.01 360.768C1984.05 360.768 1985.6 361.468 1986.65 362.869C1987.71 364.254 1988.25 366.27 1988.25 368.917C1988.25 371.564 1987.71 373.588 1986.65 374.989C1985.6 376.389 1984.05 377.09 1982.01 377.09C1979.98 377.09 1978.44 376.389 1977.37 374.989C1976.3 373.588 1975.76 371.564 1975.76 368.917C1975.76 366.285 1976.3 364.269 1977.37 362.869C1978.44 361.468 1979.98 360.768 1982.01 360.768ZM1977.8 368.917C1977.8 370.795 1978.01 372.265 1978.43 373.327L1984.78 363.1C1984.12 362.376 1983.19 362.015 1982.01 362.015C1980.69 362.015 1979.66 362.584 1978.91 363.723C1978.17 364.846 1977.8 366.578 1977.8 368.917ZM1982.01 375.82C1983.34 375.82 1984.38 375.258 1985.13 374.135C1985.87 372.996 1986.24 371.257 1986.24 368.917C1986.24 366.932 1986.01 365.393 1985.53 364.3L1979.17 374.619C1979.86 375.42 1980.8 375.82 1982.01 375.82Z" fill="url(#paint61_linear_420_2041)"/>
<path d="M1983.72 402.019H1987.93V403.243H1977.02V402.019H1981.89V389.045L1977.25 391.284L1976.45 390.245L1982.18 387.383H1983.72V402.019Z" fill="url(#paint62_linear_420_2041)"/>
<path d="M1982.01 413.536C1984.05 413.536 1985.6 414.236 1986.65 415.637C1987.71 417.022 1988.25 419.038 1988.25 421.685C1988.25 424.332 1987.71 426.356 1986.65 427.757C1985.6 429.157 1984.05 429.858 1982.01 429.858C1979.98 429.858 1978.44 429.157 1977.37 427.757C1976.3 426.356 1975.76 424.332 1975.76 421.685C1975.76 419.053 1976.3 417.037 1977.37 415.637C1978.44 414.236 1979.98 413.536 1982.01 413.536ZM1977.8 421.685C1977.8 423.563 1978.01 425.033 1978.43 426.095L1984.78 415.867C1984.12 415.144 1983.19 414.782 1982.01 414.782C1980.69 414.782 1979.66 415.352 1978.91 416.491C1978.17 417.614 1977.8 419.346 1977.8 421.685ZM1982.01 428.588C1983.34 428.588 1984.38 428.026 1985.13 426.903C1985.87 425.764 1986.24 424.025 1986.24 421.685C1986.24 419.7 1986.01 418.161 1985.53 417.068L1979.17 427.387C1979.86 428.188 1980.8 428.588 1982.01 428.588Z" fill="url(#paint63_linear_420_2041)"/>
<path d="M1982.01 439.92C1984.05 439.92 1985.6 440.62 1986.65 442.021C1987.71 443.406 1988.25 445.422 1988.25 448.069C1988.25 450.716 1987.71 452.74 1986.65 454.141C1985.6 455.541 1984.05 456.242 1982.01 456.242C1979.98 456.242 1978.44 455.541 1977.37 454.141C1976.3 452.74 1975.76 450.716 1975.76 448.069C1975.76 445.437 1976.3 443.421 1977.37 442.021C1978.44 440.62 1979.98 439.92 1982.01 439.92ZM1977.8 448.069C1977.8 449.947 1978.01 451.417 1978.43 452.479L1984.78 442.251C1984.12 441.528 1983.19 441.166 1982.01 441.166C1980.69 441.166 1979.66 441.736 1978.91 442.875C1978.17 443.998 1977.8 445.73 1977.8 448.069ZM1982.01 454.972C1983.34 454.972 1984.38 454.41 1985.13 453.287C1985.87 452.148 1986.24 450.408 1986.24 448.069C1986.24 446.084 1986.01 444.545 1985.53 443.452L1979.17 453.771C1979.86 454.572 1980.8 454.972 1982.01 454.972Z" fill="url(#paint64_linear_420_2041)"/>
<path d="M1983.72 481.171H1987.93V482.395H1977.02V481.171H1981.89V468.197L1977.25 470.436L1976.45 469.397L1982.18 466.535H1983.72V481.171Z" fill="url(#paint65_linear_420_2041)"/>
<path d="M1982.01 492.688C1984.05 492.688 1985.6 493.388 1986.65 494.789C1987.71 496.174 1988.25 498.19 1988.25 500.837C1988.25 503.484 1987.71 505.508 1986.65 506.909C1985.6 508.309 1984.05 509.009 1982.01 509.009C1979.98 509.009 1978.44 508.309 1977.37 506.909C1976.3 505.508 1975.76 503.484 1975.76 500.837C1975.76 498.205 1976.3 496.189 1977.37 494.789C1978.44 493.388 1979.98 492.688 1982.01 492.688ZM1977.8 500.837C1977.8 502.715 1978.01 504.184 1978.43 505.246L1984.78 495.019C1984.12 494.296 1983.19 493.934 1982.01 493.934C1980.69 493.934 1979.66 494.504 1978.91 495.643C1978.17 496.766 1977.8 498.498 1977.8 500.837ZM1982.01 507.74C1983.34 507.74 1984.38 507.178 1985.13 506.054C1985.87 504.916 1986.24 503.176 1986.24 500.837C1986.24 498.852 1986.01 497.313 1985.53 496.22L1979.17 506.539C1979.86 507.34 1980.8 507.74 1982.01 507.74Z" fill="url(#paint66_linear_420_2041)"/>
<path d="M1983.72 533.939H1987.93V535.163H1977.02V533.939H1981.89V520.965L1977.25 523.204L1976.45 522.165L1982.18 519.302H1983.72V533.939Z" fill="url(#paint67_linear_420_2041)"/>
<path d="M1982.01 545.456C1984.05 545.456 1985.6 546.156 1986.65 547.556C1987.71 548.942 1988.25 550.958 1988.25 553.605C1988.25 556.252 1987.71 558.276 1986.65 559.677C1985.6 561.077 1984.05 561.777 1982.01 561.777C1979.98 561.777 1978.44 561.077 1977.37 559.677C1976.3 558.276 1975.76 556.252 1975.76 553.605C1975.76 550.973 1976.3 548.957 1977.37 547.556C1978.44 546.156 1979.98 545.456 1982.01 545.456ZM1977.8 553.605C1977.8 555.483 1978.01 556.952 1978.43 558.014L1984.78 547.787C1984.12 547.064 1983.19 546.702 1982.01 546.702C1980.69 546.702 1979.66 547.272 1978.91 548.411C1978.17 549.534 1977.8 551.266 1977.8 553.605ZM1982.01 560.508C1983.34 560.508 1984.38 559.946 1985.13 558.822C1985.87 557.683 1986.24 555.944 1986.24 553.605C1986.24 551.62 1986.01 550.08 1985.53 548.988L1979.17 559.307C1979.86 560.107 1980.8 560.508 1982.01 560.508Z" fill="url(#paint68_linear_420_2041)"/>
<path d="M1982.01 571.84C1984.05 571.84 1985.6 572.54 1986.65 573.94C1987.71 575.326 1988.25 577.342 1988.25 579.989C1988.25 582.636 1987.71 584.66 1986.65 586.06C1985.6 587.461 1984.05 588.161 1982.01 588.161C1979.98 588.161 1978.44 587.461 1977.37 586.06C1976.3 584.66 1975.76 582.636 1975.76 579.989C1975.76 577.357 1976.3 575.341 1977.37 573.94C1978.44 572.54 1979.98 571.84 1982.01 571.84ZM1977.8 579.989C1977.8 581.867 1978.01 583.336 1978.43 584.398L1984.78 574.171C1984.12 573.448 1983.19 573.086 1982.01 573.086C1980.69 573.086 1979.66 573.656 1978.91 574.795C1978.17 575.918 1977.8 577.649 1977.8 579.989ZM1982.01 586.892C1983.34 586.892 1984.38 586.33 1985.13 585.206C1985.87 584.067 1986.24 582.328 1986.24 579.989C1986.24 578.003 1986.01 576.464 1985.53 575.372L1979.17 585.691C1979.86 586.491 1980.8 586.892 1982.01 586.892Z" fill="url(#paint69_linear_420_2041)"/>
<path d="M1983.72 613.091H1987.93V614.314H1977.02V613.091H1981.89V600.117L1977.25 602.356L1976.45 601.317L1982.18 598.454H1983.72V613.091Z" fill="url(#paint70_linear_420_2041)"/>
<path d="M1982.01 624.607C1984.05 624.607 1985.6 625.308 1986.65 626.708C1987.71 628.093 1988.25 630.11 1988.25 632.757C1988.25 635.404 1987.71 637.428 1986.65 638.828C1985.6 640.229 1984.05 640.929 1982.01 640.929C1979.98 640.929 1978.44 640.229 1977.37 638.828C1976.3 637.428 1975.76 635.404 1975.76 632.757C1975.76 630.125 1976.3 628.109 1977.37 626.708C1978.44 625.308 1979.98 624.607 1982.01 624.607ZM1977.8 632.757C1977.8 634.634 1978.01 636.104 1978.43 637.166L1984.78 626.939C1984.12 626.216 1983.19 625.854 1982.01 625.854C1980.69 625.854 1979.66 626.424 1978.91 627.562C1978.17 628.686 1977.8 630.417 1977.8 632.757ZM1982.01 639.659C1983.34 639.659 1984.38 639.098 1985.13 637.974C1985.87 636.835 1986.24 635.096 1986.24 632.757C1986.24 630.771 1986.01 629.232 1985.53 628.14L1979.17 638.459C1979.86 639.259 1980.8 639.659 1982.01 639.659Z" fill="url(#paint71_linear_420_2041)"/>
<path d="M1983.72 665.859H1987.93V667.082H1977.02V665.859H1981.89V652.884L1977.25 655.124L1976.45 654.085L1982.18 651.222H1983.72V665.859Z" fill="url(#paint72_linear_420_2041)"/>
<path d="M1983.72 692.243H1987.93V693.466H1977.02V692.243H1981.89V679.268L1977.25 681.508L1976.45 680.469L1982.18 677.606H1983.72V692.243Z" fill="url(#paint73_linear_420_2041)"/>
<path d="M1902.24 387.152C1904.28 387.152 1905.83 387.852 1906.88 389.253C1907.95 390.638 1908.48 392.654 1908.48 395.301C1908.48 397.948 1907.95 399.972 1906.88 401.373C1905.83 402.773 1904.28 403.474 1902.24 403.474C1900.22 403.474 1898.67 402.773 1897.6 401.373C1896.53 399.972 1896 397.948 1896 395.301C1896 392.669 1896.53 390.653 1897.6 389.253C1898.67 387.852 1900.22 387.152 1902.24 387.152ZM1898.03 395.301C1898.03 397.179 1898.24 398.649 1898.66 399.711L1905.02 389.484C1904.35 388.76 1903.43 388.399 1902.24 388.399C1900.92 388.399 1899.89 388.968 1899.15 390.107C1898.41 391.23 1898.03 392.962 1898.03 395.301ZM1902.24 402.204C1903.58 402.204 1904.62 401.642 1905.36 400.519C1906.11 399.38 1906.48 397.641 1906.48 395.301C1906.48 393.316 1906.24 391.777 1905.76 390.684L1899.41 401.003C1900.09 401.804 1901.04 402.204 1902.24 402.204Z" fill="url(#paint74_linear_420_2041)"/>
<path d="M1902.24 413.536C1904.28 413.536 1905.83 414.236 1906.88 415.637C1907.95 417.022 1908.48 419.038 1908.48 421.685C1908.48 424.332 1907.95 426.356 1906.88 427.757C1905.83 429.157 1904.28 429.858 1902.24 429.858C1900.22 429.858 1898.67 429.157 1897.6 427.757C1896.53 426.356 1896 424.332 1896 421.685C1896 419.053 1896.53 417.037 1897.6 415.637C1898.67 414.236 1900.22 413.536 1902.24 413.536ZM1898.03 421.685C1898.03 423.563 1898.24 425.033 1898.66 426.095L1905.02 415.867C1904.35 415.144 1903.43 414.782 1902.24 414.782C1900.92 414.782 1899.89 415.352 1899.15 416.491C1898.41 417.614 1898.03 419.346 1898.03 421.685ZM1902.24 428.588C1903.58 428.588 1904.62 428.026 1905.36 426.903C1906.11 425.764 1906.48 424.025 1906.48 421.685C1906.48 419.7 1906.24 418.161 1905.76 417.068L1899.41 427.387C1900.09 428.188 1901.04 428.588 1902.24 428.588Z" fill="url(#paint75_linear_420_2041)"/>
<path d="M1903.96 454.787H1908.17V456.011H1897.26V454.787H1902.13V441.813L1897.49 444.052L1896.69 443.013L1902.41 440.151H1903.96V454.787Z" fill="url(#paint76_linear_420_2041)"/>
<path d="M1902.24 466.304C1904.28 466.304 1905.83 467.004 1906.88 468.405C1907.95 469.79 1908.48 471.806 1908.48 474.453C1908.48 477.1 1907.95 479.124 1906.88 480.525C1905.83 481.925 1904.28 482.625 1902.24 482.625C1900.22 482.625 1898.67 481.925 1897.6 480.525C1896.53 479.124 1896 477.1 1896 474.453C1896 471.821 1896.53 469.805 1897.6 468.405C1898.67 467.004 1900.22 466.304 1902.24 466.304ZM1898.03 474.453C1898.03 476.331 1898.24 477.801 1898.66 478.862L1905.02 468.635C1904.35 467.912 1903.43 467.55 1902.24 467.55C1900.92 467.55 1899.89 468.12 1899.15 469.259C1898.41 470.382 1898.03 472.114 1898.03 474.453ZM1902.24 481.356C1903.58 481.356 1904.62 480.794 1905.36 479.67C1906.11 478.532 1906.48 476.792 1906.48 474.453C1906.48 472.468 1906.24 470.929 1905.76 469.836L1899.41 480.155C1900.09 480.956 1901.04 481.356 1902.24 481.356Z" fill="url(#paint77_linear_420_2041)"/>
<path d="M1903.96 507.555H1908.17V508.779H1897.26V507.555H1902.13V494.581L1897.49 496.82L1896.69 495.781L1902.41 492.919H1903.96V507.555Z" fill="url(#paint78_linear_420_2041)"/>
<path d="M1903.96 533.939H1908.17V535.163H1897.26V533.939H1902.13V520.965L1897.49 523.204L1896.69 522.165L1902.41 519.302H1903.96V533.939Z" fill="url(#paint79_linear_420_2041)"/>
<path d="M1957.14 349.251H1961.35V350.475H1950.44V349.251H1955.3V336.277L1950.67 338.516L1949.86 337.477L1955.59 334.615H1957.14V349.251Z" fill="url(#paint80_linear_420_2041)"/>
<path d="M1955.42 360.768C1957.46 360.768 1959.01 361.468 1960.06 362.869C1961.13 364.254 1961.66 366.27 1961.66 368.917C1961.66 371.564 1961.13 373.588 1960.06 374.989C1959.01 376.389 1957.46 377.09 1955.42 377.09C1953.39 377.09 1951.85 376.389 1950.78 374.989C1949.71 373.588 1949.18 371.564 1949.18 368.917C1949.18 366.285 1949.71 364.269 1950.78 362.869C1951.85 361.468 1953.39 360.768 1955.42 360.768ZM1951.21 368.917C1951.21 370.795 1951.42 372.265 1951.84 373.327L1958.2 363.1C1957.53 362.376 1956.6 362.015 1955.42 362.015C1954.1 362.015 1953.07 362.584 1952.33 363.723C1951.58 364.846 1951.21 366.578 1951.21 368.917ZM1955.42 375.82C1956.75 375.82 1957.79 375.258 1958.54 374.135C1959.28 372.996 1959.66 371.257 1959.66 368.917C1959.66 366.932 1959.42 365.393 1958.94 364.3L1952.58 374.619C1953.27 375.42 1954.22 375.82 1955.42 375.82Z" fill="url(#paint81_linear_420_2041)"/>
<path d="M1957.14 402.019H1961.35V403.243H1950.44V402.019H1955.3V389.045L1950.67 391.284L1949.86 390.245L1955.59 387.383H1957.14V402.019Z" fill="url(#paint82_linear_420_2041)"/>
<path d="M1957.14 428.403H1961.35V429.627H1950.44V428.403H1955.3V415.429L1950.67 417.668L1949.86 416.629L1955.59 413.767H1957.14V428.403Z" fill="url(#paint83_linear_420_2041)"/>
<path d="M1955.42 439.92C1957.46 439.92 1959.01 440.62 1960.06 442.021C1961.13 443.406 1961.66 445.422 1961.66 448.069C1961.66 450.716 1961.13 452.74 1960.06 454.141C1959.01 455.541 1957.46 456.242 1955.42 456.242C1953.39 456.242 1951.85 455.541 1950.78 454.141C1949.71 452.74 1949.18 450.716 1949.18 448.069C1949.18 445.437 1949.71 443.421 1950.78 442.021C1951.85 440.62 1953.39 439.92 1955.42 439.92ZM1951.21 448.069C1951.21 449.947 1951.42 451.417 1951.84 452.479L1958.2 442.251C1957.53 441.528 1956.6 441.166 1955.42 441.166C1954.1 441.166 1953.07 441.736 1952.33 442.875C1951.58 443.998 1951.21 445.73 1951.21 448.069ZM1955.42 454.972C1956.75 454.972 1957.79 454.41 1958.54 453.287C1959.28 452.148 1959.66 450.408 1959.66 448.069C1959.66 446.084 1959.42 444.545 1958.94 443.452L1952.58 453.771C1953.27 454.572 1954.22 454.972 1955.42 454.972Z" fill="url(#paint84_linear_420_2041)"/>
<path d="M1957.14 481.171H1961.35V482.395H1950.44V481.171H1955.3V468.197L1950.67 470.436L1949.86 469.397L1955.59 466.535H1957.14V481.171Z" fill="url(#paint85_linear_420_2041)"/>
<path d="M1957.14 507.555H1961.35V508.779H1950.44V507.555H1955.3V494.581L1950.67 496.82L1949.86 495.781L1955.59 492.919H1957.14V507.555Z" fill="url(#paint86_linear_420_2041)"/>
<path d="M1955.42 519.072C1957.46 519.072 1959.01 519.772 1960.06 521.172C1961.13 522.558 1961.66 524.574 1961.66 527.221C1961.66 529.868 1961.13 531.892 1960.06 533.293C1959.01 534.693 1957.46 535.393 1955.42 535.393C1953.39 535.393 1951.85 534.693 1950.78 533.293C1949.71 531.892 1949.18 529.868 1949.18 527.221C1949.18 524.589 1949.71 522.573 1950.78 521.172C1951.85 519.772 1953.39 519.072 1955.42 519.072ZM1951.21 527.221C1951.21 529.099 1951.42 530.568 1951.84 531.63L1958.2 521.403C1957.53 520.68 1956.6 520.318 1955.42 520.318C1954.1 520.318 1953.07 520.888 1952.33 522.027C1951.58 523.15 1951.21 524.882 1951.21 527.221ZM1955.42 534.124C1956.75 534.124 1957.79 533.562 1958.54 532.438C1959.28 531.299 1959.66 529.56 1959.66 527.221C1959.66 525.236 1959.42 523.696 1958.94 522.604L1952.58 532.923C1953.27 533.723 1954.22 534.124 1955.42 534.124Z" fill="url(#paint87_linear_420_2041)"/>
<path d="M1957.14 560.323H1961.35V561.546H1950.44V560.323H1955.3V547.349L1950.67 549.588L1949.86 548.549L1955.59 545.686H1957.14V560.323Z" fill="url(#paint88_linear_420_2041)"/>
<path d="M1955.42 571.84C1957.46 571.84 1959.01 572.54 1960.06 573.94C1961.13 575.326 1961.66 577.342 1961.66 579.989C1961.66 582.636 1961.13 584.66 1960.06 586.06C1959.01 587.461 1957.46 588.161 1955.42 588.161C1953.39 588.161 1951.85 587.461 1950.78 586.06C1949.71 584.66 1949.18 582.636 1949.18 579.989C1949.18 577.357 1949.71 575.341 1950.78 573.94C1951.85 572.54 1953.39 571.84 1955.42 571.84ZM1951.21 579.989C1951.21 581.867 1951.42 583.336 1951.84 584.398L1958.2 574.171C1957.53 573.448 1956.6 573.086 1955.42 573.086C1954.1 573.086 1953.07 573.656 1952.33 574.795C1951.58 575.918 1951.21 577.649 1951.21 579.989ZM1955.42 586.892C1956.75 586.892 1957.79 586.33 1958.54 585.206C1959.28 584.067 1959.66 582.328 1959.66 579.989C1959.66 578.003 1959.42 576.464 1958.94 575.372L1952.58 585.691C1953.27 586.491 1954.22 586.892 1955.42 586.892Z" fill="url(#paint89_linear_420_2041)"/>
<path d="M2008.59 334.384C2010.64 334.384 2012.18 335.084 2013.23 336.485C2014.3 337.87 2014.84 339.886 2014.84 342.533C2014.84 345.18 2014.3 347.204 2013.23 348.605C2012.18 350.005 2010.64 350.706 2008.59 350.706C2006.57 350.706 2005.02 350.005 2003.96 348.605C2002.89 347.204 2002.35 345.18 2002.35 342.533C2002.35 339.901 2002.89 337.885 2003.96 336.485C2005.02 335.084 2006.57 334.384 2008.59 334.384ZM2004.39 342.533C2004.39 344.411 2004.6 345.881 2005.02 346.943L2011.37 336.716C2010.7 335.992 2009.78 335.631 2008.59 335.631C2007.28 335.631 2006.25 336.2 2005.5 337.339C2004.76 338.462 2004.39 340.194 2004.39 342.533ZM2008.59 349.436C2009.93 349.436 2010.97 348.874 2011.72 347.751C2012.46 346.612 2012.83 344.873 2012.83 342.533C2012.83 340.548 2012.59 339.009 2012.12 337.916L2005.76 348.236C2006.45 349.036 2007.39 349.436 2008.59 349.436Z" fill="url(#paint90_linear_420_2041)"/>
<path d="M2010.31 375.635H2014.52V376.859H2003.61V375.635H2008.48V362.661L2003.84 364.9L2003.04 363.861L2008.77 360.999H2010.31V375.635Z" fill="url(#paint91_linear_420_2041)"/>
<path d="M2010.31 402.019H2014.52V403.243H2003.61V402.019H2008.48V389.045L2003.84 391.284L2003.04 390.245L2008.77 387.383H2010.31V402.019Z" fill="url(#paint92_linear_420_2041)"/>
<path d="M2008.59 413.536C2010.64 413.536 2012.18 414.236 2013.23 415.637C2014.3 417.022 2014.84 419.038 2014.84 421.685C2014.84 424.332 2014.3 426.356 2013.23 427.757C2012.18 429.157 2010.64 429.858 2008.59 429.858C2006.57 429.858 2005.02 429.157 2003.96 427.757C2002.89 426.356 2002.35 424.332 2002.35 421.685C2002.35 419.053 2002.89 417.037 2003.96 415.637C2005.02 414.236 2006.57 413.536 2008.59 413.536ZM2004.39 421.685C2004.39 423.563 2004.6 425.033 2005.02 426.095L2011.37 415.867C2010.7 415.144 2009.78 414.782 2008.59 414.782C2007.28 414.782 2006.25 415.352 2005.5 416.491C2004.76 417.614 2004.39 419.346 2004.39 421.685ZM2008.59 428.588C2009.93 428.588 2010.97 428.026 2011.72 426.903C2012.46 425.764 2012.83 424.025 2012.83 421.685C2012.83 419.7 2012.59 418.161 2012.12 417.068L2005.76 427.387C2006.45 428.188 2007.39 428.588 2008.59 428.588Z" fill="url(#paint93_linear_420_2041)"/>
<path d="M2008.59 439.92C2010.64 439.92 2012.18 440.62 2013.23 442.021C2014.3 443.406 2014.84 445.422 2014.84 448.069C2014.84 450.716 2014.3 452.74 2013.23 454.141C2012.18 455.541 2010.64 456.242 2008.59 456.242C2006.57 456.242 2005.02 455.541 2003.96 454.141C2002.89 452.74 2002.35 450.716 2002.35 448.069C2002.35 445.437 2002.89 443.421 2003.96 442.021C2005.02 440.62 2006.57 439.92 2008.59 439.92ZM2004.39 448.069C2004.39 449.947 2004.6 451.417 2005.02 452.479L2011.37 442.251C2010.7 441.528 2009.78 441.166 2008.59 441.166C2007.28 441.166 2006.25 441.736 2005.5 442.875C2004.76 443.998 2004.39 445.73 2004.39 448.069ZM2008.59 454.972C2009.93 454.972 2010.97 454.41 2011.72 453.287C2012.46 452.148 2012.83 450.408 2012.83 448.069C2012.83 446.084 2012.59 444.545 2012.12 443.452L2005.76 453.771C2006.45 454.572 2007.39 454.972 2008.59 454.972Z" fill="url(#paint94_linear_420_2041)"/>
</g>
<defs>
<filter id="filter0_f_420_2041" x="0.809998" y="0.809998" width="2720.38" height="1610.67" filterUnits="userSpaceOnUse" color-interpolation-filters="sRGB">
<feFlood flood-opacity="0" result="BackgroundImageFix"/>
<feBlend mode="normal" in="SourceGraphic" in2="BackgroundImageFix" result="shape"/>
<feGaussianBlur stdDeviation="200.095" result="effect1_foregroundBlur_420_2041"/>
</filter>
<linearGradient id="paint0_linear_420_2041" x1="1361" y1="401" x2="1361" y2="1211.29" gradientUnits="userSpaceOnUse">
<stop stop-color="#F4334A"/>
<stop offset="0.828125" stop-color="#3835BA" stop-opacity="0.454291"/>
<stop offset="0.901042" stop-color="#353BCB" stop-opacity="0.296875"/>
<stop offset="1" stop-color="#4F4CFA" stop-opacity="0"/>
</linearGradient>
<linearGradient id="paint1_linear_420_2041" x1="712.282" y1="712" x2="712.282" y2="1072.44" gradientUnits="userSpaceOnUse">
<stop stop-color="#474DCA"/>
<stop offset="1" stop-color="#E94D4D" stop-opacity="0.48"/>
</linearGradient>
<linearGradient id="paint2_linear_420_2041" x1="712.282" y1="712" x2="712.282" y2="1072.44" gradientUnits="userSpaceOnUse">
<stop stop-color="#474DCA"/>
<stop offset="1" stop-color="#E94D4D" stop-opacity="0.48"/>
</linearGradient>
<linearGradient id="paint3_linear_420_2041" x1="712.282" y1="712" x2="712.282" y2="1072.44" gradientUnits="userSpaceOnUse">
<stop stop-color="#474DCA"/>
<stop offset="1" stop-color="#E94D4D" stop-opacity="0.48"/>
</linearGradient>
<linearGradient id="paint4_linear_420_2041" x1="712.282" y1="712" x2="712.282" y2="1072.44" gradientUnits="userSpaceOnUse">
<stop stop-color="#474DCA"/>
<stop offset="1" stop-color="#E94D4D" stop-opacity="0.48"/>
</linearGradient>
<linearGradient id="paint5_linear_420_2041" x1="712.282" y1="712" x2="712.282" y2="1072.44" gradientUnits="userSpaceOnUse">
<stop stop-color="#474DCA"/>
<stop offset="1" stop-color="#E94D4D" stop-opacity="0.48"/>
</linearGradient>
<linearGradient id="paint6_linear_420_2041" x1="712.282" y1="712" x2="712.282" y2="1072.44" gradientUnits="userSpaceOnUse">
<stop stop-color="#474DCA"/>
<stop offset="1" stop-color="#E94D4D" stop-opacity="0.48"/>
</linearGradient>
<linearGradient id="paint7_linear_420_2041" x1="712.282" y1="712" x2="712.282" y2="1072.44" gradientUnits="userSpaceOnUse">
<stop stop-color="#474DCA"/>
<stop offset="1" stop-color="#E94D4D" stop-opacity="0.48"/>
</linearGradient>
<linearGradient id="paint8_linear_420_2041" x1="712.282" y1="712" x2="712.282" y2="1072.44" gradientUnits="userSpaceOnUse">
<stop stop-color="#474DCA"/>
<stop offset="1" stop-color="#E94D4D" stop-opacity="0.48"/>
</linearGradient>
<linearGradient id="paint9_linear_420_2041" x1="712.282" y1="712" x2="712.282" y2="1072.44" gradientUnits="userSpaceOnUse">
<stop stop-color="#474DCA"/>
<stop offset="1" stop-color="#E94D4D" stop-opacity="0.48"/>
</linearGradient>
<linearGradient id="paint10_linear_420_2041" x1="712.282" y1="712" x2="712.282" y2="1072.44" gradientUnits="userSpaceOnUse">
<stop stop-color="#474DCA"/>
<stop offset="1" stop-color="#E94D4D" stop-opacity="0.48"/>
</linearGradient>
<linearGradient id="paint11_linear_420_2041" x1="712.282" y1="712" x2="712.282" y2="1072.44" gradientUnits="userSpaceOnUse">
<stop stop-color="#474DCA"/>
<stop offset="1" stop-color="#E94D4D" stop-opacity="0.48"/>
</linearGradient>
<linearGradient id="paint12_linear_420_2041" x1="712.282" y1="712" x2="712.282" y2="1072.44" gradientUnits="userSpaceOnUse">
<stop stop-color="#474DCA"/>
<stop offset="1" stop-color="#E94D4D" stop-opacity="0.48"/>
</linearGradient>
<linearGradient id="paint13_linear_420_2041" x1="712.282" y1="712" x2="712.282" y2="1072.44" gradientUnits="userSpaceOnUse">
<stop stop-color="#474DCA"/>
<stop offset="1" stop-color="#E94D4D" stop-opacity="0.48"/>
</linearGradient>
<linearGradient id="paint14_linear_420_2041" x1="712.282" y1="712" x2="712.282" y2="1072.44" gradientUnits="userSpaceOnUse">
<stop stop-color="#474DCA"/>
<stop offset="1" stop-color="#E94D4D" stop-opacity="0.48"/>
</linearGradient>
<linearGradient id="paint15_linear_420_2041" x1="712.282" y1="712" x2="712.282" y2="1072.44" gradientUnits="userSpaceOnUse">
<stop stop-color="#474DCA"/>
<stop offset="1" stop-color="#E94D4D" stop-opacity="0.48"/>
</linearGradient>
<linearGradient id="paint16_linear_420_2041" x1="712.282" y1="712" x2="712.282" y2="1072.44" gradientUnits="userSpaceOnUse">
<stop stop-color="#474DCA"/>
<stop offset="1" stop-color="#E94D4D" stop-opacity="0.48"/>
</linearGradient>
<linearGradient id="paint17_linear_420_2041" x1="712.282" y1="712" x2="712.282" y2="1072.44" gradientUnits="userSpaceOnUse">
<stop stop-color="#474DCA"/>
<stop offset="1" stop-color="#E94D4D" stop-opacity="0.48"/>
</linearGradient>
<linearGradient id="paint18_linear_420_2041" x1="712.282" y1="712" x2="712.282" y2="1072.44" gradientUnits="userSpaceOnUse">
<stop stop-color="#474DCA"/>
<stop offset="1" stop-color="#E94D4D" stop-opacity="0.48"/>
</linearGradient>
<linearGradient id="paint19_linear_420_2041" x1="712.282" y1="712" x2="712.282" y2="1072.44" gradientUnits="userSpaceOnUse">
<stop stop-color="#474DCA"/>
<stop offset="1" stop-color="#E94D4D" stop-opacity="0.48"/>
</linearGradient>
<linearGradient id="paint20_linear_420_2041" x1="712.282" y1="712" x2="712.282" y2="1072.44" gradientUnits="userSpaceOnUse">
<stop stop-color="#474DCA"/>
<stop offset="1" stop-color="#E94D4D" stop-opacity="0.48"/>
</linearGradient>
<linearGradient id="paint21_linear_420_2041" x1="712.282" y1="712" x2="712.282" y2="1072.44" gradientUnits="userSpaceOnUse">
<stop stop-color="#474DCA"/>
<stop offset="1" stop-color="#E94D4D" stop-opacity="0.48"/>
</linearGradient>
<linearGradient id="paint22_linear_420_2041" x1="712.282" y1="712" x2="712.282" y2="1072.44" gradientUnits="userSpaceOnUse">
<stop stop-color="#474DCA"/>
<stop offset="1" stop-color="#E94D4D" stop-opacity="0.48"/>
</linearGradient>
<linearGradient id="paint23_linear_420_2041" x1="712.282" y1="712" x2="712.282" y2="1072.44" gradientUnits="userSpaceOnUse">
<stop stop-color="#474DCA"/>
<stop offset="1" stop-color="#E94D4D" stop-opacity="0.48"/>
</linearGradient>
<linearGradient id="paint24_linear_420_2041" x1="712.282" y1="712" x2="712.282" y2="1072.44" gradientUnits="userSpaceOnUse">
<stop stop-color="#474DCA"/>
<stop offset="1" stop-color="#E94D4D" stop-opacity="0.48"/>
</linearGradient>
<linearGradient id="paint25_linear_420_2041" x1="712.282" y1="712" x2="712.282" y2="1072.44" gradientUnits="userSpaceOnUse">
<stop stop-color="#474DCA"/>
<stop offset="1" stop-color="#E94D4D" stop-opacity="0.48"/>
</linearGradient>
<linearGradient id="paint26_linear_420_2041" x1="712.282" y1="712" x2="712.282" y2="1072.44" gradientUnits="userSpaceOnUse">
<stop stop-color="#474DCA"/>
<stop offset="1" stop-color="#E94D4D" stop-opacity="0.48"/>
</linearGradient>
<linearGradient id="paint27_linear_420_2041" x1="712.282" y1="712" x2="712.282" y2="1072.44" gradientUnits="userSpaceOnUse">
<stop stop-color="#474DCA"/>
<stop offset="1" stop-color="#E94D4D" stop-opacity="0.48"/>
</linearGradient>
<linearGradient id="paint28_linear_420_2041" x1="712.282" y1="712" x2="712.282" y2="1072.44" gradientUnits="userSpaceOnUse">
<stop stop-color="#474DCA"/>
<stop offset="1" stop-color="#E94D4D" stop-opacity="0.48"/>
</linearGradient>
<linearGradient id="paint29_linear_420_2041" x1="712.282" y1="712" x2="712.282" y2="1072.44" gradientUnits="userSpaceOnUse">
<stop stop-color="#474DCA"/>
<stop offset="1" stop-color="#E94D4D" stop-opacity="0.48"/>
</linearGradient>
<linearGradient id="paint30_linear_420_2041" x1="712.282" y1="712" x2="712.282" y2="1072.44" gradientUnits="userSpaceOnUse">
<stop stop-color="#474DCA"/>
<stop offset="1" stop-color="#E94D4D" stop-opacity="0.48"/>
</linearGradient>
<linearGradient id="paint31_linear_420_2041" x1="712.282" y1="712" x2="712.282" y2="1072.44" gradientUnits="userSpaceOnUse">
<stop stop-color="#474DCA"/>
<stop offset="1" stop-color="#E94D4D" stop-opacity="0.48"/>
</linearGradient>
<linearGradient id="paint32_linear_420_2041" x1="712.282" y1="712" x2="712.282" y2="1072.44" gradientUnits="userSpaceOnUse">
<stop stop-color="#474DCA"/>
<stop offset="1" stop-color="#E94D4D" stop-opacity="0.48"/>
</linearGradient>
<linearGradient id="paint33_linear_420_2041" x1="712.282" y1="712" x2="712.282" y2="1072.44" gradientUnits="userSpaceOnUse">
<stop stop-color="#474DCA"/>
<stop offset="1" stop-color="#E94D4D" stop-opacity="0.48"/>
</linearGradient>
<linearGradient id="paint34_linear_420_2041" x1="712.282" y1="712" x2="712.282" y2="1072.44" gradientUnits="userSpaceOnUse">
<stop stop-color="#474DCA"/>
<stop offset="1" stop-color="#E94D4D" stop-opacity="0.48"/>
</linearGradient>
<linearGradient id="paint35_linear_420_2041" x1="712.282" y1="712" x2="712.282" y2="1072.44" gradientUnits="userSpaceOnUse">
<stop stop-color="#474DCA"/>
<stop offset="1" stop-color="#E94D4D" stop-opacity="0.48"/>
</linearGradient>
<linearGradient id="paint36_linear_420_2041" x1="712.282" y1="712" x2="712.282" y2="1072.44" gradientUnits="userSpaceOnUse">
<stop stop-color="#474DCA"/>
<stop offset="1" stop-color="#E94D4D" stop-opacity="0.48"/>
</linearGradient>
<linearGradient id="paint37_linear_420_2041" x1="712.282" y1="712" x2="712.282" y2="1072.44" gradientUnits="userSpaceOnUse">
<stop stop-color="#474DCA"/>
<stop offset="1" stop-color="#E94D4D" stop-opacity="0.48"/>
</linearGradient>
<linearGradient id="paint38_linear_420_2041" x1="712.282" y1="712" x2="712.282" y2="1072.44" gradientUnits="userSpaceOnUse">
<stop stop-color="#474DCA"/>
<stop offset="1" stop-color="#E94D4D" stop-opacity="0.48"/>
</linearGradient>
<linearGradient id="paint39_linear_420_2041" x1="712.282" y1="712" x2="712.282" y2="1072.44" gradientUnits="userSpaceOnUse">
<stop stop-color="#474DCA"/>
<stop offset="1" stop-color="#E94D4D" stop-opacity="0.48"/>
</linearGradient>
<linearGradient id="paint40_linear_420_2041" x1="712.282" y1="712" x2="712.282" y2="1072.44" gradientUnits="userSpaceOnUse">
<stop stop-color="#474DCA"/>
<stop offset="1" stop-color="#E94D4D" stop-opacity="0.48"/>
</linearGradient>
<linearGradient id="paint41_linear_420_2041" x1="712.282" y1="712" x2="712.282" y2="1072.44" gradientUnits="userSpaceOnUse">
<stop stop-color="#474DCA"/>
<stop offset="1" stop-color="#E94D4D" stop-opacity="0.48"/>
</linearGradient>
<linearGradient id="paint42_linear_420_2041" x1="712.282" y1="712" x2="712.282" y2="1072.44" gradientUnits="userSpaceOnUse">
<stop stop-color="#474DCA"/>
<stop offset="1" stop-color="#E94D4D" stop-opacity="0.48"/>
</linearGradient>
<linearGradient id="paint43_linear_420_2041" x1="712.282" y1="712" x2="712.282" y2="1072.44" gradientUnits="userSpaceOnUse">
<stop stop-color="#474DCA"/>
<stop offset="1" stop-color="#E94D4D" stop-opacity="0.48"/>
</linearGradient>
<linearGradient id="paint44_linear_420_2041" x1="712.282" y1="712" x2="712.282" y2="1072.44" gradientUnits="userSpaceOnUse">
<stop stop-color="#474DCA"/>
<stop offset="1" stop-color="#E94D4D" stop-opacity="0.48"/>
</linearGradient>
<linearGradient id="paint45_linear_420_2041" x1="712.282" y1="712" x2="712.282" y2="1072.44" gradientUnits="userSpaceOnUse">
<stop stop-color="#474DCA"/>
<stop offset="1" stop-color="#E94D4D" stop-opacity="0.48"/>
</linearGradient>
<linearGradient id="paint46_linear_420_2041" x1="712.282" y1="712" x2="712.282" y2="1072.44" gradientUnits="userSpaceOnUse">
<stop stop-color="#474DCA"/>
<stop offset="1" stop-color="#E94D4D" stop-opacity="0.48"/>
</linearGradient>
<linearGradient id="paint47_linear_420_2041" x1="712.282" y1="712" x2="712.282" y2="1072.44" gradientUnits="userSpaceOnUse">
<stop stop-color="#474DCA"/>
<stop offset="1" stop-color="#E94D4D" stop-opacity="0.48"/>
</linearGradient>
<linearGradient id="paint48_linear_420_2041" x1="1955.42" y1="308" x2="1955.42" y2="653.899" gradientUnits="userSpaceOnUse">
<stop stop-color="#8C98FF"/>
<stop offset="1" stop-color="#D94A64"/>
</linearGradient>
<linearGradient id="paint49_linear_420_2041" x1="1955.42" y1="308" x2="1955.42" y2="653.899" gradientUnits="userSpaceOnUse">
<stop stop-color="#8C98FF"/>
<stop offset="1" stop-color="#D94A64"/>
</linearGradient>
<linearGradient id="paint50_linear_420_2041" x1="1955.42" y1="308" x2="1955.42" y2="653.899" gradientUnits="userSpaceOnUse">
<stop stop-color="#8C98FF"/>
<stop offset="1" stop-color="#D94A64"/>
</linearGradient>
<linearGradient id="paint51_linear_420_2041" x1="1955.42" y1="308" x2="1955.42" y2="653.899" gradientUnits="userSpaceOnUse">
<stop stop-color="#8C98FF"/>
<stop offset="1" stop-color="#D94A64"/>
</linearGradient>
<linearGradient id="paint52_linear_420_2041" x1="1955.42" y1="308" x2="1955.42" y2="653.899" gradientUnits="userSpaceOnUse">
<stop stop-color="#8C98FF"/>
<stop offset="1" stop-color="#D94A64"/>
</linearGradient>
<linearGradient id="paint53_linear_420_2041" x1="1955.42" y1="308" x2="1955.42" y2="653.899" gradientUnits="userSpaceOnUse">
<stop stop-color="#8C98FF"/>
<stop offset="1" stop-color="#D94A64"/>
</linearGradient>
<linearGradient id="paint54_linear_420_2041" x1="1955.42" y1="308" x2="1955.42" y2="653.899" gradientUnits="userSpaceOnUse">
<stop stop-color="#8C98FF"/>
<stop offset="1" stop-color="#D94A64"/>
</linearGradient>
<linearGradient id="paint55_linear_420_2041" x1="1955.42" y1="308" x2="1955.42" y2="653.899" gradientUnits="userSpaceOnUse">
<stop stop-color="#8C98FF"/>
<stop offset="1" stop-color="#D94A64"/>
</linearGradient>
<linearGradient id="paint56_linear_420_2041" x1="1955.42" y1="308" x2="1955.42" y2="653.899" gradientUnits="userSpaceOnUse">
<stop stop-color="#8C98FF"/>
<stop offset="1" stop-color="#D94A64"/>
</linearGradient>
<linearGradient id="paint57_linear_420_2041" x1="1955.42" y1="308" x2="1955.42" y2="653.899" gradientUnits="userSpaceOnUse">
<stop stop-color="#8C98FF"/>
<stop offset="1" stop-color="#D94A64"/>
</linearGradient>
<linearGradient id="paint58_linear_420_2041" x1="1955.42" y1="308" x2="1955.42" y2="653.899" gradientUnits="userSpaceOnUse">
<stop stop-color="#8C98FF"/>
<stop offset="1" stop-color="#D94A64"/>
</linearGradient>
<linearGradient id="paint59_linear_420_2041" x1="1955.42" y1="308" x2="1955.42" y2="653.899" gradientUnits="userSpaceOnUse">
<stop stop-color="#8C98FF"/>
<stop offset="1" stop-color="#D94A64"/>
</linearGradient>
<linearGradient id="paint60_linear_420_2041" x1="1955.42" y1="308" x2="1955.42" y2="653.899" gradientUnits="userSpaceOnUse">
<stop stop-color="#8C98FF"/>
<stop offset="1" stop-color="#D94A64"/>
</linearGradient>
<linearGradient id="paint61_linear_420_2041" x1="1955.42" y1="308" x2="1955.42" y2="653.899" gradientUnits="userSpaceOnUse">
<stop stop-color="#8C98FF"/>
<stop offset="1" stop-color="#D94A64"/>
</linearGradient>
<linearGradient id="paint62_linear_420_2041" x1="1955.42" y1="308" x2="1955.42" y2="653.899" gradientUnits="userSpaceOnUse">
<stop stop-color="#8C98FF"/>
<stop offset="1" stop-color="#D94A64"/>
</linearGradient>
<linearGradient id="paint63_linear_420_2041" x1="1955.42" y1="308" x2="1955.42" y2="653.899" gradientUnits="userSpaceOnUse">
<stop stop-color="#8C98FF"/>
<stop offset="1" stop-color="#D94A64"/>
</linearGradient>
<linearGradient id="paint64_linear_420_2041" x1="1955.42" y1="308" x2="1955.42" y2="653.899" gradientUnits="userSpaceOnUse">
<stop stop-color="#8C98FF"/>
<stop offset="1" stop-color="#D94A64"/>
</linearGradient>
<linearGradient id="paint65_linear_420_2041" x1="1955.42" y1="308" x2="1955.42" y2="653.899" gradientUnits="userSpaceOnUse">
<stop stop-color="#8C98FF"/>
<stop offset="1" stop-color="#D94A64"/>
</linearGradient>
<linearGradient id="paint66_linear_420_2041" x1="1955.42" y1="308" x2="1955.42" y2="653.899" gradientUnits="userSpaceOnUse">
<stop stop-color="#8C98FF"/>
<stop offset="1" stop-color="#D94A64"/>
</linearGradient>
<linearGradient id="paint67_linear_420_2041" x1="1955.42" y1="308" x2="1955.42" y2="653.899" gradientUnits="userSpaceOnUse">
<stop stop-color="#8C98FF"/>
<stop offset="1" stop-color="#D94A64"/>
</linearGradient>
<linearGradient id="paint68_linear_420_2041" x1="1955.42" y1="308" x2="1955.42" y2="653.899" gradientUnits="userSpaceOnUse">
<stop stop-color="#8C98FF"/>
<stop offset="1" stop-color="#D94A64"/>
</linearGradient>
<linearGradient id="paint69_linear_420_2041" x1="1955.42" y1="308" x2="1955.42" y2="653.899" gradientUnits="userSpaceOnUse">
<stop stop-color="#8C98FF"/>
<stop offset="1" stop-color="#D94A64"/>
</linearGradient>
<linearGradient id="paint70_linear_420_2041" x1="1955.42" y1="308" x2="1955.42" y2="653.899" gradientUnits="userSpaceOnUse">
<stop stop-color="#8C98FF"/>
<stop offset="1" stop-color="#D94A64"/>
</linearGradient>
<linearGradient id="paint71_linear_420_2041" x1="1955.42" y1="308" x2="1955.42" y2="653.899" gradientUnits="userSpaceOnUse">
<stop stop-color="#8C98FF"/>
<stop offset="1" stop-color="#D94A64"/>
</linearGradient>
<linearGradient id="paint72_linear_420_2041" x1="1955.42" y1="308" x2="1955.42" y2="653.899" gradientUnits="userSpaceOnUse">
<stop stop-color="#8C98FF"/>
<stop offset="1" stop-color="#D94A64"/>
</linearGradient>
<linearGradient id="paint73_linear_420_2041" x1="1955.42" y1="308" x2="1955.42" y2="653.899" gradientUnits="userSpaceOnUse">
<stop stop-color="#8C98FF"/>
<stop offset="1" stop-color="#D94A64"/>
</linearGradient>
<linearGradient id="paint74_linear_420_2041" x1="1955.42" y1="308" x2="1955.42" y2="653.899" gradientUnits="userSpaceOnUse">
<stop stop-color="#8C98FF"/>
<stop offset="1" stop-color="#D94A64"/>
</linearGradient>
<linearGradient id="paint75_linear_420_2041" x1="1955.42" y1="308" x2="1955.42" y2="653.899" gradientUnits="userSpaceOnUse">
<stop stop-color="#8C98FF"/>
<stop offset="1" stop-color="#D94A64"/>
</linearGradient>
<linearGradient id="paint76_linear_420_2041" x1="1955.42" y1="308" x2="1955.42" y2="653.899" gradientUnits="userSpaceOnUse">
<stop stop-color="#8C98FF"/>
<stop offset="1" stop-color="#D94A64"/>
</linearGradient>
<linearGradient id="paint77_linear_420_2041" x1="1955.42" y1="308" x2="1955.42" y2="653.899" gradientUnits="userSpaceOnUse">
<stop stop-color="#8C98FF"/>
<stop offset="1" stop-color="#D94A64"/>
</linearGradient>
<linearGradient id="paint78_linear_420_2041" x1="1955.42" y1="308" x2="1955.42" y2="653.899" gradientUnits="userSpaceOnUse">
<stop stop-color="#8C98FF"/>
<stop offset="1" stop-color="#D94A64"/>
</linearGradient>
<linearGradient id="paint79_linear_420_2041" x1="1955.42" y1="308" x2="1955.42" y2="653.899" gradientUnits="userSpaceOnUse">
<stop stop-color="#8C98FF"/>
<stop offset="1" stop-color="#D94A64"/>
</linearGradient>
<linearGradient id="paint80_linear_420_2041" x1="1955.42" y1="308" x2="1955.42" y2="653.899" gradientUnits="userSpaceOnUse">
<stop stop-color="#8C98FF"/>
<stop offset="1" stop-color="#D94A64"/>
</linearGradient>
<linearGradient id="paint81_linear_420_2041" x1="1955.42" y1="308" x2="1955.42" y2="653.899" gradientUnits="userSpaceOnUse">
<stop stop-color="#8C98FF"/>
<stop offset="1" stop-color="#D94A64"/>
</linearGradient>
<linearGradient id="paint82_linear_420_2041" x1="1955.42" y1="308" x2="1955.42" y2="653.899" gradientUnits="userSpaceOnUse">
<stop stop-color="#8C98FF"/>
<stop offset="1" stop-color="#D94A64"/>
</linearGradient>
<linearGradient id="paint83_linear_420_2041" x1="1955.42" y1="308" x2="1955.42" y2="653.899" gradientUnits="userSpaceOnUse">
<stop stop-color="#8C98FF"/>
<stop offset="1" stop-color="#D94A64"/>
</linearGradient>
<linearGradient id="paint84_linear_420_2041" x1="1955.42" y1="308" x2="1955.42" y2="653.899" gradientUnits="userSpaceOnUse">
<stop stop-color="#8C98FF"/>
<stop offset="1" stop-color="#D94A64"/>
</linearGradient>
<linearGradient id="paint85_linear_420_2041" x1="1955.42" y1="308" x2="1955.42" y2="653.899" gradientUnits="userSpaceOnUse">
<stop stop-color="#8C98FF"/>
<stop offset="1" stop-color="#D94A64"/>
</linearGradient>
<linearGradient id="paint86_linear_420_2041" x1="1955.42" y1="308" x2="1955.42" y2="653.899" gradientUnits="userSpaceOnUse">
<stop stop-color="#8C98FF"/>
<stop offset="1" stop-color="#D94A64"/>
</linearGradient>
<linearGradient id="paint87_linear_420_2041" x1="1955.42" y1="308" x2="1955.42" y2="653.899" gradientUnits="userSpaceOnUse">
<stop stop-color="#8C98FF"/>
<stop offset="1" stop-color="#D94A64"/>
</linearGradient>
<linearGradient id="paint88_linear_420_2041" x1="1955.42" y1="308" x2="1955.42" y2="653.899" gradientUnits="userSpaceOnUse">
<stop stop-color="#8C98FF"/>
<stop offset="1" stop-color="#D94A64"/>
</linearGradient>
<linearGradient id="paint89_linear_420_2041" x1="1955.42" y1="308" x2="1955.42" y2="653.899" gradientUnits="userSpaceOnUse">
<stop stop-color="#8C98FF"/>
<stop offset="1" stop-color="#D94A64"/>
</linearGradient>
<linearGradient id="paint90_linear_420_2041" x1="1955.42" y1="308" x2="1955.42" y2="653.899" gradientUnits="userSpaceOnUse">
<stop stop-color="#8C98FF"/>
<stop offset="1" stop-color="#D94A64"/>
</linearGradient>
<linearGradient id="paint91_linear_420_2041" x1="1955.42" y1="308" x2="1955.42" y2="653.899" gradientUnits="userSpaceOnUse">
<stop stop-color="#8C98FF"/>
<stop offset="1" stop-color="#D94A64"/>
</linearGradient>
<linearGradient id="paint92_linear_420_2041" x1="1955.42" y1="308" x2="1955.42" y2="653.899" gradientUnits="userSpaceOnUse">
<stop stop-color="#8C98FF"/>
<stop offset="1" stop-color="#D94A64"/>
</linearGradient>
<linearGradient id="paint93_linear_420_2041" x1="1955.42" y1="308" x2="1955.42" y2="653.899" gradientUnits="userSpaceOnUse">
<stop stop-color="#8C98FF"/>
<stop offset="1" stop-color="#D94A64"/>
</linearGradient>
<linearGradient id="paint94_linear_420_2041" x1="1955.42" y1="308" x2="1955.42" y2="653.899" gradientUnits="userSpaceOnUse">
<stop stop-color="#8C98FF"/>
<stop offset="1" stop-color="#D94A64"/>
</linearGradient>
</defs>
</svg>
